<?xml version="1.0" encoding="utf-8"?>
<svg version="1.1" xmlns:xlink="http://www.w3.org/1999/xlink" width="16px" height="16px" xmlns="http://www.w3.org/2000/svg">
  <g transform="matrix(1 0 0 1 -1943 -348 )">
    <path d="M 1951 348  C 1955.48 348  1959 351.52  1959 356  C 1959 360.48  1955.48 364  1951 364  C 1946.52 364  1943 360.48  1943 356  C 1943 351.52  1946.52 348  1951 348  Z " fill-rule="nonzero" fill="#ffffff" stroke="none" fill-opacity="0" />
    <path d="M 1951 348.5  C 1955.2 348.5  1958.5 351.8  1958.5 356  C 1958.5 360.2  1955.2 363.5  1951 363.5  C 1946.8 363.5  1943.5 360.2  1943.5 356  C 1943.5 351.8  1946.8 348.5  1951 348.5  Z " stroke-width="1" stroke="#ffffff" fill="none" />
  </g>
</svg>