<?xml version="1.0" encoding="utf-8"?>
<svg version="1.1" xmlns:xlink="http://www.w3.org/1999/xlink" width="16px" height="16px" xmlns="http://www.w3.org/2000/svg">
  <g transform="matrix(1 0 0 1 -2092 -146 )">
    <path d="M 2100 146  C 2104.48 146  2108 149.52  2108 154  C 2108 158.48  2104.48 162  2100 162  C 2095.52 162  2092 158.48  2092 154  C 2092 149.52  2095.52 146  2100 146  Z " fill-rule="nonzero" fill="#ffffff" stroke="none" fill-opacity="0" />
    <path d="M 2100 146.5  C 2104.2 146.5  2107.5 149.8  2107.5 154  C 2107.5 158.2  2104.2 161.5  2100 161.5  C 2095.8 161.5  2092.5 158.2  2092.5 154  C 2092.5 149.8  2095.8 146.5  2100 146.5  Z " stroke-width="1" stroke="#ffffff" fill="none" />
  </g>
</svg>