<?xml version="1.0" encoding="utf-8"?>
<svg version="1.1" xmlns:xlink="http://www.w3.org/1999/xlink" width="12px" height="35px" xmlns="http://www.w3.org/2000/svg">
  <g transform="matrix(1 0 0 1 -435 -414 )">
    <path d="M 10.6547085201794 26.7223011363636  C 10.9955156950673 27.0371685606061  11.1659192825112 27.4100378787879  11.1659192825112 27.8409090909091  L 11.1659192825112 33.4090909090909  C 11.1659192825112 33.8399621212121  10.9955156950673 34.2128314393939  10.6547085201794 34.5276988636364  C 10.3139013452915 34.8425662878788  9.91031390134529 35  9.44394618834081 35  L 2.55605381165919 35  C 2.08968609865471 35  1.68609865470852 34.8425662878788  1.34529147982063 34.5276988636364  C 1.00448430493274 34.2128314393939  0.834080717488789 33.8399621212121  0.834080717488789 33.4090909090909  L 0.834080717488789 27.8409090909091  C 0.834080717488789 27.4100378787879  1.00448430493274 27.0371685606061  1.34529147982063 26.7223011363636  C 1.68609865470852 26.4074337121212  2.08968609865471 26.25  2.55605381165919 26.25  L 9.44394618834081 26.25  C 9.91031390134529 26.25  10.3139013452915 26.4074337121212  10.6547085201794 26.7223011363636  Z M 11.5022421524664 0.472301136363638  C 11.8340807174888 0.787168560606056  11.9910313901345 1.16003787878788  11.9730941704036 1.59090909090909  L 11.219730941704 20.6818181818182  C 11.2017937219731 21.1126893939394  11.0179372197309 21.4855587121212  10.6681614349776 21.8004261363636  C 10.3183856502242 22.1152935606061  9.91031390134529 22.2727272727273  9.44394618834081 22.2727272727273  L 2.55605381165919 22.2727272727273  C 2.08968609865471 22.2727272727273  1.68161434977578 22.1152935606061  1.33183856502242 21.8004261363636  C 0.982062780269058 21.4855587121212  0.798206278026906 21.1126893939394  0.780269058295964 20.6818181818182  L 0.0269058295964126 1.59090909090909  C 0.00896860986547111 1.16003787878788  0.165919282511211 0.787168560606056  0.497757847533632 0.472301136363638  C 0.829596412556054 0.157433712121209  1.22869955156951 0  1.69506726457399 0  L 10.304932735426 0  C 10.7713004484305 0  11.1704035874439 0.157433712121209  11.5022421524664 0.472301136363638  Z " fill-rule="nonzero" fill="#000000" stroke="none" transform="matrix(1 0 0 1 435 414 )" />
  </g>
</svg>