<?xml version="1.0" encoding="utf-8"?>
<svg version="1.1" xmlns:xlink="http://www.w3.org/1999/xlink" width="47px" height="47px" xmlns="http://www.w3.org/2000/svg">
  <g transform="matrix(1 0 0 1 -170 -669 )">
    <path d="M 193.5 669  C 206.66 669  217 679.34  217 692.5  C 217 705.66  206.66 716  193.5 716  C 180.34 716  170 705.66  170 692.5  C 170 679.34  180.34 669  193.5 669  Z " fill-rule="nonzero" fill="#d9001b" stroke="none" />
    <path d="M 193.5 669.5  C 206.38 669.5  216.5 679.62  216.5 692.5  C 216.5 705.38  206.38 715.5  193.5 715.5  C 180.62 715.5  170.5 705.38  170.5 692.5  C 170.5 679.62  180.62 669.5  193.5 669.5  Z " stroke-width="1" stroke="#797979" fill="none" />
  </g>
</svg>