<?xml version="1.0" encoding="utf-8"?>
<svg version="1.1" xmlns:xlink="http://www.w3.org/1999/xlink" width="40px" height="40px" xmlns="http://www.w3.org/2000/svg">
  <defs>
    <filter x="570px" y="466px" width="40px" height="40px" filterUnits="userSpaceOnUse" id="filter136">
      <feOffset dx="1" dy="1" in="SourceAlpha" result="shadowOffsetInner" />
      <feGaussianBlur stdDeviation="2.5" in="shadowOffsetInner" result="shadowGaussian" />
      <feComposite in2="shadowGaussian" operator="atop" in="SourceAlpha" result="shadowComposite" />
      <feColorMatrix type="matrix" values="0 0 0 0 0  0 0 0 0 0  0 0 0 0 0  0 0 0 0.698039215686274 0  " in="shadowComposite" />
    </filter>
    <g id="widget137">
      <path d="M 589 470  C 597.4 470  604 476.6  604 485  C 604 493.4  597.4 500  589 500  C 580.6 500  574 493.4  574 485  C 574 476.6  580.6 470  589 470  Z " fill-rule="nonzero" fill="#000000" stroke="none" />
      <path d="M 589 470.5  C 597.12 470.5  603.5 476.88  603.5 485  C 603.5 493.12  597.12 499.5  589 499.5  C 580.88 499.5  574.5 493.12  574.5 485  C 574.5 476.88  580.88 470.5  589 470.5  Z " stroke-width="1" stroke="#ffffff" fill="none" />
    </g>
  </defs>
  <g transform="matrix(1 0 0 1 -570 -466 )">
    <use xlink:href="#widget137" filter="url(#filter136)" />
    <use xlink:href="#widget137" />
  </g>
</svg>