<?xml version="1.0" encoding="utf-8"?>
<svg version="1.1" xmlns:xlink="http://www.w3.org/1999/xlink" width="12px" height="12px" viewBox="504 381  12 12" xmlns="http://www.w3.org/2000/svg">
  <path d="M 510 381  C 513.36 381  516 383.64  516 387  C 516 390.36  513.36 393  510 393  C 506.64 393  504 390.36  504 387  C 504 383.64  506.64 381  510 381  Z " fill-rule="nonzero" fill="#ffffff" stroke="none" />
  <path d="M 510 381.5  C 513.08 381.5  515.5 383.92  515.5 387  C 515.5 390.08  513.08 392.5  510 392.5  C 506.92 392.5  504.5 390.08  504.5 387  C 504.5 383.92  506.92 381.5  510 381.5  Z " stroke-width="1" stroke="#797979" fill="none" />
  <path d="M 510 390  C 508.32 390  507 388.68  507 387  C 507 385.32  508.32 384  510 384  C 511.68 384  513 385.32  513 387  C 513 388.68  511.68 390  510 390  " fill-rule="nonzero" fill="#797979" stroke="none" />
</svg>