<?xml version="1.0" encoding="utf-8"?>
<svg version="1.1" xmlns:xlink="http://www.w3.org/1999/xlink" width="12px" height="12px" viewBox="242 453.5  12 12" xmlns="http://www.w3.org/2000/svg">
  <path d="M 248 453.5  C 251.36 453.5  254 456.14  254 459.5  C 254 462.86  251.36 465.5  248 465.5  C 244.64 465.5  242 462.86  242 459.5  C 242 456.14  244.64 453.5  248 453.5  Z " fill-rule="nonzero" fill="#ffffff" stroke="none" />
  <path d="M 248 454  C 251.08 454  253.5 456.42  253.5 459.5  C 253.5 462.58  251.08 465  248 465  C 244.92 465  242.5 462.58  242.5 459.5  C 242.5 456.42  244.92 454  248 454  Z " stroke-width="1" stroke="#797979" fill="none" />
  <path d="M 248 462.5  C 246.32 462.5  245 461.18  245 459.5  C 245 457.82  246.32 456.5  248 456.5  C 249.68 456.5  251 457.82  251 459.5  C 251 461.18  249.68 462.5  248 462.5  " fill-rule="nonzero" fill="#797979" stroke="none" />
</svg>