<?xml version="1.0" encoding="utf-8"?>
<svg version="1.1" xmlns:xlink="http://www.w3.org/1999/xlink" width="16px" height="16px" xmlns="http://www.w3.org/2000/svg">
  <g transform="matrix(1 0 0 1 -219 -578 )">
    <path d="M 227 578  C 231.48 578  235 581.52  235 586  C 235 590.48  231.48 594  227 594  C 222.52 594  219 590.48  219 586  C 219 581.52  222.52 578  227 578  Z " fill-rule="nonzero" fill="#ffffff" stroke="none" />
    <path d="M 227 578.5  C 231.2 578.5  234.5 581.8  234.5 586  C 234.5 590.2  231.2 593.5  227 593.5  C 222.8 593.5  219.5 590.2  219.5 586  C 219.5 581.8  222.8 578.5  227 578.5  Z " stroke-width="1" stroke="#09bb07" fill="none" />
  </g>
</svg>