<?xml version="1.0" encoding="utf-8"?>
<svg version="1.1" xmlns:xlink="http://www.w3.org/1999/xlink" width="12px" height="12px" viewBox="793 453.5  12 12" xmlns="http://www.w3.org/2000/svg">
  <path d="M 799 453.5  C 802.36 453.5  805 456.14  805 459.5  C 805 462.86  802.36 465.5  799 465.5  C 795.64 465.5  793 462.86  793 459.5  C 793 456.14  795.64 453.5  799 453.5  Z " fill-rule="nonzero" fill="#ffffff" stroke="none" />
  <path d="M 799 454  C 802.08 454  804.5 456.42  804.5 459.5  C 804.5 462.58  802.08 465  799 465  C 795.92 465  793.5 462.58  793.5 459.5  C 793.5 456.42  795.92 454  799 454  Z " stroke-width="1" stroke="#797979" fill="none" />
  <path d="M 799 462.5  C 797.32 462.5  796 461.18  796 459.5  C 796 457.82  797.32 456.5  799 456.5  C 800.68 456.5  802 457.82  802 459.5  C 802 461.18  800.68 462.5  799 462.5  " fill-rule="nonzero" fill="#797979" stroke="none" />
</svg>