<?xml version="1.0" encoding="utf-8"?>
<svg version="1.1" xmlns:xlink="http://www.w3.org/1999/xlink" width="16px" height="16px" xmlns="http://www.w3.org/2000/svg">
  <g transform="matrix(1 0 0 1 -438 -134 )">
    <path d="M 446 134  C 450.48 134  454 137.52  454 142  C 454 146.48  450.48 150  446 150  C 441.52 150  438 146.48  438 142  C 438 137.52  441.52 134  446 134  Z " fill-rule="nonzero" fill="#ffffff" stroke="none" fill-opacity="0" />
    <path d="M 446 134.5  C 450.2 134.5  453.5 137.8  453.5 142  C 453.5 146.2  450.2 149.5  446 149.5  C 441.8 149.5  438.5 146.2  438.5 142  C 438.5 137.8  441.8 134.5  446 134.5  Z " stroke-width="1" stroke="#ffffff" fill="none" />
  </g>
</svg>