<?xml version="1.0" encoding="utf-8"?>
<svg version="1.1" xmlns:xlink="http://www.w3.org/1999/xlink" width="40px" height="40px" xmlns="http://www.w3.org/2000/svg">
  <defs>
    <filter x="154px" y="233px" width="40px" height="40px" filterUnits="userSpaceOnUse" id="filter126">
      <feOffset dx="1" dy="1" in="SourceAlpha" result="shadowOffsetInner" />
      <feGaussianBlur stdDeviation="2.5" in="shadowOffsetInner" result="shadowGaussian" />
      <feComposite in2="shadowGaussian" operator="atop" in="SourceAlpha" result="shadowComposite" />
      <feColorMatrix type="matrix" values="0 0 0 0 0  0 0 0 0 0  0 0 0 0 0  0 0 0 0.698039215686274 0  " in="shadowComposite" />
    </filter>
    <g id="widget127">
      <path d="M 173 237  C 181.4 237  188 243.6  188 252  C 188 260.4  181.4 267  173 267  C 164.6 267  158 260.4  158 252  C 158 243.6  164.6 237  173 237  Z " fill-rule="nonzero" fill="#d9001b" stroke="none" />
      <path d="M 173 237.5  C 181.12 237.5  187.5 243.88  187.5 252  C 187.5 260.12  181.12 266.5  173 266.5  C 164.88 266.5  158.5 260.12  158.5 252  C 158.5 243.88  164.88 237.5  173 237.5  Z " stroke-width="1" stroke="#ffffff" fill="none" />
    </g>
  </defs>
  <g transform="matrix(1 0 0 1 -154 -233 )">
    <use xlink:href="#widget127" filter="url(#filter126)" />
    <use xlink:href="#widget127" />
  </g>
</svg>