<?xml version="1.0" encoding="utf-8"?>
<svg version="1.1" xmlns:xlink="http://www.w3.org/1999/xlink" width="170px" height="170px" xmlns="http://www.w3.org/2000/svg">
  <g transform="matrix(1 0 0 1 -410 -491 )">
    <path d="M 495 491  C 542.6 491  580 528.4  580 576  C 580 623.6  542.6 661  495 661  C 447.4 661  410 623.6  410 576  C 410 528.4  447.4 491  495 491  Z " fill-rule="nonzero" fill="#ffffff" stroke="none" />
    <path d="M 495 491.5  C 542.32 491.5  579.5 528.68  579.5 576  C 579.5 623.32  542.32 660.5  495 660.5  C 447.68 660.5  410.5 623.32  410.5 576  C 410.5 528.68  447.68 491.5  495 491.5  Z " stroke-width="1" stroke="#797979" fill="none" />
  </g>
</svg>