<?xml version="1.0" encoding="utf-8"?>
<svg version="1.1" xmlns:xlink="http://www.w3.org/1999/xlink" width="40px" height="40px" xmlns="http://www.w3.org/2000/svg">
  <g transform="matrix(1 0 0 1 -585 -575 )">
    <path d="M 605 575  C 616.2 575  625 583.8  625 595  C 625 606.2  616.2 615  605 615  C 593.8 615  585 606.2  585 595  C 585 583.8  593.8 575  605 575  Z " fill-rule="nonzero" fill="#d9001b" stroke="none" />
    <path d="M 605 575.5  C 615.92 575.5  624.5 584.08  624.5 595  C 624.5 605.92  615.92 614.5  605 614.5  C 594.08 614.5  585.5 605.92  585.5 595  C 585.5 584.08  594.08 575.5  605 575.5  Z " stroke-width="1" stroke="#797979" fill="none" />
  </g>
</svg>