<?xml version="1.0" encoding="utf-8"?>
<svg version="1.1" xmlns:xlink="http://www.w3.org/1999/xlink" width="41px" height="41px" xmlns="http://www.w3.org/2000/svg">
  <g transform="matrix(1 0 0 1 -122 -541 )">
    <path d="M 142.5 541  C 153.98 541  163 550.02  163 561.5  C 163 572.98  153.98 582  142.5 582  C 131.02 582  122 572.98  122 561.5  C 122 550.02  131.02 541  142.5 541  Z " fill-rule="nonzero" fill="#d9001b" stroke="none" />
    <path d="M 142.5 541.5  C 153.7 541.5  162.5 550.3  162.5 561.5  C 162.5 572.7  153.7 581.5  142.5 581.5  C 131.3 581.5  122.5 572.7  122.5 561.5  C 122.5 550.3  131.3 541.5  142.5 541.5  Z " stroke-width="1" stroke="#797979" fill="none" />
  </g>
</svg>