<?xml version="1.0" encoding="utf-8"?>
<svg version="1.1" xmlns:xlink="http://www.w3.org/1999/xlink" width="40px" height="40px" xmlns="http://www.w3.org/2000/svg">
  <g transform="matrix(1 0 0 1 -599 -575 )">
    <path d="M 619 575  C 630.2 575  639 583.8  639 595  C 639 606.2  630.2 615  619 615  C 607.8 615  599 606.2  599 595  C 599 583.8  607.8 575  619 575  Z " fill-rule="nonzero" fill="#d9001b" stroke="none" />
    <path d="M 619 575.5  C 629.92 575.5  638.5 584.08  638.5 595  C 638.5 605.92  629.92 614.5  619 614.5  C 608.08 614.5  599.5 605.92  599.5 595  C 599.5 584.08  608.08 575.5  619 575.5  Z " stroke-width="1" stroke="#797979" fill="none" />
  </g>
</svg>