<?xml version="1.0" encoding="utf-8"?>
<svg version="1.1" xmlns:xlink="http://www.w3.org/1999/xlink" width="41px" height="41px" xmlns="http://www.w3.org/2000/svg">
  <g transform="matrix(1 0 0 1 -110 -589 )">
    <path d="M 130.5 589  C 141.98 589  151 598.02  151 609.5  C 151 620.98  141.98 630  130.5 630  C 119.02 630  110 620.98  110 609.5  C 110 598.02  119.02 589  130.5 589  Z " fill-rule="nonzero" fill="#d9001b" stroke="none" />
    <path d="M 130.5 589.5  C 141.7 589.5  150.5 598.3  150.5 609.5  C 150.5 620.7  141.7 629.5  130.5 629.5  C 119.3 629.5  110.5 620.7  110.5 609.5  C 110.5 598.3  119.3 589.5  130.5 589.5  Z " stroke-width="1" stroke="#797979" fill="none" />
  </g>
</svg>