<?xml version="1.0" encoding="utf-8"?>
<svg version="1.1" xmlns:xlink="http://www.w3.org/1999/xlink" width="40px" height="40px" xmlns="http://www.w3.org/2000/svg">
  <defs>
    <filter x="555px" y="826px" width="40px" height="40px" filterUnits="userSpaceOnUse" id="filter39">
      <feOffset dx="1" dy="1" in="SourceAlpha" result="shadowOffsetInner" />
      <feGaussianBlur stdDeviation="2.5" in="shadowOffsetInner" result="shadowGaussian" />
      <feComposite in2="shadowGaussian" operator="atop" in="SourceAlpha" result="shadowComposite" />
      <feColorMatrix type="matrix" values="0 0 0 0 0  0 0 0 0 0  0 0 0 0 0  0 0 0 0.698039215686274 0  " in="shadowComposite" />
    </filter>
    <g id="widget40">
      <path d="M 574 830  C 582.4 830  589 836.6  589 845  C 589 853.4  582.4 860  574 860  C 565.6 860  559 853.4  559 845  C 559 836.6  565.6 830  574 830  Z " fill-rule="nonzero" fill="#a30014" stroke="none" />
      <path d="M 574 830.5  C 582.12 830.5  588.5 836.88  588.5 845  C 588.5 853.12  582.12 859.5  574 859.5  C 565.88 859.5  559.5 853.12  559.5 845  C 559.5 836.88  565.88 830.5  574 830.5  Z " stroke-width="1" stroke="#ffffff" fill="none" />
    </g>
  </defs>
  <g transform="matrix(1 0 0 1 -555 -826 )">
    <use xlink:href="#widget40" filter="url(#filter39)" />
    <use xlink:href="#widget40" />
  </g>
</svg>