<?xml version="1.0" encoding="utf-8"?>
<svg version="1.1" xmlns:xlink="http://www.w3.org/1999/xlink" width="12px" height="12px" viewBox="421 592.5  12 12" xmlns="http://www.w3.org/2000/svg">
  <path d="M 427 592.5  C 430.36 592.5  433 595.14  433 598.5  C 433 601.86  430.36 604.5  427 604.5  C 423.64 604.5  421 601.86  421 598.5  C 421 595.14  423.64 592.5  427 592.5  Z " fill-rule="nonzero" fill="#ffffff" stroke="none" />
  <path d="M 427 593  C 430.08 593  432.5 595.42  432.5 598.5  C 432.5 601.58  430.08 604  427 604  C 423.92 604  421.5 601.58  421.5 598.5  C 421.5 595.42  423.92 593  427 593  Z " stroke-width="1" stroke="#797979" fill="none" />
  <path d="M 427 601.5  C 425.32 601.5  424 600.18  424 598.5  C 424 596.82  425.32 595.5  427 595.5  C 428.68 595.5  430 596.82  430 598.5  C 430 600.18  428.68 601.5  427 601.5  " fill-rule="nonzero" fill="#797979" stroke="none" />
</svg>