<?xml version="1.0" encoding="utf-8"?>
<svg version="1.1" xmlns:xlink="http://www.w3.org/1999/xlink" width="47px" height="47px" xmlns="http://www.w3.org/2000/svg">
  <g transform="matrix(1 0 0 1 -773 -307 )">
    <path d="M 796.5 307  C 809.66 307  820 317.34  820 330.5  C 820 343.66  809.66 354  796.5 354  C 783.34 354  773 343.66  773 330.5  C 773 317.34  783.34 307  796.5 307  Z " fill-rule="nonzero" fill="#d9001b" stroke="none" />
    <path d="M 796.5 307.5  C 809.38 307.5  819.5 317.62  819.5 330.5  C 819.5 343.38  809.38 353.5  796.5 353.5  C 783.62 353.5  773.5 343.38  773.5 330.5  C 773.5 317.62  783.62 307.5  796.5 307.5  Z " stroke-width="1" stroke="#797979" fill="none" />
  </g>
</svg>