<?xml version="1.0" encoding="utf-8"?>
<svg version="1.1" xmlns:xlink="http://www.w3.org/1999/xlink" width="33px" height="51px" xmlns="http://www.w3.org/2000/svg">
  <defs>
    <mask fill="white" id="clip12">
      <path d="M 23 14.35  C 23 24.6  16.1 30.75  11.5 41  C 8.07534973750364 33.3689858281331  3.37589192930983 28.0104546725095  1.19794831107515 21.5407284643917  C 0.450471849603218 19.3202999775165  0 16.9689858281331  0 14.35  C 0 9.01999999999998  2.30000000000001 0  11.5 0  C 20.7 0  23 9.01999999999998  23 14.35  Z " fill-rule="evenodd" />
    </mask>
    <filter x="944px" y="449px" width="33px" height="51px" filterUnits="userSpaceOnUse" id="filter13">
      <feOffset dx="1" dy="1" in="SourceAlpha" result="shadowOffsetInner" />
      <feGaussianBlur stdDeviation="2.5" in="shadowOffsetInner" result="shadowGaussian" />
      <feComposite in2="shadowGaussian" operator="atop" in="SourceAlpha" result="shadowComposite" />
      <feColorMatrix type="matrix" values="0 0 0 0 0  0 0 0 0 0  0 0 0 0 0  0 0 0 0.698039215686274 0  " in="shadowComposite" />
    </filter>
    <g id="widget14">
      <path d="M 23 14.35  C 23 24.6  16.1 30.75  11.5 41  C 8.07534973750364 33.3689858281331  3.37589192930983 28.0104546725095  1.19794831107515 21.5407284643917  C 0.450471849603218 19.3202999775165  0 16.9689858281331  0 14.35  C 0 9.01999999999998  2.30000000000001 0  11.5 0  C 20.7 0  23 9.01999999999998  23 14.35  Z " fill-rule="nonzero" fill="#009dd9" stroke="none" transform="matrix(1 0 0 1 948 453 )" />
      <path d="M 23 14.35  C 23 24.6  16.1 30.75  11.5 41  C 8.07534973750364 33.3689858281331  3.37589192930983 28.0104546725095  1.19794831107515 21.5407284643917  C 0.450471849603218 19.3202999775165  0 16.9689858281331  0 14.35  C 0 9.01999999999998  2.30000000000001 0  11.5 0  C 20.7 0  23 9.01999999999998  23 14.35  Z " stroke-width="2" stroke="#ffffff" fill="none" transform="matrix(1 0 0 1 948 453 )" mask="url(#clip12)" />
    </g>
  </defs>
  <g transform="matrix(1 0 0 1 -944 -449 )">
    <use xlink:href="#widget14" filter="url(#filter13)" />
    <use xlink:href="#widget14" />
  </g>
</svg>