<?xml version="1.0" encoding="utf-8"?>
<svg version="1.1" xmlns:xlink="http://www.w3.org/1999/xlink" width="33px" height="51px" xmlns="http://www.w3.org/2000/svg">
  <defs>
    <filter x="672px" y="412px" width="33px" height="51px" filterUnits="userSpaceOnUse" id="filter15">
      <feOffset dx="1" dy="1" in="SourceAlpha" result="shadowOffsetInner" />
      <feGaussianBlur stdDeviation="2.5" in="shadowOffsetInner" result="shadowGaussian" />
      <feComposite in2="shadowGaussian" operator="atop" in="SourceAlpha" result="shadowComposite" />
      <feColorMatrix type="matrix" values="0 0 0 0 0  0 0 0 0 0  0 0 0 0 0  0 0 0 0.698039215686274 0  " in="shadowComposite" />
    </filter>
    <g id="widget16">
      <path d="M 687.5 455.81766277005  C 683.1 446.022407858492  676.5 440.145254911558  676.5 430.35  C 676.5 425.205714285714  678.7 416.5  687.5 416.5  C 696.3 416.5  698.5 425.205714285714  698.5 430.35  C 698.5 440.145254911558  691.9 446.022407858492  687.5 455.81766277005  Z " fill-rule="nonzero" fill="#009dd9" stroke="none" />
      <path d="M 687.5 457  C 682.9 446.75  676 440.6  676 430.35  C 676 425.02  678.3 416  687.5 416  C 696.7 416  699 425.02  699 430.35  C 699 440.6  692.1 446.75  687.5 457  Z M 687.5 454.6353255401  C 691.7 445.294815716984  698 439.690509823115  698 430.35  C 698 425.391428571429  695.9 417  687.5 417  C 679.1 417  677 425.391428571429  677 430.35  C 677 439.690509823115  683.3 445.294815716984  687.5 454.6353255401  Z " fill-rule="nonzero" fill="#ffffff" stroke="none" />
    </g>
  </defs>
  <g transform="matrix(1 0 0 1 -672 -412 )">
    <use xlink:href="#widget16" filter="url(#filter15)" />
    <use xlink:href="#widget16" />
  </g>
</svg>