<?xml version="1.0" encoding="utf-8"?>
<svg version="1.1" xmlns:xlink="http://www.w3.org/1999/xlink" width="16px" height="16px" xmlns="http://www.w3.org/2000/svg">
  <g transform="matrix(1 0 0 1 -1286 -380 )">
    <path d="M 1294 380  C 1298.48 380  1302 383.52  1302 388  C 1302 392.48  1298.48 396  1294 396  C 1289.52 396  1286 392.48  1286 388  C 1286 383.52  1289.52 380  1294 380  Z " fill-rule="nonzero" fill="#ffffff" stroke="none" fill-opacity="0" />
    <path d="M 1294 380.5  C 1298.2 380.5  1301.5 383.8  1301.5 388  C 1301.5 392.2  1298.2 395.5  1294 395.5  C 1289.8 395.5  1286.5 392.2  1286.5 388  C 1286.5 383.8  1289.8 380.5  1294 380.5  Z " stroke-width="1" stroke="#ffffff" fill="none" />
  </g>
</svg>