<?xml version="1.0" encoding="utf-8"?>
<svg version="1.1" xmlns:xlink="http://www.w3.org/1999/xlink" width="40px" height="40px" xmlns="http://www.w3.org/2000/svg">
  <defs>
    <mask fill="white" id="clip213">
      <path d="M 0 15  C 0 6.60000000000002  6.59999999999991 0  15 0  C 23.4000000000001 0  30 6.60000000000002  30 15  C 30 20.3051400866543  27.3674351638665 24.8923079452721  23.3114938243175 27.5523152431361  C 20.9453790643643 29.1040838714662  18.0948599133458 30  15 30  C 6.59999999999991 30  0 23.4  0 15  Z " fill-rule="evenodd" />
    </mask>
    <filter x="1912px" y="427px" width="40px" height="40px" filterUnits="userSpaceOnUse" id="filter214">
      <feOffset dx="1" dy="1" in="SourceAlpha" result="shadowOffsetInner" />
      <feGaussianBlur stdDeviation="2.5" in="shadowOffsetInner" result="shadowGaussian" />
      <feComposite in2="shadowGaussian" operator="atop" in="SourceAlpha" result="shadowComposite" />
      <feColorMatrix type="matrix" values="0 0 0 0 0  0 0 0 0 0  0 0 0 0 0  0 0 0 0.698039215686274 0  " in="shadowComposite" />
    </filter>
    <g id="widget215">
      <path d="M 0 15  C 0 6.60000000000002  6.59999999999991 0  15 0  C 23.4000000000001 0  30 6.60000000000002  30 15  C 30 20.3051400866543  27.3674351638665 24.8923079452721  23.3114938243175 27.5523152431361  C 20.9453790643643 29.1040838714662  18.0948599133458 30  15 30  C 6.59999999999991 30  0 23.4  0 15  Z " fill-rule="nonzero" fill="#a30014" stroke="none" transform="matrix(1 0 0 1 1916 431 )" />
      <path d="M 0 15  C 0 6.60000000000002  6.59999999999991 0  15 0  C 23.4000000000001 0  30 6.60000000000002  30 15  C 30 20.3051400866543  27.3674351638665 24.8923079452721  23.3114938243175 27.5523152431361  C 20.9453790643643 29.1040838714662  18.0948599133458 30  15 30  C 6.59999999999991 30  0 23.4  0 15  Z " stroke-width="2" stroke="#ffffff" fill="none" transform="matrix(1 0 0 1 1916 431 )" mask="url(#clip213)" />
    </g>
  </defs>
  <g transform="matrix(1 0 0 1 -1912 -427 )">
    <use xlink:href="#widget215" filter="url(#filter214)" />
    <use xlink:href="#widget215" />
  </g>
</svg>