<?xml version="1.0" encoding="utf-8"?>
<svg version="1.1" xmlns:xlink="http://www.w3.org/1999/xlink" width="41px" height="41px" xmlns="http://www.w3.org/2000/svg">
  <g transform="matrix(1 0 0 1 -114 -787 )">
    <path d="M 134.5 787  C 145.98 787  155 796.02  155 807.5  C 155 818.98  145.98 828  134.5 828  C 123.02 828  114 818.98  114 807.5  C 114 796.02  123.02 787  134.5 787  Z " fill-rule="nonzero" fill="#d9001b" stroke="none" />
    <path d="M 134.5 787.5  C 145.7 787.5  154.5 796.3  154.5 807.5  C 154.5 818.7  145.7 827.5  134.5 827.5  C 123.3 827.5  114.5 818.7  114.5 807.5  C 114.5 796.3  123.3 787.5  134.5 787.5  Z " stroke-width="1" stroke="#797979" fill="none" />
  </g>
</svg>