<?xml version="1.0" encoding="utf-8"?>
<svg version="1.1" xmlns:xlink="http://www.w3.org/1999/xlink" width="12px" height="12px" viewBox="366 429.5  12 12" xmlns="http://www.w3.org/2000/svg">
  <path d="M 372 429.5  C 375.36 429.5  378 432.14  378 435.5  C 378 438.86  375.36 441.5  372 441.5  C 368.64 441.5  366 438.86  366 435.5  C 366 432.14  368.64 429.5  372 429.5  Z " fill-rule="nonzero" fill="#ffffff" stroke="none" />
  <path d="M 372 430  C 375.08 430  377.5 432.42  377.5 435.5  C 377.5 438.58  375.08 441  372 441  C 368.92 441  366.5 438.58  366.5 435.5  C 366.5 432.42  368.92 430  372 430  Z " stroke-width="1" stroke="#797979" fill="none" />
  <path d="M 372 438.5  C 370.32 438.5  369 437.18  369 435.5  C 369 433.82  370.32 432.5  372 432.5  C 373.68 432.5  375 433.82  375 435.5  C 375 437.18  373.68 438.5  372 438.5  " fill-rule="nonzero" fill="#797979" stroke="none" />
</svg>