<?xml version="1.0" encoding="utf-8"?>
<svg version="1.1" xmlns:xlink="http://www.w3.org/1999/xlink" width="12px" height="12px" viewBox="241 429.5  12 12" xmlns="http://www.w3.org/2000/svg">
  <path d="M 247 429.5  C 250.36 429.5  253 432.14  253 435.5  C 253 438.86  250.36 441.5  247 441.5  C 243.64 441.5  241 438.86  241 435.5  C 241 432.14  243.64 429.5  247 429.5  Z " fill-rule="nonzero" fill="#ffffff" stroke="none" />
  <path d="M 247 430  C 250.08 430  252.5 432.42  252.5 435.5  C 252.5 438.58  250.08 441  247 441  C 243.92 441  241.5 438.58  241.5 435.5  C 241.5 432.42  243.92 430  247 430  Z " stroke-width="1" stroke="#797979" fill="none" />
  <path d="M 247 438.5  C 245.32 438.5  244 437.18  244 435.5  C 244 433.82  245.32 432.5  247 432.5  C 248.68 432.5  250 433.82  250 435.5  C 250 437.18  248.68 438.5  247 438.5  " fill-rule="nonzero" fill="#797979" stroke="none" />
</svg>