<?xml version="1.0" encoding="utf-8"?>
<svg version="1.1" xmlns:xlink="http://www.w3.org/1999/xlink" width="12px" height="12px" viewBox="241 384.5  12 12" xmlns="http://www.w3.org/2000/svg">
  <path d="M 247 384.5  C 250.36 384.5  253 387.14  253 390.5  C 253 393.86  250.36 396.5  247 396.5  C 243.64 396.5  241 393.86  241 390.5  C 241 387.14  243.64 384.5  247 384.5  Z " fill-rule="nonzero" fill="#ffffff" stroke="none" />
  <path d="M 247 385  C 250.08 385  252.5 387.42  252.5 390.5  C 252.5 393.58  250.08 396  247 396  C 243.92 396  241.5 393.58  241.5 390.5  C 241.5 387.42  243.92 385  247 385  Z " stroke-width="1" stroke="#797979" fill="none" />
  <path d="M 247 393.5  C 245.32 393.5  244 392.18  244 390.5  C 244 388.82  245.32 387.5  247 387.5  C 248.68 387.5  250 388.82  250 390.5  C 250 392.18  248.68 393.5  247 393.5  " fill-rule="nonzero" fill="#797979" stroke="none" />
</svg>