<?xml version="1.0" encoding="utf-8"?>
<svg version="1.1" xmlns:xlink="http://www.w3.org/1999/xlink" width="12px" height="12px" viewBox="366 384.5  12 12" xmlns="http://www.w3.org/2000/svg">
  <path d="M 372 384.5  C 375.36 384.5  378 387.14  378 390.5  C 378 393.86  375.36 396.5  372 396.5  C 368.64 396.5  366 393.86  366 390.5  C 366 387.14  368.64 384.5  372 384.5  Z " fill-rule="nonzero" fill="#ffffff" stroke="none" />
  <path d="M 372 385  C 375.08 385  377.5 387.42  377.5 390.5  C 377.5 393.58  375.08 396  372 396  C 368.92 396  366.5 393.58  366.5 390.5  C 366.5 387.42  368.92 385  372 385  Z " stroke-width="1" stroke="#797979" fill="none" />
  <path d="M 372 393.5  C 370.32 393.5  369 392.18  369 390.5  C 369 388.82  370.32 387.5  372 387.5  C 373.68 387.5  375 388.82  375 390.5  C 375 392.18  373.68 393.5  372 393.5  " fill-rule="nonzero" fill="#797979" stroke="none" />
</svg>