<?xml version="1.0" encoding="utf-8"?>
<svg version="1.1" xmlns:xlink="http://www.w3.org/1999/xlink" width="40px" height="40px" xmlns="http://www.w3.org/2000/svg">
  <defs>
    <filter x="482px" y="502px" width="40px" height="40px" filterUnits="userSpaceOnUse" id="filter1">
      <feOffset dx="1" dy="1" in="SourceAlpha" result="shadowOffsetInner" />
      <feGaussianBlur stdDeviation="2.5" in="shadowOffsetInner" result="shadowGaussian" />
      <feComposite in2="shadowGaussian" operator="atop" in="SourceAlpha" result="shadowComposite" />
      <feColorMatrix type="matrix" values="0 0 0 0 0  0 0 0 0 0  0 0 0 0 0  0 0 0 0.698039215686274 0  " in="shadowComposite" />
    </filter>
    <g id="widget2">
      <path d="M 501 506  C 509.4 506  516 512.6  516 521  C 516 529.4  509.4 536  501 536  C 492.6 536  486 529.4  486 521  C 486 512.6  492.6 506  501 506  Z " fill-rule="nonzero" fill="#7f7f7f" stroke="none" />
      <path d="M 501 506.5  C 509.12 506.5  515.5 512.88  515.5 521  C 515.5 529.12  509.12 535.5  501 535.5  C 492.88 535.5  486.5 529.12  486.5 521  C 486.5 512.88  492.88 506.5  501 506.5  Z " stroke-width="1" stroke="#ffffff" fill="none" />
    </g>
  </defs>
  <g transform="matrix(1 0 0 1 -482 -502 )">
    <use xlink:href="#widget2" filter="url(#filter1)" />
    <use xlink:href="#widget2" />
  </g>
</svg>