<?xml version="1.0" encoding="utf-8"?>
<svg version="1.1" xmlns:xlink="http://www.w3.org/1999/xlink" width="10px" height="13px" xmlns="http://www.w3.org/2000/svg">
  <g transform="matrix(1 0 0 1 -117 -186 )">
    <path d="M 9.82817869415811 0.781563126252507  C 9.94272623138602 0.868403473613881  10 0.968269873079492  10 1.08116232464931  C 10 1.1940547762191  9.94272623138602 1.29392117568472  9.82817869415811 1.38076152304609  L 3.07560137457045 6.5  L 9.82817869415811 11.6192384769539  C 9.94272623138602 11.7060788243153  10 11.8059452237809  10 11.9188376753507  C 10 12.0317301269205  9.94272623138602 12.1315965263861  9.82817869415811 12.2184368737475  L 8.96907216494844 12.8697394789579  C 8.85452462772054 12.9565798263193  8.72279495990836 13  8.57388316151201 13  C 8.42497136311567 13  8.29324169530355 12.9565798263193  8.17869415807564 12.8697394789579  L 0.171821305841888 6.7995991983968  C 0.0572737686139817 6.7127588510354  0 6.61289245156979  0 6.5  C 0 6.38710754843021  0.0572737686139817 6.2872411489646  0.171821305841888 6.20040080160319  L 8.17869415807564 0.130260521042089  C 8.29324169530355 0.043420173680687  8.42497136311567 0  8.57388316151201 0  C 8.72279495990836 0  8.85452462772054 0.043420173680687  8.96907216494844 0.130260521042089  L 9.82817869415811 0.781563126252507  Z " fill-rule="nonzero" fill="#000000" stroke="none" transform="matrix(1 0 0 1 117 186 )" />
  </g>
</svg>