<?xml version="1.0" encoding="utf-8"?>
<svg version="1.1" xmlns:xlink="http://www.w3.org/1999/xlink" width="20px" height="18px" xmlns="http://www.w3.org/2000/svg">
  <g transform="matrix(1 0 0 1 -2338 -525 )">
    <path d="M 19.6387096774194 2.48484848484849  C 19.8795698924731 2.76767676767677  20 3.11111111111111  20 3.51515151515152  C 20 3.91919191919192  19.8795698924731 4.26262626262626  19.6387096774194 4.54545454545455  L 10.2967741935484 15.5151515151515  L 8.54193548387097 17.5757575757576  C 8.30107526881721 17.8585858585859  8.00860215053764 18  7.66451612903226 18  C 7.32043010752688 18  7.02795698924731 17.8585858585859  6.78709677419355 17.5757575757576  L 5.03225806451613 15.5151515151515  L 0.361290322580645 10.030303030303  C 0.120430107526882 9.74747474747475  0 9.4040404040404  0 9  C 0 8.5959595959596  0.120430107526882 8.25252525252525  0.361290322580645 7.96969696969697  L 2.11612903225806 5.90909090909091  C 2.35698924731183 5.62626262626263  2.6494623655914 5.48484848484848  2.99354838709677 5.48484848484848  C 3.33763440860215 5.48484848484848  3.63010752688172 5.62626262626263  3.87096774193548 5.90909090909091  L 7.66451612903226 10.3787878787879  L 16.1290322580645 0.424242424242424  C 16.3698924731183 0.141414141414141  16.6623655913979 0  17.0064516129032 0  C 17.3505376344086 0  17.6430107526882 0.141414141414141  17.8838709677419 0.424242424242424  L 19.6387096774194 2.48484848484849  Z " fill-rule="nonzero" fill="#000000" stroke="none" transform="matrix(1 0 0 1 2338 525 )" />
  </g>
</svg>