<?xml version="1.0" encoding="utf-8"?>
<svg version="1.1" xmlns:xlink="http://www.w3.org/1999/xlink" width="38px" height="35px" xmlns="http://www.w3.org/2000/svg">
  <g transform="matrix(1 0 0 1 -619 -2024 )">
    <path d="M 638 2024  C 648.64 2024  657 2031.7  657 2041.5  C 657 2051.3  648.64 2059  638 2059  C 627.36 2059  619 2051.3  619 2041.5  C 619 2031.7  627.36 2024  638 2024  Z " fill-rule="nonzero" fill="#199ed8" stroke="none" />
    <path d="M 638 2024.5  C 648.36 2024.5  656.5 2031.98  656.5 2041.5  C 656.5 2051.02  648.36 2058.5  638 2058.5  C 627.64 2058.5  619.5 2051.02  619.5 2041.5  C 619.5 2031.98  627.64 2024.5  638 2024.5  Z " stroke-width="1" stroke="#797979" fill="none" />
  </g>
</svg>