<?xml version="1.0" encoding="utf-8"?>
<svg version="1.1" xmlns:xlink="http://www.w3.org/1999/xlink" width="10px" height="53px" preserveAspectRatio="xMidYMin meet" viewBox="1287 1753  8 53" xmlns="http://www.w3.org/2000/svg">
  <path d="M 336 1770  L 341 1770  A 5 5 0 0 0 346 1765 L 346 1763  A 5 5 0 0 1 351 1758 L 773 1758  A 3 3 0 0 1 776 1755 A 3 3 0 0 1 779 1758 L 1050 1758  A 3 3 0 0 1 1053 1755 A 3 3 0 0 1 1056 1758 L 1286 1758  A 5 5 0 0 1 1291 1763 L 1291 1800  " stroke-width="2" stroke="#0099cc" fill="none" />
  <path d="M 1283.4 1799  L 1291 1806  L 1298.6 1799  L 1283.4 1799  Z " fill-rule="nonzero" fill="#0099cc" stroke="none" />
</svg>