<?xml version="1.0" encoding="utf-8"?>
<svg version="1.1" xmlns:xlink="http://www.w3.org/1999/xlink" width="283px" height="197px" xmlns="http://www.w3.org/2000/svg">
  <g transform="matrix(1 0 0 1 -2221 -209 )">
    <path d="M 2221 209  L 2504 209  L 2504 406  L 2221 406  L 2221 209  " fill-rule="nonzero" fill="#cccccc" stroke="none" />
    <path d="M 2235 223  L 2490 223  L 2490 392  L 2235 392  L 2235 223  " fill-rule="nonzero" fill="#ffffff" stroke="none" />
    <path d="M 2382.935 268.1  C 2374.661 268.1  2368.16 261.599  2368.16 253.325  C 2368.16 245.051  2374.661 238.55  2382.935 238.55  C 2391.209 238.55  2397.71 245.051  2397.71 253.325  C 2397.71 261.599  2391.209 268.1  2382.935 268.1  " fill-rule="nonzero" fill="#cccccc" stroke="none" />
    <path d="M 2240 387  L 2240 299.55  L 2301.25 259.8  L 2387 320.590812720848  L 2436 283.65  L 2485 320.590812720848  L 2485 387  L 2240 387  " fill-rule="nonzero" fill="#169bd5" stroke="none" />
  </g>
</svg>