<?xml version="1.0" encoding="utf-8"?>
<svg version="1.1" xmlns:xlink="http://www.w3.org/1999/xlink" width="50px" height="45px" xmlns="http://www.w3.org/2000/svg">
  <g transform="matrix(1 0 0 1 -2780 -527 )">
    <path d="M 2780 527  L 2830 527  L 2830 572  L 2780 572  L 2780 527  " fill-rule="nonzero" fill="#cccccc" stroke="none" />
    <path d="M 2783 530  L 2827 530  L 2827 569  L 2783 569  L 2783 530  " fill-rule="nonzero" fill="#ffffff" stroke="none" />
    <path d="M 2809.375 540.5  C 2807.485 540.5  2806 539.015  2806 537.125  C 2806 535.235  2807.485 533.75  2809.375 533.75  C 2811.265 533.75  2812.75 535.235  2812.75 537.125  C 2812.75 539.015  2811.265 540.5  2809.375 540.5  " fill-rule="nonzero" fill="#cccccc" stroke="none" />
    <path d="M 2784 568  L 2784 547.65  L 2794.5 538.4  L 2809.2 548.02  L 2817.6 543.95  L 2826 548.02  L 2826 568  L 2784 568  " fill-rule="nonzero" fill="#169bd5" stroke="none" />
  </g>
</svg>