<?xml version="1.0" encoding="utf-8"?>
<svg version="1.1" xmlns:xlink="http://www.w3.org/1999/xlink" width="10px" height="291px" preserveAspectRatio="xMidYMin meet" viewBox="396 63  8 291" xmlns="http://www.w3.org/2000/svg">
  <path d="M 378 349  L 395 349  A 5 5 0 0 0 400 344 L 400 271  A 3 3 0 0 0 403 268 A 3 3 0 0 0 400 265 L 400 118  A 3 3 0 0 0 403 115 A 3 3 0 0 0 400 112 L 400 73  A 5 5 0 0 1 405 68 L 1558 68  " stroke-width="2" stroke="#0000ff" fill="none" />
  <path d="M 1557 75.6  L 1564 68  L 1557 60.4  L 1557 75.6  Z " fill-rule="nonzero" fill="#0000ff" stroke="none" />
</svg>