<?xml version="1.0" encoding="utf-8"?>
<svg version="1.1" xmlns:xlink="http://www.w3.org/1999/xlink" width="12px" height="12px" viewBox="796 409.5  12 12" xmlns="http://www.w3.org/2000/svg">
  <path d="M 802 409.5  C 805.36 409.5  808 412.14  808 415.5  C 808 418.86  805.36 421.5  802 421.5  C 798.64 421.5  796 418.86  796 415.5  C 796 412.14  798.64 409.5  802 409.5  Z " fill-rule="nonzero" fill="#ffffff" stroke="none" />
  <path d="M 802 410  C 805.08 410  807.5 412.42  807.5 415.5  C 807.5 418.58  805.08 421  802 421  C 798.92 421  796.5 418.58  796.5 415.5  C 796.5 412.42  798.92 410  802 410  Z " stroke-width="1" stroke="#797979" fill="none" />
  <path d="M 802 418.5  C 800.32 418.5  799 417.18  799 415.5  C 799 413.82  800.32 412.5  802 412.5  C 803.68 412.5  805 413.82  805 415.5  C 805 417.18  803.68 418.5  802 418.5  " fill-rule="nonzero" fill="#797979" stroke="none" />
</svg>