<?xml version="1.0" encoding="utf-8"?>
<svg version="1.1" xmlns:xlink="http://www.w3.org/1999/xlink" width="40px" height="40px" xmlns="http://www.w3.org/2000/svg">
  <defs>
    <filter x="910px" y="351px" width="40px" height="40px" filterUnits="userSpaceOnUse" id="filter15">
      <feOffset dx="1" dy="1" in="SourceAlpha" result="shadowOffsetInner" />
      <feGaussianBlur stdDeviation="2.5" in="shadowOffsetInner" result="shadowGaussian" />
      <feComposite in2="shadowGaussian" operator="atop" in="SourceAlpha" result="shadowComposite" />
      <feColorMatrix type="matrix" values="0 0 0 0 0  0 0 0 0 0  0 0 0 0 0  0 0 0 0.698039215686274 0  " in="shadowComposite" />
    </filter>
    <g id="widget16">
      <path d="M 929 355  C 937.4 355  944 361.6  944 370  C 944 378.4  937.4 385  929 385  C 920.6 385  914 378.4  914 370  C 914 361.6  920.6 355  929 355  Z " fill-rule="nonzero" fill="#aaaaaa" stroke="none" />
      <path d="M 929 355.5  C 937.12 355.5  943.5 361.88  943.5 370  C 943.5 378.12  937.12 384.5  929 384.5  C 920.88 384.5  914.5 378.12  914.5 370  C 914.5 361.88  920.88 355.5  929 355.5  Z " stroke-width="1" stroke="#ffffff" fill="none" />
    </g>
  </defs>
  <g transform="matrix(1 0 0 1 -910 -351 )">
    <use xlink:href="#widget16" filter="url(#filter15)" />
    <use xlink:href="#widget16" />
  </g>
</svg>