<?xml version="1.0" encoding="utf-8"?>
<svg version="1.1" xmlns:xlink="http://www.w3.org/1999/xlink" width="16px" height="16px" xmlns="http://www.w3.org/2000/svg">
  <g transform="matrix(1 0 0 1 -437 -275 )">
    <path d="M 445 275  C 449.48 275  453 278.52  453 283  C 453 287.48  449.48 291  445 291  C 440.52 291  437 287.48  437 283  C 437 278.52  440.52 275  445 275  Z " fill-rule="nonzero" fill="#ffffff" stroke="none" fill-opacity="0" />
    <path d="M 445 275.5  C 449.2 275.5  452.5 278.8  452.5 283  C 452.5 287.2  449.2 290.5  445 290.5  C 440.8 290.5  437.5 287.2  437.5 283  C 437.5 278.8  440.8 275.5  445 275.5  Z " stroke-width="1" stroke="#ffffff" fill="none" />
  </g>
</svg>