<?xml version="1.0" encoding="utf-8"?>
<svg version="1.1" xmlns:xlink="http://www.w3.org/1999/xlink" width="889px" height="12px" preserveAspectRatio="xMinYMid meet" viewBox="1731 551  889 10" xmlns="http://www.w3.org/2000/svg">
  <defs>
    <mask fill="white" id="clip401">
      <path d="M 2139.5 543  L 2250.5 543  L 2250.5 568  L 2139.5 568  Z M 1720 543  L 2632 543  L 2632 619  L 1720 619  Z " fill-rule="evenodd" />
    </mask>
  </defs>
  <path d="M 1734 556.5  L 2609 556.5  A 5 5 0 0 1 2614.5 561.5 L 2614.5 598  " stroke-width="3" stroke="#0099cc" fill="none" mask="url(#clip401)" />
  <path d="M 1735 552.5  A 4 4 0 0 0 1731 556.5 A 4 4 0 0 0 1735 560.5 A 4 4 0 0 0 1739 556.5 A 4 4 0 0 0 1735 552.5 Z M 2604.5 588.9  L 2614.5 601  L 2624.5 588.9  L 2614.5 593.8  L 2604.5 588.9  Z " fill-rule="nonzero" fill="#0099cc" stroke="none" mask="url(#clip401)" />
</svg>