<?xml version="1.0" encoding="utf-8"?>
<svg version="1.1" xmlns:xlink="http://www.w3.org/1999/xlink" width="22px" height="22px" preserveAspectRatio="xMinYMid meet" viewBox="567 1106  22 20" xmlns="http://www.w3.org/2000/svg">
  <defs>
    <mask fill="white" id="clip406">
      <path d="M 518 1173  L 638 1173  L 638 1228  L 518 1228  Z M 518 1101  L 638 1101  L 638 1308  L 518 1308  Z " fill-rule="evenodd" />
    </mask>
  </defs>
  <path d="M 578.5 1173  L 578.5 1115  M 578.5 1228  L 578.5 1287  " stroke-width="3" stroke="#0099cc" fill="none" />
  <path d="M 578.5 1112  A 4 4 0 0 0 574.5 1116 A 4 4 0 0 0 578.5 1120 A 4 4 0 0 0 582.5 1116 A 4 4 0 0 0 578.5 1112 Z M 568.5 1277.9  L 578.5 1290  L 588.5 1277.9  L 578.5 1282.8  L 568.5 1277.9  Z " fill-rule="nonzero" fill="#0099cc" stroke="none" mask="url(#clip406)" />
</svg>