<?xml version="1.0" encoding="utf-8"?>
<svg version="1.1" xmlns:xlink="http://www.w3.org/1999/xlink" width="12px" height="970px" preserveAspectRatio="xMidYMin meet" viewBox="249 786  10 970" xmlns="http://www.w3.org/2000/svg">
  <defs>
    <mask fill="white" id="clip461">
      <path d="M 218 1351  L 290 1351  L 290 1376  L 218 1376  Z M 218 774  L 592 774  L 592 1761  L 218 1761  Z " fill-rule="evenodd" />
    </mask>
  </defs>
  <path d="M 578 1750.5  L 259 1750.5  A 5 5 0 0 1 254.5 1745.5 L 254.5 797  A 5 5 0 0 1 259.5 792.5 L 394 792.5  " stroke-width="3" stroke="#0099cc" fill="none" mask="url(#clip461)" />
  <path d="M 577 1746.5  A 4 4 0 0 0 573 1750.5 A 4 4 0 0 0 577 1754.5 A 4 4 0 0 0 581 1750.5 A 4 4 0 0 0 577 1746.5 Z M 384.9 802.5  L 397 792.5  L 384.9 782.5  L 389.8 792.5  L 384.9 802.5  Z " fill-rule="nonzero" fill="#0099cc" stroke="none" mask="url(#clip461)" />
</svg>