<?xml version="1.0" encoding="utf-8"?>
<svg version="1.1" xmlns:xlink="http://www.w3.org/1999/xlink" width="509px" height="12px" preserveAspectRatio="xMinYMid meet" viewBox="1658 655  509 10" xmlns="http://www.w3.org/2000/svg">
  <defs>
    <mask fill="white" id="clip11">
      <path d="M 1816.5 648  L 1927.5 648  L 1927.5 673  L 1816.5 673  Z M 1653 550  L 2179 550  L 2179 696  L 1653 696  Z " fill-rule="evenodd" />
    </mask>
  </defs>
  <path d="M 1664.5 564  L 1664.5 655  A 5 5 0 0 0 1669.5 660.5 L 2156 660.5  A 5 5 0 0 1 2161.5 665.5 L 2161.5 675  " stroke-width="3" stroke="#0099cc" fill="none" mask="url(#clip11)" />
  <path d="M 1664.5 561  A 4 4 0 0 0 1660.5 565 A 4 4 0 0 0 1664.5 569 A 4 4 0 0 0 1668.5 565 A 4 4 0 0 0 1664.5 561 Z M 2151.5 665.9  L 2161.5 678  L 2171.5 665.9  L 2161.5 670.8  L 2151.5 665.9  Z " fill-rule="nonzero" fill="#0099cc" stroke="none" mask="url(#clip11)" />
</svg>