<?xml version="1.0" encoding="utf-8"?>
<svg version="1.1" xmlns:xlink="http://www.w3.org/1999/xlink" width="25px" height="25px" xmlns="http://www.w3.org/2000/svg">
  <g transform="matrix(1 0 0 1 -159 -358 )">
    <path d="M 171.5 358  C 178.5 358  184 363.5  184 370.5  C 184 377.5  178.5 383  171.5 383  C 164.5 383  159 377.5  159 370.5  C 159 363.5  164.5 358  171.5 358  Z " fill-rule="nonzero" fill="#d9001b" stroke="none" />
    <path d="M 171.5 358.5  C 178.22 358.5  183.5 363.78  183.5 370.5  C 183.5 377.22  178.22 382.5  171.5 382.5  C 164.78 382.5  159.5 377.22  159.5 370.5  C 159.5 363.78  164.78 358.5  171.5 358.5  Z " stroke-width="1" stroke="#797979" fill="none" />
  </g>
</svg>