<?xml version="1.0" encoding="utf-8"?>
<svg version="1.1" xmlns:xlink="http://www.w3.org/1999/xlink" width="10px" height="51px" preserveAspectRatio="xMidYMin meet" viewBox="1847 905  8 51" xmlns="http://www.w3.org/2000/svg">
  <path d="M 951 967  L 995 967  A 5 5 0 0 0 1000 962 L 1000 928  A 3 3 0 0 0 1003 925 A 3 3 0 0 0 1000 922 L 1000 915  A 5 5 0 0 1 1005 910 L 1362 910  A 3 3 0 0 1 1365 907 A 3 3 0 0 1 1368 910 L 1623 910  A 3 3 0 0 1 1626 907 A 3 3 0 0 1 1629 910 L 1846 910  A 5 5 0 0 1 1851 915 L 1851 950  " stroke-width="2" stroke="#0099cc" fill="none" />
  <path d="M 1843.4 949  L 1851 956  L 1858.6 949  L 1843.4 949  Z " fill-rule="nonzero" fill="#0099cc" stroke="none" />
</svg>