<?xml version="1.0" encoding="utf-8"?>
<svg version="1.1" xmlns:xlink="http://www.w3.org/1999/xlink" width="25px" height="21px" xmlns="http://www.w3.org/2000/svg">
  <g transform="matrix(1 0 0 1 -3624 -507 )">
    <path d="M 3636.5 507  C 3643.5 507  3649 511.62  3649 517.5  C 3649 523.38  3643.5 528  3636.5 528  C 3629.5 528  3624 523.38  3624 517.5  C 3624 511.62  3629.5 507  3636.5 507  Z " fill-rule="nonzero" fill="#ffffff" stroke="none" />
    <path d="M 3636.5 507.5  C 3643.22 507.5  3648.5 511.9  3648.5 517.5  C 3648.5 523.1  3643.22 527.5  3636.5 527.5  C 3629.78 527.5  3624.5 523.1  3624.5 517.5  C 3624.5 511.9  3629.78 507.5  3636.5 507.5  Z " stroke-width="1" stroke="#797979" fill="none" />
  </g>
</svg>