<?xml version="1.0" encoding="utf-8"?>
<svg version="1.1" xmlns:xlink="http://www.w3.org/1999/xlink" width="80px" height="81px" xmlns="http://www.w3.org/2000/svg">
  <g transform="matrix(1 0 0 1 -3876 -273 )">
    <path d="M 3916 273  C 3938.4 273  3956 290.82  3956 313.5  C 3956 336.18  3938.4 354  3916 354  C 3893.6 354  3876 336.18  3876 313.5  C 3876 290.82  3893.6 273  3916 273  Z " fill-rule="nonzero" fill="#ffffff" stroke="none" />
    <path d="M 3916 273.5  C 3938.12 273.5  3955.5 291.1  3955.5 313.5  C 3955.5 335.9  3938.12 353.5  3916 353.5  C 3893.88 353.5  3876.5 335.9  3876.5 313.5  C 3876.5 291.1  3893.88 273.5  3916 273.5  Z " stroke-width="1" stroke="#797979" fill="none" />
  </g>
</svg>