<?xml version="1.0" encoding="utf-8"?>
<svg version="1.1" xmlns:xlink="http://www.w3.org/1999/xlink" width="66px" height="47px" xmlns="http://www.w3.org/2000/svg">
  <g transform="matrix(1 0 0 1 -3599 -301 )">
    <path d="M 3599 301  L 3665 301  L 3665 348  L 3599 348  L 3599 301  " fill-rule="nonzero" fill="#cccccc" stroke="none" />
    <path d="M 3602 304  L 3662 304  L 3662 345  L 3602 345  L 3602 304  " fill-rule="nonzero" fill="#ffffff" stroke="none" />
    <path d="M 3636.845 315.1  C 3634.871 315.1  3633.32 313.549  3633.32 311.575  C 3633.32 309.601  3634.871 308.05  3636.845 308.05  C 3638.819 308.05  3640.37 309.601  3640.37 311.575  C 3640.37 313.549  3638.819 315.1  3636.845 315.1  " fill-rule="nonzero" fill="#cccccc" stroke="none" />
    <path d="M 3603 344  L 3603 322.55  L 3617.5 312.8  L 3637.8 327.336363636364  L 3649.4 318.65  L 3661 327.336363636364  L 3661 344  L 3603 344  " fill-rule="nonzero" fill="#169bd5" stroke="none" />
  </g>
</svg>