<?xml version="1.0" encoding="utf-8"?>
<svg version="1.1" xmlns:xlink="http://www.w3.org/1999/xlink" width="15px" height="15px" xmlns="http://www.w3.org/2000/svg">
  <g transform="matrix(1 0 0 1 -299 -994 )">
    <path d="M 306.5 994  C 310.7 994  314 997.3  314 1001.5  C 314 1005.7  310.7 1009  306.5 1009  C 302.3 1009  299 1005.7  299 1001.5  C 299 997.3  302.3 994  306.5 994  Z " fill-rule="nonzero" fill="#ffaa13" stroke="none" />
    <path d="M 306.5 994.5  C 310.42 994.5  313.5 997.58  313.5 1001.5  C 313.5 1005.42  310.42 1008.5  306.5 1008.5  C 302.58 1008.5  299.5 1005.42  299.5 1001.5  C 299.5 997.58  302.58 994.5  306.5 994.5  Z " stroke-width="1" stroke="#797979" fill="none" />
  </g>
</svg>