<?xml version="1.0" encoding="utf-8"?>
<svg version="1.1" xmlns:xlink="http://www.w3.org/1999/xlink" width="15px" height="15px" xmlns="http://www.w3.org/2000/svg">
  <g transform="matrix(1 0 0 1 -1972 -1197 )">
    <path d="M 1979.5 1197  C 1983.7 1197  1987 1200.3  1987 1204.5  C 1987 1208.7  1983.7 1212  1979.5 1212  C 1975.3 1212  1972 1208.7  1972 1204.5  C 1972 1200.3  1975.3 1197  1979.5 1197  Z " fill-rule="nonzero" fill="#ffff00" stroke="none" />
    <path d="M 1979.5 1197.5  C 1983.42 1197.5  1986.5 1200.58  1986.5 1204.5  C 1986.5 1208.42  1983.42 1211.5  1979.5 1211.5  C 1975.58 1211.5  1972.5 1208.42  1972.5 1204.5  C 1972.5 1200.58  1975.58 1197.5  1979.5 1197.5  Z " stroke-width="1" stroke="#797979" fill="none" />
  </g>
</svg>