<?xml version="1.0" encoding="utf-8"?>
<svg version="1.1" xmlns:xlink="http://www.w3.org/1999/xlink" width="15px" height="15px" xmlns="http://www.w3.org/2000/svg">
  <g transform="matrix(1 0 0 1 -1972 -1243 )">
    <path d="M 1979.5 1243  C 1983.7 1243  1987 1246.3  1987 1250.5  C 1987 1254.7  1983.7 1258  1979.5 1258  C 1975.3 1258  1972 1254.7  1972 1250.5  C 1972 1246.3  1975.3 1243  1979.5 1243  Z " fill-rule="nonzero" fill="#cccccc" stroke="none" />
    <path d="M 1979.5 1243.5  C 1983.42 1243.5  1986.5 1246.58  1986.5 1250.5  C 1986.5 1254.42  1983.42 1257.5  1979.5 1257.5  C 1975.58 1257.5  1972.5 1254.42  1972.5 1250.5  C 1972.5 1246.58  1975.58 1243.5  1979.5 1243.5  Z " stroke-width="1" stroke="#797979" fill="none" />
  </g>
</svg>