<?xml version="1.0" encoding="utf-8"?>
<svg version="1.1" xmlns:xlink="http://www.w3.org/1999/xlink" width="21px" height="15px" xmlns="http://www.w3.org/2000/svg">
  <g transform="matrix(1 0 0 1 -5482 -7039 )">
    <path d="M 5492.5 7039  C 5498.38 7039  5503 7042.3  5503 7046.5  C 5503 7050.7  5498.38 7054  5492.5 7054  C 5486.62 7054  5482 7050.7  5482 7046.5  C 5482 7042.3  5486.62 7039  5492.5 7039  Z " fill-rule="nonzero" fill="#ffaa13" stroke="none" />
    <path d="M 5492.5 7039.5  C 5498.1 7039.5  5502.5 7042.58  5502.5 7046.5  C 5502.5 7050.42  5498.1 7053.5  5492.5 7053.5  C 5486.9 7053.5  5482.5 7050.42  5482.5 7046.5  C 5482.5 7042.58  5486.9 7039.5  5492.5 7039.5  Z " stroke-width="1" stroke="#797979" fill="none" />
  </g>
</svg>