<?xml version="1.0" encoding="utf-8"?>
<svg version="1.1" xmlns:xlink="http://www.w3.org/1999/xlink" width="40px" height="40px" xmlns="http://www.w3.org/2000/svg">
  <defs>
    <filter x="118px" y="651px" width="40px" height="40px" filterUnits="userSpaceOnUse" id="filter1">
      <feOffset dx="1" dy="1" in="SourceAlpha" result="shadowOffsetInner" />
      <feGaussianBlur stdDeviation="2.5" in="shadowOffsetInner" result="shadowGaussian" />
      <feComposite in2="shadowGaussian" operator="atop" in="SourceAlpha" result="shadowComposite" />
      <feColorMatrix type="matrix" values="0 0 0 0 0  0 0 0 0 0  0 0 0 0 0  0 0 0 0.698039215686274 0  " in="shadowComposite" />
    </filter>
    <g id="widget2">
      <path d="M 137 655  C 145.4 655  152 661.6  152 670  C 152 678.4  145.4 685  137 685  C 128.6 685  122 678.4  122 670  C 122 661.6  128.6 655  137 655  Z " fill-rule="nonzero" fill="#a30014" stroke="none" />
      <path d="M 137 655.5  C 145.12 655.5  151.5 661.88  151.5 670  C 151.5 678.12  145.12 684.5  137 684.5  C 128.88 684.5  122.5 678.12  122.5 670  C 122.5 661.88  128.88 655.5  137 655.5  Z " stroke-width="1" stroke="#ffffff" fill="none" />
    </g>
  </defs>
  <g transform="matrix(1 0 0 1 -118 -651 )">
    <use xlink:href="#widget2" filter="url(#filter1)" />
    <use xlink:href="#widget2" />
  </g>
</svg>