<?xml version="1.0" encoding="utf-8"?>
<svg version="1.1" xmlns:xlink="http://www.w3.org/1999/xlink" width="12px" height="12px" viewBox="366 356.5  12 12" xmlns="http://www.w3.org/2000/svg">
  <path d="M 372 356.5  C 375.36 356.5  378 359.14  378 362.5  C 378 365.86  375.36 368.5  372 368.5  C 368.64 368.5  366 365.86  366 362.5  C 366 359.14  368.64 356.5  372 356.5  Z " fill-rule="nonzero" fill="#ffffff" stroke="none" />
  <path d="M 372 357  C 375.08 357  377.5 359.42  377.5 362.5  C 377.5 365.58  375.08 368  372 368  C 368.92 368  366.5 365.58  366.5 362.5  C 366.5 359.42  368.92 357  372 357  Z " stroke-width="1" stroke="#797979" fill="none" />
  <path d="M 372 365.5  C 370.32 365.5  369 364.18  369 362.5  C 369 360.82  370.32 359.5  372 359.5  C 373.68 359.5  375 360.82  375 362.5  C 375 364.18  373.68 365.5  372 365.5  " fill-rule="nonzero" fill="#797979" stroke="none" />
</svg>