<?xml version="1.0" encoding="utf-8"?>
<svg version="1.1" xmlns:xlink="http://www.w3.org/1999/xlink" width="12px" height="12px" viewBox="670 312.5  12 12" xmlns="http://www.w3.org/2000/svg">
  <path d="M 676 312.5  C 679.36 312.5  682 315.14  682 318.5  C 682 321.86  679.36 324.5  676 324.5  C 672.64 324.5  670 321.86  670 318.5  C 670 315.14  672.64 312.5  676 312.5  Z " fill-rule="nonzero" fill="#ffffff" stroke="none" />
  <path d="M 676 313  C 679.08 313  681.5 315.42  681.5 318.5  C 681.5 321.58  679.08 324  676 324  C 672.92 324  670.5 321.58  670.5 318.5  C 670.5 315.42  672.92 313  676 313  Z " stroke-width="1" stroke="#797979" fill="none" />
  <path d="M 676 321.5  C 674.32 321.5  673 320.18  673 318.5  C 673 316.82  674.32 315.5  676 315.5  C 677.68 315.5  679 316.82  679 318.5  C 679 320.18  677.68 321.5  676 321.5  " fill-rule="nonzero" fill="#797979" stroke="none" />
</svg>