<?xml version="1.0" encoding="utf-8"?>
<svg version="1.1" xmlns:xlink="http://www.w3.org/1999/xlink" width="12px" height="12px" viewBox="795 312.5  12 12" xmlns="http://www.w3.org/2000/svg">
  <path d="M 801 312.5  C 804.36 312.5  807 315.14  807 318.5  C 807 321.86  804.36 324.5  801 324.5  C 797.64 324.5  795 321.86  795 318.5  C 795 315.14  797.64 312.5  801 312.5  Z " fill-rule="nonzero" fill="#ffffff" stroke="none" />
  <path d="M 801 313  C 804.08 313  806.5 315.42  806.5 318.5  C 806.5 321.58  804.08 324  801 324  C 797.92 324  795.5 321.58  795.5 318.5  C 795.5 315.42  797.92 313  801 313  Z " stroke-width="1" stroke="#797979" fill="none" />
  <path d="M 801 321.5  C 799.32 321.5  798 320.18  798 318.5  C 798 316.82  799.32 315.5  801 315.5  C 802.68 315.5  804 316.82  804 318.5  C 804 320.18  802.68 321.5  801 321.5  " fill-rule="nonzero" fill="#797979" stroke="none" />
</svg>