<?xml version="1.0" encoding="utf-8"?>
<svg version="1.1" xmlns:xlink="http://www.w3.org/1999/xlink" width="40px" height="40px" xmlns="http://www.w3.org/2000/svg">
  <defs>
    <filter x="909px" y="254px" width="40px" height="40px" filterUnits="userSpaceOnUse" id="filter5">
      <feOffset dx="1" dy="1" in="SourceAlpha" result="shadowOffsetInner" />
      <feGaussianBlur stdDeviation="2.5" in="shadowOffsetInner" result="shadowGaussian" />
      <feComposite in2="shadowGaussian" operator="atop" in="SourceAlpha" result="shadowComposite" />
      <feColorMatrix type="matrix" values="0 0 0 0 0  0 0 0 0 0  0 0 0 0 0  0 0 0 0.698039215686274 0  " in="shadowComposite" />
    </filter>
    <g id="widget6">
      <path d="M 928 258  C 936.4 258  943 264.6  943 273  C 943 281.4  936.4 288  928 288  C 919.6 288  913 281.4  913 273  C 913 264.6  919.6 258  928 258  Z " fill-rule="nonzero" fill="#aaaaaa" stroke="none" />
      <path d="M 928 258.5  C 936.12 258.5  942.5 264.88  942.5 273  C 942.5 281.12  936.12 287.5  928 287.5  C 919.88 287.5  913.5 281.12  913.5 273  C 913.5 264.88  919.88 258.5  928 258.5  Z " stroke-width="1" stroke="#ffffff" fill="none" />
    </g>
  </defs>
  <g transform="matrix(1 0 0 1 -909 -254 )">
    <use xlink:href="#widget6" filter="url(#filter5)" />
    <use xlink:href="#widget6" />
  </g>
</svg>