<?xml version="1.0" encoding="utf-8"?>
<svg version="1.1" xmlns:xlink="http://www.w3.org/1999/xlink" width="40px" height="40px" xmlns="http://www.w3.org/2000/svg">
  <g transform="matrix(1 0 0 1 -469 -195 )">
    <path d="M 489 195  C 500.2 195  509 203.8  509 215  C 509 226.2  500.2 235  489 235  C 477.8 235  469 226.2  469 215  C 469 203.8  477.8 195  489 195  Z " fill-rule="nonzero" fill="#ffffff" stroke="none" />
    <path d="M 489 195.5  C 499.92 195.5  508.5 204.08  508.5 215  C 508.5 225.92  499.92 234.5  489 234.5  C 478.08 234.5  469.5 225.92  469.5 215  C 469.5 204.08  478.08 195.5  489 195.5  Z " stroke-width="1" stroke="#797979" fill="none" />
  </g>
</svg>