<?xml version="1.0" encoding="utf-8"?>
<svg version="1.1" xmlns:xlink="http://www.w3.org/1999/xlink" width="202px" height="18px" preserveAspectRatio="xMinYMid meet" viewBox="3183 5646  202 16" xmlns="http://www.w3.org/2000/svg">
  <defs>
    <mask fill="white" id="clip170">
      <path d="M 2190 5770  L 2310 5770  L 2310 5873  L 2190 5873  Z M 1449 5269  L 3403 5269  L 3403 5873  L 1449 5873  Z " fill-rule="evenodd" />
    </mask>
  </defs>
  <path d="M 1449 5274  L 1454 5274  A 5 5 0 0 1 1459 5279 L 1459 5814  A 5 5 0 0 0 1464 5819 L 2245 5819  A 5 5 0 0 1 2250 5824 L 2250 5839.44444444444  A 5 5 0 0 0 2255 5844.44444444444 L 3187 5844.44444444444  A 5 5 0 0 0 3192 5839.44444444444 L 3192 5659  A 5 5 0 0 1 3197 5654 L 3371 5654  " stroke-width="10" stroke="#0099cc" fill="none" mask="url(#clip170)" />
  <path d="M 3366 5672  L 3385 5654  L 3366 5636  L 3366 5672  Z " fill-rule="nonzero" fill="#0099cc" stroke="none" mask="url(#clip170)" />
</svg>