<?xml version="1.0" encoding="utf-8"?>
<svg version="1.1" xmlns:xlink="http://www.w3.org/1999/xlink" width="40px" height="40px" xmlns="http://www.w3.org/2000/svg">
  <defs>
    <filter x="593px" y="539px" width="40px" height="40px" filterUnits="userSpaceOnUse" id="filter583">
      <feOffset dx="1" dy="1" in="SourceAlpha" result="shadowOffsetInner" />
      <feGaussianBlur stdDeviation="2.5" in="shadowOffsetInner" result="shadowGaussian" />
      <feComposite in2="shadowGaussian" operator="atop" in="SourceAlpha" result="shadowComposite" />
      <feColorMatrix type="matrix" values="0 0 0 0 0  0 0 0 0 0  0 0 0 0 0  0 0 0 0.698039215686274 0  " in="shadowComposite" />
    </filter>
    <g id="widget584">
      <path d="M 612 543  C 620.4 543  627 549.6  627 558  C 627 566.4  620.4 573  612 573  C 603.6 573  597 566.4  597 558  C 597 549.6  603.6 543  612 543  Z " fill-rule="nonzero" fill="#aaaaaa" stroke="none" />
      <path d="M 612 543.5  C 620.12 543.5  626.5 549.88  626.5 558  C 626.5 566.12  620.12 572.5  612 572.5  C 603.88 572.5  597.5 566.12  597.5 558  C 597.5 549.88  603.88 543.5  612 543.5  Z " stroke-width="1" stroke="#ffffff" fill="none" />
    </g>
  </defs>
  <g transform="matrix(1 0 0 1 -593 -539 )">
    <use xlink:href="#widget584" filter="url(#filter583)" />
    <use xlink:href="#widget584" />
  </g>
</svg>