<?xml version="1.0" encoding="utf-8"?>
<svg version="1.1" xmlns:xlink="http://www.w3.org/1999/xlink" width="47px" height="47px" xmlns="http://www.w3.org/2000/svg">
  <g transform="matrix(1 0 0 1 -680 -307 )">
    <path d="M 703.5 307  C 716.66 307  727 317.34  727 330.5  C 727 343.66  716.66 354  703.5 354  C 690.34 354  680 343.66  680 330.5  C 680 317.34  690.34 307  703.5 307  Z " fill-rule="nonzero" fill="#d9001b" stroke="none" />
    <path d="M 703.5 307.5  C 716.38 307.5  726.5 317.62  726.5 330.5  C 726.5 343.38  716.38 353.5  703.5 353.5  C 690.62 353.5  680.5 343.38  680.5 330.5  C 680.5 317.62  690.62 307.5  703.5 307.5  Z " stroke-width="1" stroke="#797979" fill="none" />
  </g>
</svg>