<?xml version="1.0" encoding="utf-8"?>
<svg version="1.1" xmlns:xlink="http://www.w3.org/1999/xlink" width="16px" height="16px" xmlns="http://www.w3.org/2000/svg">
  <g transform="matrix(1 0 0 1 -529 -285 )">
    <path d="M 537 285  C 541.48 285  545 288.52  545 293  C 545 297.48  541.48 301  537 301  C 532.52 301  529 297.48  529 293  C 529 288.52  532.52 285  537 285  Z " fill-rule="nonzero" fill="#ffffff" stroke="none" fill-opacity="0" />
    <path d="M 537 285.5  C 541.2 285.5  544.5 288.8  544.5 293  C 544.5 297.2  541.2 300.5  537 300.5  C 532.8 300.5  529.5 297.2  529.5 293  C 529.5 288.8  532.8 285.5  537 285.5  Z " stroke-width="1" stroke="#000000" fill="none" />
  </g>
</svg>