<?xml version="1.0" encoding="utf-8"?>
<svg version="1.1" xmlns:xlink="http://www.w3.org/1999/xlink" width="40px" height="40px" xmlns="http://www.w3.org/2000/svg">
  <defs>
    <filter x="574px" y="539px" width="40px" height="40px" filterUnits="userSpaceOnUse" id="filter24">
      <feOffset dx="1" dy="1" in="SourceAlpha" result="shadowOffsetInner" />
      <feGaussianBlur stdDeviation="2.5" in="shadowOffsetInner" result="shadowGaussian" />
      <feComposite in2="shadowGaussian" operator="atop" in="SourceAlpha" result="shadowComposite" />
      <feColorMatrix type="matrix" values="0 0 0 0 0  0 0 0 0 0  0 0 0 0 0  0 0 0 0.698039215686274 0  " in="shadowComposite" />
    </filter>
    <g id="widget25">
      <path d="M 593 543  C 601.4 543  608 549.6  608 558  C 608 566.4  601.4 573  593 573  C 584.6 573  578 566.4  578 558  C 578 549.6  584.6 543  593 543  Z " fill-rule="nonzero" fill="#aaaaaa" stroke="none" />
      <path d="M 593 543.5  C 601.12 543.5  607.5 549.88  607.5 558  C 607.5 566.12  601.12 572.5  593 572.5  C 584.88 572.5  578.5 566.12  578.5 558  C 578.5 549.88  584.88 543.5  593 543.5  Z " stroke-width="1" stroke="#ffffff" fill="none" />
    </g>
  </defs>
  <g transform="matrix(1 0 0 1 -574 -539 )">
    <use xlink:href="#widget25" filter="url(#filter24)" />
    <use xlink:href="#widget25" />
  </g>
</svg>