<?xml version="1.0" encoding="utf-8"?>
<svg version="1.1" xmlns:xlink="http://www.w3.org/1999/xlink" width="27px" height="33px" xmlns="http://www.w3.org/2000/svg">
  <defs>
    <filter x="464px" y="264px" width="27px" height="33px" filterUnits="userSpaceOnUse" id="filter25">
      <feOffset dx="1" dy="1" in="SourceAlpha" result="shadowOffsetInner" />
      <feGaussianBlur stdDeviation="2.5" in="shadowOffsetInner" result="shadowGaussian" />
      <feComposite in2="shadowGaussian" operator="atop" in="SourceAlpha" result="shadowComposite" />
      <feColorMatrix type="matrix" values="0 0 0 0 0  0 0 0 0 0  0 0 0 0 0  0 0 0 0.698039215686274 0  " in="shadowComposite" />
    </filter>
    <g id="widget26">
      <path d="M 476.5 290.02735899765  C 473.3 284.651451690861  468.5 281.425907306788  468.5 276.05  C 468.5 273.245714285714  470.1 268.5  476.5 268.5  C 482.9 268.5  484.5 273.245714285714  484.5 276.05  C 484.5 281.425907306788  479.7 284.651451690861  476.5 290.02735899765  Z " fill-rule="nonzero" fill="#009dd9" stroke="none" />
      <path d="M 476.5 291  C 473.1 285.25  468 281.8  468 276.05  C 468 273.06  469.7 268  476.5 268  C 483.3 268  485 273.06  485 276.05  C 485 281.8  479.9 285.25  476.5 291  Z M 476.5 289.054717995299  C 479.5 284.052903381723  484 281.051814613577  484 276.05  C 484 273.431428571429  482.5 269  476.5 269  C 470.5 269  469 273.431428571429  469 276.05  C 469 281.051814613577  473.5 284.052903381723  476.5 289.054717995299  Z " fill-rule="nonzero" fill="#ffffff" stroke="none" />
    </g>
  </defs>
  <g transform="matrix(1 0 0 1 -464 -264 )">
    <use xlink:href="#widget26" filter="url(#filter25)" />
    <use xlink:href="#widget26" />
  </g>
</svg>