<?xml version="1.0" encoding="utf-8"?>
<svg version="1.1" xmlns:xlink="http://www.w3.org/1999/xlink" width="40px" height="40px" xmlns="http://www.w3.org/2000/svg">
  <defs>
    <filter x="1361px" y="383px" width="40px" height="40px" filterUnits="userSpaceOnUse" id="filter1">
      <feOffset dx="1" dy="1" in="SourceAlpha" result="shadowOffsetInner" />
      <feGaussianBlur stdDeviation="2.5" in="shadowOffsetInner" result="shadowGaussian" />
      <feComposite in2="shadowGaussian" operator="atop" in="SourceAlpha" result="shadowComposite" />
      <feColorMatrix type="matrix" values="0 0 0 0 0  0 0 0 0 0  0 0 0 0 0  0 0 0 0.698039215686274 0  " in="shadowComposite" />
    </filter>
    <g id="widget2">
      <path d="M 1380 387  C 1388.4 387  1395 393.6  1395 402  C 1395 410.4  1388.4 417  1380 417  C 1371.6 417  1365 410.4  1365 402  C 1365 393.6  1371.6 387  1380 387  Z " fill-rule="nonzero" fill="#a30014" stroke="none" />
      <path d="M 1380 387.5  C 1388.12 387.5  1394.5 393.88  1394.5 402  C 1394.5 410.12  1388.12 416.5  1380 416.5  C 1371.88 416.5  1365.5 410.12  1365.5 402  C 1365.5 393.88  1371.88 387.5  1380 387.5  Z " stroke-width="1" stroke="#ffffff" fill="none" />
    </g>
  </defs>
  <g transform="matrix(1 0 0 1 -1361 -383 )">
    <use xlink:href="#widget2" filter="url(#filter1)" />
    <use xlink:href="#widget2" />
  </g>
</svg>