<?xml version="1.0" encoding="utf-8"?>
<svg version="1.1" xmlns:xlink="http://www.w3.org/1999/xlink" width="40px" height="40px" xmlns="http://www.w3.org/2000/svg">
  <defs>
    <filter x="1358px" y="383px" width="40px" height="40px" filterUnits="userSpaceOnUse" id="filter547">
      <feOffset dx="1" dy="1" in="SourceAlpha" result="shadowOffsetInner" />
      <feGaussianBlur stdDeviation="2.5" in="shadowOffsetInner" result="shadowGaussian" />
      <feComposite in2="shadowGaussian" operator="atop" in="SourceAlpha" result="shadowComposite" />
      <feColorMatrix type="matrix" values="0 0 0 0 0  0 0 0 0 0  0 0 0 0 0  0 0 0 0.698039215686274 0  " in="shadowComposite" />
    </filter>
    <g id="widget548">
      <path d="M 1377 387  C 1385.4 387  1392 393.6  1392 402  C 1392 410.4  1385.4 417  1377 417  C 1368.6 417  1362 410.4  1362 402  C 1362 393.6  1368.6 387  1377 387  Z " fill-rule="nonzero" fill="#a30014" stroke="none" />
      <path d="M 1377 387.5  C 1385.12 387.5  1391.5 393.88  1391.5 402  C 1391.5 410.12  1385.12 416.5  1377 416.5  C 1368.88 416.5  1362.5 410.12  1362.5 402  C 1362.5 393.88  1368.88 387.5  1377 387.5  Z " stroke-width="1" stroke="#ffffff" fill="none" />
    </g>
  </defs>
  <g transform="matrix(1 0 0 1 -1358 -383 )">
    <use xlink:href="#widget548" filter="url(#filter547)" />
    <use xlink:href="#widget548" />
  </g>
</svg>