<?xml version="1.0" encoding="utf-8"?>
<svg version="1.1" xmlns:xlink="http://www.w3.org/1999/xlink" width="266px" height="27px" xmlns="http://www.w3.org/2000/svg">
  <defs>
    <mask fill="white" id="clip211">
      <path d="M 0 22  L 0 5  C 0 2.19999999999999  2.43833333333334 0  5.54166666666667 0  L 239.227272727273 0  L 244.984848484848 0  L 260.458333333333 0  C 263.561666666667 0  266 2.19999999999999  266 5  L 266 22  C 266 24.8  263.561666666667 27  260.458333333333 27  L 5.54166666666667 27  C 2.43833333333334 27  0 24.8  0 22  Z " fill-rule="evenodd" />
    </mask>
  </defs>
  <g transform="matrix(1 0 0 1 -140 -248 )">
    <path d="M 0 22  L 0 5  C 0 2.19999999999999  2.43833333333334 0  5.54166666666667 0  L 239.227272727273 0  L 244.984848484848 0  L 260.458333333333 0  C 263.561666666667 0  266 2.19999999999999  266 5  L 266 22  C 266 24.8  263.561666666667 27  260.458333333333 27  L 5.54166666666667 27  C 2.43833333333334 27  0 24.8  0 22  Z " fill-rule="nonzero" fill="#ffffff" stroke="none" transform="matrix(1 0 0 1 140 248 )" />
    <path d="M 0 22  L 0 5  C 0 2.19999999999999  2.43833333333334 0  5.54166666666667 0  L 239.227272727273 0  L 244.984848484848 0  L 260.458333333333 0  C 263.561666666667 0  266 2.19999999999999  266 5  L 266 22  C 266 24.8  263.561666666667 27  260.458333333333 27  L 5.54166666666667 27  C 2.43833333333334 27  0 24.8  0 22  Z " stroke-width="2" stroke="#999999" fill="none" transform="matrix(1 0 0 1 140 248 )" mask="url(#clip211)" />
  </g>
</svg>