<?xml version="1.0" encoding="utf-8"?>
<svg version="1.1" xmlns:xlink="http://www.w3.org/1999/xlink" width="15px" height="15px" xmlns="http://www.w3.org/2000/svg">
  <g transform="matrix(1 0 0 1 -460 -178 )">
    <path d="M 467.5 178  C 471.7 178  475 181.3  475 185.5  C 475 189.7  471.7 193  467.5 193  C 463.3 193  460 189.7  460 185.5  C 460 181.3  463.3 178  467.5 178  Z " fill-rule="nonzero" fill="#ffffff" stroke="none" />
    <path d="M 467.5 178.5  C 471.42 178.5  474.5 181.58  474.5 185.5  C 474.5 189.42  471.42 192.5  467.5 192.5  C 463.58 192.5  460.5 189.42  460.5 185.5  C 460.5 181.58  463.58 178.5  467.5 178.5  Z " stroke-width="1" stroke="#797979" fill="none" />
  </g>
</svg>