<?xml version="1.0" encoding="utf-8"?>
<svg version="1.1" xmlns:xlink="http://www.w3.org/1999/xlink" width="15px" height="15px" xmlns="http://www.w3.org/2000/svg">
  <g transform="matrix(1 0 0 1 -1499 -2280 )">
    <path d="M 1506.5 2280  C 1510.7 2280  1514 2283.3  1514 2287.5  C 1514 2291.7  1510.7 2295  1506.5 2295  C 1502.3 2295  1499 2291.7  1499 2287.5  C 1499 2283.3  1502.3 2280  1506.5 2280  Z " fill-rule="nonzero" fill="#ffff00" stroke="none" />
    <path d="M 1506.5 2280.5  C 1510.42 2280.5  1513.5 2283.58  1513.5 2287.5  C 1513.5 2291.42  1510.42 2294.5  1506.5 2294.5  C 1502.58 2294.5  1499.5 2291.42  1499.5 2287.5  C 1499.5 2283.58  1502.58 2280.5  1506.5 2280.5  Z " stroke-width="1" stroke="#797979" fill="none" />
  </g>
</svg>