<?xml version="1.0" encoding="utf-8"?>
<svg version="1.1" xmlns:xlink="http://www.w3.org/1999/xlink" width="15px" height="15px" xmlns="http://www.w3.org/2000/svg">
  <g transform="matrix(1 0 0 1 -1499 -2326 )">
    <path d="M 1506.5 2326  C 1510.7 2326  1514 2329.3  1514 2333.5  C 1514 2337.7  1510.7 2341  1506.5 2341  C 1502.3 2341  1499 2337.7  1499 2333.5  C 1499 2329.3  1502.3 2326  1506.5 2326  Z " fill-rule="nonzero" fill="#cccccc" stroke="none" />
    <path d="M 1506.5 2326.5  C 1510.42 2326.5  1513.5 2329.58  1513.5 2333.5  C 1513.5 2337.42  1510.42 2340.5  1506.5 2340.5  C 1502.58 2340.5  1499.5 2337.42  1499.5 2333.5  C 1499.5 2329.58  1502.58 2326.5  1506.5 2326.5  Z " stroke-width="1" stroke="#797979" fill="none" />
  </g>
</svg>