<?xml version="1.0" encoding="utf-8"?>
<svg version="1.1" xmlns:xlink="http://www.w3.org/1999/xlink" width="12px" height="12px" viewBox="156 367  12 12" xmlns="http://www.w3.org/2000/svg">
  <path d="M 162 367  C 165.36 367  168 369.64  168 373  C 168 376.36  165.36 379  162 379  C 158.64 379  156 376.36  156 373  C 156 369.64  158.64 367  162 367  Z " fill-rule="nonzero" fill="#ffffff" stroke="none" />
  <path d="M 162 367.5  C 165.08 367.5  167.5 369.92  167.5 373  C 167.5 376.08  165.08 378.5  162 378.5  C 158.92 378.5  156.5 376.08  156.5 373  C 156.5 369.92  158.92 367.5  162 367.5  Z " stroke-width="1" stroke="#797979" fill="none" />
  <path d="M 162 376  C 160.32 376  159 374.68  159 373  C 159 371.32  160.32 370  162 370  C 163.68 370  165 371.32  165 373  C 165 374.68  163.68 376  162 376  " fill-rule="nonzero" fill="#797979" stroke="none" />
</svg>