<?xml version="1.0" encoding="utf-8"?>
<svg version="1.1" xmlns:xlink="http://www.w3.org/1999/xlink" width="16px" height="16px" xmlns="http://www.w3.org/2000/svg">
  <g transform="matrix(1 0 0 1 -477 -134 )">
    <path d="M 485 134  C 489.48 134  493 137.52  493 142  C 493 146.48  489.48 150  485 150  C 480.52 150  477 146.48  477 142  C 477 137.52  480.52 134  485 134  Z " fill-rule="nonzero" fill="#ffffff" stroke="none" fill-opacity="0" />
    <path d="M 485 134.5  C 489.2 134.5  492.5 137.8  492.5 142  C 492.5 146.2  489.2 149.5  485 149.5  C 480.8 149.5  477.5 146.2  477.5 142  C 477.5 137.8  480.8 134.5  485 134.5  Z " stroke-width="1" stroke="#ffffff" fill="none" />
  </g>
</svg>