<?xml version="1.0" encoding="utf-8"?>
<svg version="1.1" xmlns:xlink="http://www.w3.org/1999/xlink" width="40px" height="40px" xmlns="http://www.w3.org/2000/svg">
  <g transform="matrix(1 0 0 1 -596 -439 )">
    <path d="M 616 439  C 627.2 439  636 447.8  636 459  C 636 470.2  627.2 479  616 479  C 604.8 479  596 470.2  596 459  C 596 447.8  604.8 439  616 439  Z " fill-rule="nonzero" fill="#d9001b" stroke="none" />
    <path d="M 616 439.5  C 626.92 439.5  635.5 448.08  635.5 459  C 635.5 469.92  626.92 478.5  616 478.5  C 605.08 478.5  596.5 469.92  596.5 459  C 596.5 448.08  605.08 439.5  616 439.5  Z " stroke-width="1" stroke="#797979" fill="none" />
  </g>
</svg>