<?xml version="1.0" encoding="utf-8"?>
<svg version="1.1" xmlns:xlink="http://www.w3.org/1999/xlink" width="38px" height="26px" xmlns="http://www.w3.org/2000/svg">
  <g transform="matrix(1 0 0 1 -796 -552 )">
    <path d="M 815 552  C 825.64 552  834 557.72  834 565  C 834 572.28  825.64 578  815 578  C 804.36 578  796 572.28  796 565  C 796 557.72  804.36 552  815 552  Z " fill-rule="nonzero" fill="#ffffff" stroke="none" />
    <path d="M 815 552.5  C 825.36 552.5  833.5 558  833.5 565  C 833.5 572  825.36 577.5  815 577.5  C 804.64 577.5  796.5 572  796.5 565  C 796.5 558  804.64 552.5  815 552.5  Z " stroke-width="1" stroke="#797979" fill="none" />
  </g>
</svg>