<?xml version="1.0" encoding="utf-8"?>
<svg version="1.1" xmlns:xlink="http://www.w3.org/1999/xlink" width="49px" height="43px" xmlns="http://www.w3.org/2000/svg">
  <g transform="matrix(1 0 0 1 -178 -414 )">
    <path d="M 178 414  L 227 414  L 227 457  L 178 457  L 178 414  " fill-rule="nonzero" fill="#cccccc" stroke="none" />
    <path d="M 181 417  L 224 417  L 224 454  L 181 454  L 181 417  " fill-rule="nonzero" fill="#ffffff" stroke="none" />
    <path d="M 206.705 426.9  C 204.899 426.9  203.48 425.481  203.48 423.675  C 203.48 421.869  204.899 420.45  206.705 420.45  C 208.511 420.45  209.93 421.869  209.93 423.675  C 209.93 425.481  208.511 426.9  206.705 426.9  " fill-rule="nonzero" fill="#cccccc" stroke="none" />
    <path d="M 182 453  L 182 433.75  L 192.25 425  L 206.6 434.571428571429  L 214.8 430.25  L 223 434.571428571429  L 223 453  L 182 453  " fill-rule="nonzero" fill="#169bd5" stroke="none" />
  </g>
</svg>