<?xml version="1.0" encoding="utf-8"?>
<svg version="1.1" xmlns:xlink="http://www.w3.org/1999/xlink" width="39px" height="34px" xmlns="http://www.w3.org/2000/svg">
  <g transform="matrix(1 0 0 1 -276 -843 )">
    <path d="M 276 843  L 315 843  L 315 877  L 276 877  L 276 843  " fill-rule="nonzero" fill="#cccccc" stroke="none" />
    <path d="M 278 845  L 313 845  L 313 875  L 278 875  L 278 845  " fill-rule="nonzero" fill="#ffffff" stroke="none" />
    <path d="M 298.83 853.2  C 297.402 853.2  296.28 852.078  296.28 850.65  C 296.28 849.222  297.402 848.1  298.83 848.1  C 300.258 848.1  301.38 849.222  301.38 850.65  C 301.38 852.078  300.258 853.2  298.83 853.2  " fill-rule="nonzero" fill="#cccccc" stroke="none" />
    <path d="M 279 874  L 279 858.6  L 287.25 851.6  L 298.8 859.353846153846  L 305.4 855.8  L 312 859.353846153846  L 312 874  L 279 874  " fill-rule="nonzero" fill="#169bd5" stroke="none" />
  </g>
</svg>