<?xml version="1.0" encoding="utf-8"?>
<svg version="1.1" xmlns:xlink="http://www.w3.org/1999/xlink" width="30px" height="27px" xmlns="http://www.w3.org/2000/svg">
  <g transform="matrix(1 0 0 1 -195 -847 )">
    <path d="M 210 847  C 218.4 847  225 852.94  225 860.5  C 225 868.06  218.4 874  210 874  C 201.6 874  195 868.06  195 860.5  C 195 852.94  201.6 847  210 847  Z " fill-rule="nonzero" fill="#ffffff" stroke="none" />
    <path d="M 210 847.5  C 218.12 847.5  224.5 853.22  224.5 860.5  C 224.5 867.78  218.12 873.5  210 873.5  C 201.88 873.5  195.5 867.78  195.5 860.5  C 195.5 853.22  201.88 847.5  210 847.5  Z " stroke-width="1" stroke="#797979" fill="none" />
  </g>
</svg>