<?xml version="1.0" encoding="utf-8"?>
<svg version="1.1" xmlns:xlink="http://www.w3.org/1999/xlink" width="117px" height="117px" xmlns="http://www.w3.org/2000/svg">
  <defs>
    <filter x="118px" y="1312px" width="117px" height="117px" filterUnits="userSpaceOnUse" id="filter77">
      <feOffset dx="5" dy="5" in="SourceAlpha" result="shadowOffsetInner" />
      <feGaussianBlur stdDeviation="2.5" in="shadowOffsetInner" result="shadowGaussian" />
      <feComposite in2="shadowGaussian" operator="atop" in="SourceAlpha" result="shadowComposite" />
      <feColorMatrix type="matrix" values="0 0 0 0 0  0 0 0 0 0  0 0 0 0 0  0 0 0 0.349019607843137 0  " in="shadowComposite" />
    </filter>
    <g id="widget78">
      <path d="M 171.5 1312  C 201.46 1312  225 1335.54  225 1365.5  C 225 1395.46  201.46 1419  171.5 1419  C 141.54 1419  118 1395.46  118 1365.5  C 118 1335.54  141.54 1312  171.5 1312  Z " fill-rule="nonzero" fill="#ffffff" stroke="none" />
      <path d="M 171.5 1312.5  C 201.18 1312.5  224.5 1335.82  224.5 1365.5  C 224.5 1395.18  201.18 1418.5  171.5 1418.5  C 141.82 1418.5  118.5 1395.18  118.5 1365.5  C 118.5 1335.82  141.82 1312.5  171.5 1312.5  Z " stroke-width="1" stroke="#797979" fill="none" />
    </g>
  </defs>
  <g transform="matrix(1 0 0 1 -118 -1312 )">
    <use xlink:href="#widget78" filter="url(#filter77)" />
    <use xlink:href="#widget78" />
  </g>
</svg>