<?xml version="1.0" encoding="utf-8"?>
<svg version="1.1" xmlns:xlink="http://www.w3.org/1999/xlink" width="41px" height="26px" xmlns="http://www.w3.org/2000/svg">
  <g transform="matrix(1 0 0 1 -276 -304 )">
    <path d="M 276 304  L 317 304  L 317 330  L 276 330  L 276 304  " fill-rule="nonzero" fill="#cccccc" stroke="none" />
    <path d="M 278 306  L 315 306  L 315 328  L 278 328  L 278 306  " fill-rule="nonzero" fill="#ffffff" stroke="none" />
    <path d="M 299.27 311.8  C 298.178 311.8  297.32 310.942  297.32 309.85  C 297.32 308.758  298.178 307.9  299.27 307.9  C 300.362 307.9  301.22 308.758  301.22 309.85  C 301.22 310.942  300.362 311.8  299.27 311.8  " fill-rule="nonzero" fill="#cccccc" stroke="none" />
    <path d="M 279 328  L 279 316.45  L 288 311.2  L 300.6 320.009756097561  L 307.8 314.35  L 315 320.009756097561  L 315 328  L 279 328  " fill-rule="nonzero" fill="#169bd5" stroke="none" />
  </g>
</svg>