<?xml version="1.0" encoding="utf-8"?>
<svg version="1.1" xmlns:xlink="http://www.w3.org/1999/xlink" width="31px" height="21px" xmlns="http://www.w3.org/2000/svg">
  <g transform="matrix(1 0 0 1 -202 -308 )">
    <path d="M 217.5 308  C 226.18 308  233 312.62  233 318.5  C 233 324.38  226.18 329  217.5 329  C 208.82 329  202 324.38  202 318.5  C 202 312.62  208.82 308  217.5 308  Z " fill-rule="nonzero" fill="#ffffff" stroke="none" />
    <path d="M 217.5 308.5  C 225.9 308.5  232.5 312.9  232.5 318.5  C 232.5 324.1  225.9 328.5  217.5 328.5  C 209.1 328.5  202.5 324.1  202.5 318.5  C 202.5 312.9  209.1 308.5  217.5 308.5  Z " stroke-width="1" stroke="#797979" fill="none" />
  </g>
</svg>