<?xml version="1.0" encoding="utf-8"?>
<svg version="1.1" xmlns:xlink="http://www.w3.org/1999/xlink" width="36px" height="32px" xmlns="http://www.w3.org/2000/svg">
  <g transform="matrix(1 0 0 1 -1420 -1262 )">
    <path d="M 1438 1262  C 1448.08 1262  1456 1269.04  1456 1278  C 1456 1286.96  1448.08 1294  1438 1294  C 1427.92 1294  1420 1286.96  1420 1278  C 1420 1269.04  1427.92 1262  1438 1262  Z " fill-rule="nonzero" fill="#ffffff" stroke="none" />
    <path d="M 1438 1262.5  C 1447.8 1262.5  1455.5 1269.32  1455.5 1278  C 1455.5 1286.68  1447.8 1293.5  1438 1293.5  C 1428.2 1293.5  1420.5 1286.68  1420.5 1278  C 1420.5 1269.32  1428.2 1262.5  1438 1262.5  Z " stroke-width="1" stroke="#797979" fill="none" />
  </g>
</svg>