<?xml version="1.0" encoding="utf-8"?>
<svg version="1.1" xmlns:xlink="http://www.w3.org/1999/xlink" width="194.230769230769px" height="10px" preserveAspectRatio="xMinYMid meet" viewBox="1000 1292  194.230769230769 8" xmlns="http://www.w3.org/2000/svg">
  <path d="M 1000 1296  L 1184.23076923077 1296  A 5 5 0 0 0 1189.23076923077 1291 L 1189.23076923077 890  A 5 5 0 0 0 1184.23076923077 885 L 1176.84615384615 885  A 3 3 0 0 0 1173.84615384615 882 A 3 3 0 0 0 1170.84615384615 885 L 1123 885  A 3 3 0 0 0 1120 882 A 3 3 0 0 0 1117 885 L 975 885  A 3 3 0 0 0 972 882 A 3 3 0 0 0 969 885 L 449 885  " stroke-width="2" stroke="#0099cc" fill="none" />
  <path d="M 450 877.4  L 443 885  L 450 892.6  L 450 877.4  Z " fill-rule="nonzero" fill="#0099cc" stroke="none" />
</svg>