<?xml version="1.0" encoding="utf-8"?>
<svg version="1.1" xmlns:xlink="http://www.w3.org/1999/xlink" width="101px" height="101px" xmlns="http://www.w3.org/2000/svg">
  <defs>
    <filter x="634px" y="1390px" width="101px" height="101px" filterUnits="userSpaceOnUse" id="filter80">
      <feOffset dx="5" dy="5" in="SourceAlpha" result="shadowOffsetInner" />
      <feGaussianBlur stdDeviation="2.5" in="shadowOffsetInner" result="shadowGaussian" />
      <feComposite in2="shadowGaussian" operator="atop" in="SourceAlpha" result="shadowComposite" />
      <feColorMatrix type="matrix" values="0 0 0 0 0  0 0 0 0 0  0 0 0 0 0  0 0 0 0.349019607843137 0  " in="shadowComposite" />
    </filter>
    <g id="widget81">
      <path d="M 679.5 1390  C 704.98 1390  725 1410.02  725 1435.5  C 725 1460.98  704.98 1481  679.5 1481  C 654.02 1481  634 1460.98  634 1435.5  C 634 1410.02  654.02 1390  679.5 1390  Z " fill-rule="nonzero" fill="#ffffff" stroke="none" />
      <path d="M 679.5 1390.5  C 704.7 1390.5  724.5 1410.3  724.5 1435.5  C 724.5 1460.7  704.7 1480.5  679.5 1480.5  C 654.3 1480.5  634.5 1460.7  634.5 1435.5  C 634.5 1410.3  654.3 1390.5  679.5 1390.5  Z " stroke-width="1" stroke="#797979" fill="none" />
    </g>
  </defs>
  <g transform="matrix(1 0 0 1 -634 -1390 )">
    <use xlink:href="#widget81" filter="url(#filter80)" />
    <use xlink:href="#widget81" />
  </g>
</svg>