<?xml version="1.0" encoding="utf-8"?>
<svg version="1.1" xmlns:xlink="http://www.w3.org/1999/xlink" width="87px" height="77px" xmlns="http://www.w3.org/2000/svg">
  <defs>
    <filter x="741px" y="1472px" width="87px" height="77px" filterUnits="userSpaceOnUse" id="filter82">
      <feOffset dx="5" dy="5" in="SourceAlpha" result="shadowOffsetInner" />
      <feGaussianBlur stdDeviation="2.5" in="shadowOffsetInner" result="shadowGaussian" />
      <feComposite in2="shadowGaussian" operator="atop" in="SourceAlpha" result="shadowComposite" />
      <feColorMatrix type="matrix" values="0 0 0 0 0  0 0 0 0 0  0 0 0 0 0  0 0 0 0.349019607843137 0  " in="shadowComposite" />
    </filter>
    <g id="widget83">
      <path d="M 779.5 1472  C 801.06 1472  818 1486.74  818 1505.5  C 818 1524.26  801.06 1539  779.5 1539  C 757.94 1539  741 1524.26  741 1505.5  C 741 1486.74  757.94 1472  779.5 1472  Z " fill-rule="nonzero" fill="#ffff00" stroke="none" />
      <path d="M 779.5 1472.5  C 800.78 1472.5  817.5 1487.02  817.5 1505.5  C 817.5 1523.98  800.78 1538.5  779.5 1538.5  C 758.22 1538.5  741.5 1523.98  741.5 1505.5  C 741.5 1487.02  758.22 1472.5  779.5 1472.5  Z " stroke-width="1" stroke="#797979" fill="none" />
    </g>
  </defs>
  <g transform="matrix(1 0 0 1 -741 -1472 )">
    <use xlink:href="#widget83" filter="url(#filter82)" />
    <use xlink:href="#widget83" />
  </g>
</svg>