<?xml version="1.0" encoding="utf-8"?>
<svg version="1.1" xmlns:xlink="http://www.w3.org/1999/xlink" width="10px" height="146px" preserveAspectRatio="xMidYMin meet" viewBox="482 689  8 146" xmlns="http://www.w3.org/2000/svg">
  <path d="M 1533 1163  L 1555 1163  A 5 5 0 0 0 1560 1158 L 1560 835  A 5 5 0 0 0 1555 830 L 1176.84615384615 830  A 3 3 0 0 0 1173.84615384615 827 A 3 3 0 0 0 1170.84615384615 830 L 1123 830  A 3 3 0 0 0 1120 827 A 3 3 0 0 0 1117 830 L 491 830  A 5 5 0 0 1 486 825 L 486 695  " stroke-width="2" stroke="#0099cc" fill="none" />
  <path d="M 493.6 696  L 486 689  L 478.4 696  L 493.6 696  Z " fill-rule="nonzero" fill="#0099cc" stroke="none" />
</svg>