<?xml version="1.0" encoding="utf-8"?>
<svg version="1.1" xmlns:xlink="http://www.w3.org/1999/xlink" width="102px" height="94px" xmlns="http://www.w3.org/2000/svg">
  <g transform="matrix(1 0 0 1 -651 -2108 )">
    <path d="M 651 2108  L 753 2108  L 753 2202  L 651 2202  L 651 2108  " fill-rule="nonzero" fill="#cccccc" stroke="none" />
    <path d="M 658 2115  L 746 2115  L 746 2195  L 658 2195  L 658 2115  " fill-rule="nonzero" fill="#ffffff" stroke="none" />
    <path d="M 711.09 2136.2  C 707.142 2136.2  704.04 2133.098  704.04 2129.15  C 704.04 2125.202  707.142 2122.1  711.09 2122.1  C 715.038 2122.1  718.14 2125.202  718.14 2129.15  C 718.14 2133.098  715.038 2136.2  711.09 2136.2  " fill-rule="nonzero" fill="#cccccc" stroke="none" />
    <path d="M 661 2193  L 661 2151.75  L 681.75 2133  L 710.8 2151.52941176471  L 727.4 2144.25  L 744 2151.52941176471  L 744 2193  L 661 2193  " fill-rule="nonzero" fill="#169bd5" stroke="none" />
  </g>
</svg>