<?xml version="1.0" encoding="utf-8"?>
<svg version="1.1" xmlns:xlink="http://www.w3.org/1999/xlink" width="20px" height="20px" preserveAspectRatio="xMinYMid meet" viewBox="610 1795  20 18" xmlns="http://www.w3.org/2000/svg">
  <path d="M 619 1804  L 455 1804  A 5 5 0 0 0 450 1809 L 450 1843  A 3 3 0 0 1 453 1846 A 3 3 0 0 1 450 1849 L 450 2148  A 5 5 0 0 0 455 2153 L 632 2153  A 1 1 0 0 1 633 2154 " stroke-width="2" stroke="#0099cc" fill="none" />
  <path d="M 618 1811.6  L 625 1804  L 618 1796.4  L 618 1811.6  Z M 625.4 2148  L 633 2155  L 640.6 2148  L 625.4 2148  Z " fill-rule="nonzero" fill="#0099cc" stroke="none" />
</svg>