<?xml version="1.0" encoding="utf-8"?>
<svg version="1.1" xmlns:xlink="http://www.w3.org/1999/xlink" width="46px" height="38px" xmlns="http://www.w3.org/2000/svg">
  <g transform="matrix(1 0 0 1 -1232 -2121 )">
    <path d="M 1232 2121  L 1278 2121  L 1278 2159  L 1232 2159  L 1232 2121  " fill-rule="nonzero" fill="#cccccc" stroke="none" />
    <path d="M 1235 2124  L 1275 2124  L 1275 2156  L 1235 2156  L 1235 2124  " fill-rule="nonzero" fill="#ffffff" stroke="none" />
    <path d="M 1258.77 2132.4  C 1257.174 2132.4  1255.92 2131.146  1255.92 2129.55  C 1255.92 2127.954  1257.174 2126.7  1258.77 2126.7  C 1260.366 2126.7  1261.62 2127.954  1261.62 2129.55  C 1261.62 2131.146  1260.366 2132.4  1258.77 2132.4  " fill-rule="nonzero" fill="#cccccc" stroke="none" />
    <path d="M 1236 2155  L 1236 2138.5  L 1245.5 2131  L 1258.8 2140.13043478261  L 1266.4 2135.5  L 1274 2140.13043478261  L 1274 2155  L 1236 2155  " fill-rule="nonzero" fill="#169bd5" stroke="none" />
  </g>
</svg>