<?xml version="1.0" encoding="utf-8"?>
<svg version="1.1" xmlns:xlink="http://www.w3.org/1999/xlink" width="35px" height="30px" xmlns="http://www.w3.org/2000/svg">
  <g transform="matrix(1 0 0 1 -1137 -2126 )">
    <path d="M 1154.5 2126  C 1164.3 2126  1172 2132.6  1172 2141  C 1172 2149.4  1164.3 2156  1154.5 2156  C 1144.7 2156  1137 2149.4  1137 2141  C 1137 2132.6  1144.7 2126  1154.5 2126  Z " fill-rule="nonzero" fill="#ffffff" stroke="none" />
    <path d="M 1154.5 2126.5  C 1164.02 2126.5  1171.5 2132.88  1171.5 2141  C 1171.5 2149.12  1164.02 2155.5  1154.5 2155.5  C 1144.98 2155.5  1137.5 2149.12  1137.5 2141  C 1137.5 2132.88  1144.98 2126.5  1154.5 2126.5  Z " stroke-width="1" stroke="#797979" fill="none" />
  </g>
</svg>