<?xml version="1.0" encoding="utf-8"?>
<svg version="1.1" xmlns:xlink="http://www.w3.org/1999/xlink" width="79px" height="79px" xmlns="http://www.w3.org/2000/svg">
  <defs>
    <filter x="696px" y="1586px" width="79px" height="79px" filterUnits="userSpaceOnUse" id="filter85">
      <feOffset dx="5" dy="5" in="SourceAlpha" result="shadowOffsetInner" />
      <feGaussianBlur stdDeviation="2.5" in="shadowOffsetInner" result="shadowGaussian" />
      <feComposite in2="shadowGaussian" operator="atop" in="SourceAlpha" result="shadowComposite" />
      <feColorMatrix type="matrix" values="0 0 0 0 0  0 0 0 0 0  0 0 0 0 0  0 0 0 0.349019607843137 0  " in="shadowComposite" />
    </filter>
    <g id="widget86">
      <path d="M 730.5 1586  C 749.82 1586  765 1601.18  765 1620.5  C 765 1639.82  749.82 1655  730.5 1655  C 711.18 1655  696 1639.82  696 1620.5  C 696 1601.18  711.18 1586  730.5 1586  Z " fill-rule="nonzero" fill="#ffffff" stroke="none" />
      <path d="M 730.5 1586.5  C 749.54 1586.5  764.5 1601.46  764.5 1620.5  C 764.5 1639.54  749.54 1654.5  730.5 1654.5  C 711.46 1654.5  696.5 1639.54  696.5 1620.5  C 696.5 1601.46  711.46 1586.5  730.5 1586.5  Z " stroke-width="1" stroke="#797979" fill="none" />
    </g>
  </defs>
  <g transform="matrix(1 0 0 1 -696 -1586 )">
    <use xlink:href="#widget86" filter="url(#filter85)" />
    <use xlink:href="#widget86" />
  </g>
</svg>