<?xml version="1.0" encoding="utf-8"?>
<svg version="1.1" xmlns:xlink="http://www.w3.org/1999/xlink" width="29px" height="29px" xmlns="http://www.w3.org/2000/svg">
  <g transform="matrix(1 0 0 1 -1776 -1560 )">
    <path d="M 1790.5 1560  C 1798.62 1560  1805 1566.38  1805 1574.5  C 1805 1582.62  1798.62 1589  1790.5 1589  C 1782.38 1589  1776 1582.62  1776 1574.5  C 1776 1566.38  1782.38 1560  1790.5 1560  Z " fill-rule="nonzero" fill="#ffffff" stroke="none" />
    <path d="M 1790.5 1560.5  C 1798.34 1560.5  1804.5 1566.66  1804.5 1574.5  C 1804.5 1582.34  1798.34 1588.5  1790.5 1588.5  C 1782.66 1588.5  1776.5 1582.34  1776.5 1574.5  C 1776.5 1566.66  1782.66 1560.5  1790.5 1560.5  Z " stroke-width="1" stroke="#797979" fill="none" />
  </g>
</svg>