<?xml version="1.0" encoding="utf-8"?>
<svg version="1.1" xmlns:xlink="http://www.w3.org/1999/xlink" width="20px" height="20px" preserveAspectRatio="xMinYMid meet" viewBox="1313 1354  20 18" xmlns="http://www.w3.org/2000/svg">
  <path d="M 1317 1130  L 1268.07692307692 1130  A 5 5 0 0 0 1263.07692307692 1135 L 1263.07692307692 1305  A 3 3 0 0 1 1266.07692307692 1308 A 3 3 0 0 1 1263.07692307692 1311 L 1263.07692307692 1361  A 5 5 0 0 0 1268.07692307692 1366 L 1322 1366  A 1 1 0 0 1 1323 1367 " stroke-width="2" stroke="#0099cc" fill="none" />
  <path d="M 1316 1137.6  L 1323 1130  L 1316 1122.4  L 1316 1137.6  Z M 1315.4 1361  L 1323 1368  L 1330.6 1361  L 1315.4 1361  Z " fill-rule="nonzero" fill="#0099cc" stroke="none" />
</svg>