<?xml version="1.0" encoding="utf-8"?>
<svg version="1.1" xmlns:xlink="http://www.w3.org/1999/xlink" width="20px" height="20px" preserveAspectRatio="xMinYMid meet" viewBox="504 687  20 18" xmlns="http://www.w3.org/2000/svg">
  <path d="M 1889 1457  L 1975 1457  A 5 5 0 0 0 1980 1452 L 1980 831  A 5 5 0 0 0 1975 826 L 1176.84615384615 826  A 3 3 0 0 0 1173.84615384615 823 A 3 3 0 0 0 1170.84615384615 826 L 1123 826  A 3 3 0 0 0 1120 823 A 3 3 0 0 0 1117 826 L 519 826  A 5 5 0 0 1 514 821 L 514 697  " stroke-width="2" stroke="#0099cc" fill="none" />
  <path d="M 521.6 698  L 514 691  L 506.4 698  L 521.6 698  Z " fill-rule="nonzero" fill="#0099cc" stroke="none" />
</svg>