<?xml version="1.0" encoding="utf-8"?>
<svg version="1.1" xmlns:xlink="http://www.w3.org/1999/xlink" width="20px" height="20px" preserveAspectRatio="xMinYMid meet" viewBox="435 282  20 18" xmlns="http://www.w3.org/2000/svg">
  <path d="M 1530 1435  L 1583 1435  A 5 5 0 0 0 1588 1430 L 1588 829  A 3 3 0 0 0 1591 826 A 3 3 0 0 0 1588 823 L 1588 296  A 5 5 0 0 0 1583 291 L 1176.84615384615 291  A 3 3 0 0 0 1173.84615384615 288 A 3 3 0 0 0 1170.84615384615 291 L 446 291  " stroke-width="2" stroke="#0099cc" fill="none" />
  <path d="M 447 283.4  L 440 291  L 447 298.6  L 447 283.4  Z " fill-rule="nonzero" fill="#0099cc" stroke="none" />
</svg>