<?xml version="1.0" encoding="utf-8"?>
<svg version="1.1" xmlns:xlink="http://www.w3.org/1999/xlink" width="20px" height="20px" preserveAspectRatio="xMinYMid meet" viewBox="810 196  20 18" xmlns="http://www.w3.org/2000/svg">
  <path d="M 950 1358  L 969 1358  A 3 3 0 0 1 972 1355 A 3 3 0 0 1 975 1358 L 1111.25 1358  A 5 5 0 0 0 1116.25 1353 L 1116.25 1299  A 3 3 0 0 0 1119.25 1296 A 3 3 0 0 0 1116.25 1293 L 1116.25 1273  A 5 5 0 0 1 1121.25 1268 L 1186.23076923077 1268  A 3 3 0 0 1 1189.23076923077 1265 A 3 3 0 0 1 1192.23076923077 1268 L 1260.07692307692 1268  A 3 3 0 0 1 1263.07692307692 1265 A 3 3 0 0 1 1266.07692307692 1268 L 1288.75 1268  A 5 5 0 0 0 1293.75 1263 L 1293.75 1133  A 3 3 0 0 0 1296.75 1130 A 3 3 0 0 0 1293.75 1127 L 1293.75 833  A 5 5 0 0 0 1298.75 828 A 5 5 0 0 0 1293.75 823 L 1293.75 294  A 3 3 0 0 0 1296.75 291 A 3 3 0 0 0 1293.75 288 L 1293.75 254  A 3 3 0 0 0 1296.75 251 A 3 3 0 0 0 1293.75 248 L 1293.75 210  A 5 5 0 0 0 1288.75 205 L 1176.84615384615 205  A 3 3 0 0 0 1173.84615384615 202 A 3 3 0 0 0 1170.84615384615 205 L 821 205  " stroke-width="2" stroke="#0099cc" fill="none" />
  <path d="M 822 197.4  L 815 205  L 822 212.6  L 822 197.4  Z " fill-rule="nonzero" fill="#0099cc" stroke="none" />
</svg>