<?xml version="1.0" encoding="utf-8"?>
<svg version="1.1" xmlns:xlink="http://www.w3.org/1999/xlink" width="10px" height="59.6923076923076px" preserveAspectRatio="xMidYMin meet" viewBox="571.384615384615 1207.30769230769  8 59.6923076923076" xmlns="http://www.w3.org/2000/svg">
  <path d="M 613.192307692308 1211  A 0.653846153846189 0.653846153846189 0 0 1 613.846153846154 1211.65384615385 A 0.653846153846189 0.653846153846189 0 0 1 613.192307692308 1212.30769230769 L 580.384615384615 1212.30769230769  A 5 5 0 0 0 575.384615384615 1217.30769230769 L 575.384615384615 1234  A 3 3 0 0 1 578.384615384615 1237 A 3 3 0 0 1 575.384615384615 1240 L 575.384615384615 1257  A 5 5 0 0 0 580.384615384615 1262 L 732 1262  " stroke-width="2" stroke="#0099cc" fill="none" />
  <path d="M 619 1203.4  L 612 1211  L 619 1218.6  L 619 1203.4  Z M 731 1269.6  L 738 1262  L 731 1254.4  L 731 1269.6  Z " fill-rule="nonzero" fill="#0099cc" stroke="none" />
</svg>