<?xml version="1.0" encoding="utf-8"?>
<svg version="1.1" xmlns:xlink="http://www.w3.org/1999/xlink" width="692.692307692308px" height="10px" preserveAspectRatio="xMinYMid meet" viewBox="907.307692307692 1602  692.692307692308 8" xmlns="http://www.w3.org/2000/svg">
  <path d="M 706 1214  L 715 1214  A 5 5 0 0 1 720 1219 L 720 1259  A 3 3 0 0 1 723 1262 A 3 3 0 0 1 720 1265 L 720 1325  A 5 5 0 0 0 725 1330 L 907.307692307692 1330  A 5 5 0 0 1 912.307692307692 1335 L 912.307692307692 1433  A 3 3 0 0 1 915.307692307692 1436 A 3 3 0 0 1 912.307692307692 1439 L 912.307692307692 1503  A 3 3 0 0 1 915.307692307692 1506 A 3 3 0 0 1 912.307692307692 1509 L 912.307692307692 1575  A 3 3 0 0 1 915.307692307692 1578 A 3 3 0 0 1 912.307692307692 1581 L 912.307692307692 1601  A 5 5 0 0 0 917.307692307692 1606 L 1594 1606  " stroke-width="2" stroke="#0000ff" fill="none" />
  <path d="M 1593 1613.6  L 1600 1606  L 1593 1598.4  L 1593 1613.6  Z " fill-rule="nonzero" fill="#0000ff" stroke="none" />
</svg>