<?xml version="1.0" encoding="utf-8"?>
<svg version="1.1" xmlns:xlink="http://www.w3.org/1999/xlink" width="92px" height="59px" xmlns="http://www.w3.org/2000/svg">
  <g transform="matrix(1 0 0 1 -673 -666 )">
    <path d="M 673 666  L 765 666  L 765 725  L 673 725  L 673 666  " fill-rule="nonzero" fill="#cccccc" stroke="none" />
    <path d="M 677 670  L 761 670  L 761 721  L 677 721  L 677 670  " fill-rule="nonzero" fill="#ffffff" stroke="none" />
    <path d="M 725.265 683.7  C 722.787 683.7  720.84 681.753  720.84 679.275  C 720.84 676.797  722.787 674.85  725.265 674.85  C 727.743 674.85  729.69 676.797  729.69 679.275  C 729.69 681.753  727.743 683.7  725.265 683.7  " fill-rule="nonzero" fill="#cccccc" stroke="none" />
    <path d="M 679 720  L 679 693.6  L 699.25 681.6  L 727.6 701.530434782609  L 743.8 688.8  L 760 701.530434782609  L 760 720  L 679 720  " fill-rule="nonzero" fill="#169bd5" stroke="none" />
  </g>
</svg>