<?xml version="1.0" encoding="utf-8"?>
<svg version="1.1" xmlns:xlink="http://www.w3.org/1999/xlink" width="40px" height="65px" xmlns="http://www.w3.org/2000/svg">
  <defs>
    <filter x="1233px" y="975px" width="40px" height="65px" filterUnits="userSpaceOnUse" id="filter545">
      <feOffset dx="1" dy="1" in="SourceAlpha" result="shadowOffsetInner" />
      <feGaussianBlur stdDeviation="2.5" in="shadowOffsetInner" result="shadowGaussian" />
      <feComposite in2="shadowGaussian" operator="atop" in="SourceAlpha" result="shadowComposite" />
      <feColorMatrix type="matrix" values="0 0 0 0 0  0 0 0 0 0  0 0 0 0 0  0 0 0 0.698039215686274 0  " in="shadowComposite" />
    </filter>
    <g id="widget546">
      <path d="M 1252 1032.7929069654  C 1246.2 1019.50717351717  1237.5 1011.53573344823  1237.5 998.25  C 1237.5 991.285714285714  1240.4 979.5  1252 979.5  C 1263.6 979.5  1266.5 991.285714285714  1266.5 998.25  C 1266.5 1011.53573344823  1257.8 1019.50717351717  1252 1032.7929069654  Z " fill-rule="nonzero" fill="#009dd9" stroke="none" />
      <path d="M 1252 1034  C 1246 1020.25  1237 1012  1237 998.25  C 1237 991.1  1240 979  1252 979  C 1264 979  1267 991.1  1267 998.25  C 1267 1012  1258 1020.25  1252 1034  Z M 1252 1031.58581393081  C 1257.6 1018.76434703434  1266 1011.07146689646  1266 998.25  C 1266 991.471428571429  1263.2 980  1252 980  C 1240.8 980  1238 991.471428571429  1238 998.25  C 1238 1011.07146689646  1246.4 1018.76434703434  1252 1031.58581393081  Z " fill-rule="nonzero" fill="#ffffff" stroke="none" />
    </g>
  </defs>
  <g transform="matrix(1 0 0 1 -1233 -975 )">
    <use xlink:href="#widget546" filter="url(#filter545)" />
    <use xlink:href="#widget546" />
  </g>
</svg>