<?xml version="1.0" encoding="utf-8"?>
<svg version="1.1" xmlns:xlink="http://www.w3.org/1999/xlink" width="24px" height="24px" xmlns="http://www.w3.org/2000/svg">
  <g transform="matrix(1 0 0 1 -499 -449 )">
    <path d="M 511 449  C 517.72 449  523 454.28  523 461  C 523 467.72  517.72 473  511 473  C 504.28 473  499 467.72  499 461  C 499 454.28  504.28 449  511 449  Z " fill-rule="nonzero" fill="#d9001b" stroke="none" />
    <path d="M 511 449.5  C 517.44 449.5  522.5 454.56  522.5 461  C 522.5 467.44  517.44 472.5  511 472.5  C 504.56 472.5  499.5 467.44  499.5 461  C 499.5 454.56  504.56 449.5  511 449.5  Z " stroke-width="1" stroke="#797979" fill="none" />
  </g>
</svg>