<?xml version="1.0" encoding="utf-8"?>
<svg version="1.1" xmlns:xlink="http://www.w3.org/1999/xlink" width="87px" height="74px" xmlns="http://www.w3.org/2000/svg">
  <g transform="matrix(1 0 0 1 -1645 -498 )">
    <path d="M 1645 498  L 1732 498  L 1732 572  L 1645 572  L 1645 498  " fill-rule="nonzero" fill="#cccccc" stroke="none" />
    <path d="M 1650 503  L 1727 503  L 1727 567  L 1650 567  L 1650 503  " fill-rule="nonzero" fill="#ffffff" stroke="none" />
    <path d="M 1695.79 520.2  C 1692.682 520.2  1690.24 517.758  1690.24 514.65  C 1690.24 511.542  1692.682 509.1  1695.79 509.1  C 1698.898 509.1  1701.34 511.542  1701.34 514.65  C 1701.34 517.758  1698.898 520.2  1695.79 520.2  " fill-rule="nonzero" fill="#cccccc" stroke="none" />
    <path d="M 1652 565  L 1652 532  L 1670.25 517  L 1695.8 534.379310344828  L 1710.4 526  L 1725 534.379310344828  L 1725 565  L 1652 565  " fill-rule="nonzero" fill="#169bd5" stroke="none" />
  </g>
</svg>