<?xml version="1.0" encoding="utf-8"?>
<svg version="1.1" xmlns:xlink="http://www.w3.org/1999/xlink" width="59px" height="49px" xmlns="http://www.w3.org/2000/svg">
  <defs>
    <mask fill="white" id="clip57">
      <path d="M 59 24.5  C 59 10.78  46.02 0  29.5 0  C 12.98 0  0 10.78  0 24.5  C 0 38.22  12.98 49  29.5 49  C 46.02 49  59 38.22  59 24.5  Z " fill-rule="evenodd" />
    </mask>
  </defs>
  <g transform="matrix(1 0 0 1 -1686 -470 )">
    <path d="M 59 24.5  C 59 10.78  46.02 0  29.5 0  C 12.98 0  0 10.78  0 24.5  C 0 38.22  12.98 49  29.5 49  C 46.02 49  59 38.22  59 24.5  Z " fill-rule="nonzero" fill="#ffffff" stroke="none" fill-opacity="0" transform="matrix(1 0 0 1 1686 470 )" />
    <path d="M 59 24.5  C 59 10.78  46.02 0  29.5 0  C 12.98 0  0 10.78  0 24.5  C 0 38.22  12.98 49  29.5 49  C 46.02 49  59 38.22  59 24.5  Z " stroke-width="2" stroke="#797979" fill="none" transform="matrix(1 0 0 1 1686 470 )" mask="url(#clip57)" />
  </g>
</svg>