<?xml version="1.0" encoding="utf-8"?>
<svg version="1.1" xmlns:xlink="http://www.w3.org/1999/xlink" width="88px" height="53px" xmlns="http://www.w3.org/2000/svg">
  <defs>
    <mask fill="white" id="clip58">
      <path d="M 88 26.5  C 88 11.66  68.64 0  44 0  C 19.36 0  0 11.66  0 26.5  C 0 41.34  19.36 53  44 53  C 68.64 53  88 41.34  88 26.5  Z " fill-rule="evenodd" />
    </mask>
  </defs>
  <g transform="matrix(1 0 0 1 -1656 -187 )">
    <path d="M 88 26.5  C 88 11.66  68.64 0  44 0  C 19.36 0  0 11.66  0 26.5  C 0 41.34  19.36 53  44 53  C 68.64 53  88 41.34  88 26.5  Z " fill-rule="nonzero" fill="#ffff00" stroke="none" transform="matrix(1 0 0 1 1656 187 )" />
    <path d="M 88 26.5  C 88 11.66  68.64 0  44 0  C 19.36 0  0 11.66  0 26.5  C 0 41.34  19.36 53  44 53  C 68.64 53  88 41.34  88 26.5  Z " stroke-width="2" stroke="#797979" fill="none" transform="matrix(1 0 0 1 1656 187 )" mask="url(#clip58)" />
  </g>
</svg>