<?xml version="1.0" encoding="utf-8"?>
<svg version="1.1" xmlns:xlink="http://www.w3.org/1999/xlink" width="27px" height="31px" xmlns="http://www.w3.org/2000/svg">
  <g transform="matrix(1 0 0 1 -39 -250 )">
    <path d="M 52.5 250  C 60.06 250  66 256.82  66 265.5  C 66 274.18  60.06 281  52.5 281  C 44.94 281  39 274.18  39 265.5  C 39 256.82  44.94 250  52.5 250  Z " fill-rule="nonzero" fill="#ffffff" stroke="none" />
    <path d="M 52.5 250.5  C 59.78 250.5  65.5 257.1  65.5 265.5  C 65.5 273.9  59.78 280.5  52.5 280.5  C 45.22 280.5  39.5 273.9  39.5 265.5  C 39.5 257.1  45.22 250.5  52.5 250.5  Z " stroke-width="1" stroke="#797979" fill="none" />
  </g>
</svg>