<?xml version="1.0" encoding="utf-8"?>
<svg version="1.1" xmlns:xlink="http://www.w3.org/1999/xlink" width="27px" height="31px" xmlns="http://www.w3.org/2000/svg">
  <g transform="matrix(1 0 0 1 -80 -250 )">
    <path d="M 93.5 250  C 101.06 250  107 256.82  107 265.5  C 107 274.18  101.06 281  93.5 281  C 85.94 281  80 274.18  80 265.5  C 80 256.82  85.94 250  93.5 250  Z " fill-rule="nonzero" fill="#999999" stroke="none" />
    <path d="M 93.5 250.5  C 100.78 250.5  106.5 257.1  106.5 265.5  C 106.5 273.9  100.78 280.5  93.5 280.5  C 86.22 280.5  80.5 273.9  80.5 265.5  C 80.5 257.1  86.22 250.5  93.5 250.5  Z " stroke-width="1" stroke="#797979" fill="none" />
  </g>
</svg>