<?xml version="1.0" encoding="utf-8"?>
<svg version="1.1" xmlns:xlink="http://www.w3.org/1999/xlink" width="27px" height="31px" xmlns="http://www.w3.org/2000/svg">
  <g transform="matrix(1 0 0 1 -123 -250 )">
    <path d="M 136.5 250  C 144.06 250  150 256.82  150 265.5  C 150 274.18  144.06 281  136.5 281  C 128.94 281  123 274.18  123 265.5  C 123 256.82  128.94 250  136.5 250  Z " fill-rule="nonzero" fill="#0099ff" stroke="none" />
    <path d="M 136.5 250.5  C 143.78 250.5  149.5 257.1  149.5 265.5  C 149.5 273.9  143.78 280.5  136.5 280.5  C 129.22 280.5  123.5 273.9  123.5 265.5  C 123.5 257.1  129.22 250.5  136.5 250.5  Z " stroke-width="1" stroke="#797979" fill="none" />
  </g>
</svg>