<?xml version="1.0" encoding="utf-8"?>
<svg version="1.1" xmlns:xlink="http://www.w3.org/1999/xlink" width="61px" height="61px" xmlns="http://www.w3.org/2000/svg">
  <g transform="matrix(1 0 0 1 -39 -456 )">
    <path d="M 39 456  L 100 456  L 100 517  L 39 517  L 39 456  " fill-rule="nonzero" fill="#cccccc" stroke="none" />
    <path d="M 43 460  L 96 460  L 96 513  L 43 513  L 43 460  " fill-rule="nonzero" fill="#ffffff" stroke="none" />
    <path d="M 75.295 474.3  C 72.733 474.3  70.72 472.287  70.72 469.725  C 70.72 467.163  72.733 465.15  75.295 465.15  C 77.857 465.15  79.87 467.163  79.87 469.725  C 79.87 472.287  77.857 474.3  75.295 474.3  " fill-rule="nonzero" fill="#cccccc" stroke="none" />
    <path d="M 45 512  L 45 484.5  L 57.5 472  L 75 482  L 85 479.5  L 95 482  L 95 512  L 45 512  " fill-rule="nonzero" fill="#169bd5" stroke="none" />
  </g>
</svg>