<?xml version="1.0" encoding="utf-8"?>
<svg version="1.1" xmlns:xlink="http://www.w3.org/1999/xlink" width="58.5px" height="10px" preserveAspectRatio="xMinYMid meet" viewBox="455.5 404.75  58.5 8" xmlns="http://www.w3.org/2000/svg">
  <path d="M 515 409  L 509.125 409  A 0.125 0.125 0 0 1 509 408.875 A 0.125 0.125 0 0 0 508.875 408.75 L 465.5 408.75  A 5 5 0 0 1 460.5 403.75 L 460.5 394  A 3 3 0 0 0 463.5 391 A 3 3 0 0 0 460.5 388 L 460.5 355  A 5 5 0 0 1 465.5 350 L 510 350  " stroke-width="2" stroke="#0099cc" fill="none" />
  <path d="M 514 416.6  L 521 409  L 514 401.4  L 514 416.6  Z M 509 357.6  L 516 350  L 509 342.4  L 509 357.6  Z " fill-rule="nonzero" fill="#0099cc" stroke="none" />
</svg>