<?xml version="1.0" encoding="utf-8"?>
<svg version="1.1" xmlns:xlink="http://www.w3.org/1999/xlink" width="82px" height="67px" xmlns="http://www.w3.org/2000/svg">
  <g transform="matrix(1 0 0 1 -673 -818 )">
    <path d="M 673 818  L 755 818  L 755 885  L 673 885  L 673 818  " fill-rule="nonzero" fill="#cccccc" stroke="none" />
    <path d="M 678 823  L 750 823  L 750 880  L 678 880  L 678 823  " fill-rule="nonzero" fill="#ffffff" stroke="none" />
    <path d="M 720.665 838.1  C 717.851 838.1  715.64 835.889  715.64 833.075  C 715.64 830.261  717.851 828.05  720.665 828.05  C 723.479 828.05  725.69 830.261  725.69 833.075  C 725.69 835.889  723.479 838.1  720.665 838.1  " fill-rule="nonzero" fill="#cccccc" stroke="none" />
    <path d="M 680 879  L 680 849.3  L 697.25 835.8  L 721.4 852.526829268293  L 735.2 843.9  L 749 852.526829268293  L 749 879  L 680 879  " fill-rule="nonzero" fill="#169bd5" stroke="none" />
  </g>
</svg>