<?xml version="1.0" encoding="utf-8"?>
<svg version="1.1" xmlns:xlink="http://www.w3.org/1999/xlink" width="23px" height="23px" xmlns="http://www.w3.org/2000/svg">
  <g transform="matrix(1 0 0 1 -1080 -441 )">
    <path d="M 1091.5 441  C 1097.94 441  1103 446.06  1103 452.5  C 1103 458.94  1097.94 464  1091.5 464  C 1085.06 464  1080 458.94  1080 452.5  C 1080 446.06  1085.06 441  1091.5 441  Z " fill-rule="nonzero" fill="#d9001b" stroke="none" />
    <path d="M 1091.5 441.5  C 1097.66 441.5  1102.5 446.34  1102.5 452.5  C 1102.5 458.66  1097.66 463.5  1091.5 463.5  C 1085.34 463.5  1080.5 458.66  1080.5 452.5  C 1080.5 446.34  1085.34 441.5  1091.5 441.5  Z " stroke-width="1" stroke="#797979" fill="none" />
  </g>
</svg>