<?xml version="1.0" encoding="utf-8"?>
<svg version="1.1" xmlns:xlink="http://www.w3.org/1999/xlink" width="26px" height="26px" xmlns="http://www.w3.org/2000/svg">
  <g transform="matrix(1 0 0 1 -1089 -369 )">
    <path d="M 1102 369  C 1109.28 369  1115 374.72  1115 382  C 1115 389.28  1109.28 395  1102 395  C 1094.72 395  1089 389.28  1089 382  C 1089 374.72  1094.72 369  1102 369  Z " fill-rule="nonzero" fill="#d9001b" stroke="none" />
    <path d="M 1102 369.5  C 1109 369.5  1114.5 375  1114.5 382  C 1114.5 389  1109 394.5  1102 394.5  C 1095 394.5  1089.5 389  1089.5 382  C 1089.5 375  1095 369.5  1102 369.5  Z " stroke-width="1" stroke="#797979" fill="none" />
  </g>
</svg>