<?xml version="1.0" encoding="utf-8"?>
<svg version="1.1" xmlns:xlink="http://www.w3.org/1999/xlink" width="21px" height="21px" xmlns="http://www.w3.org/2000/svg">
  <g transform="matrix(1 0 0 1 -499 -450 )">
    <path d="M 509.5 450  C 515.38 450  520 454.62  520 460.5  C 520 466.38  515.38 471  509.5 471  C 503.62 471  499 466.38  499 460.5  C 499 454.62  503.62 450  509.5 450  Z " fill-rule="nonzero" fill="#d9001b" stroke="none" />
    <path d="M 509.5 450.5  C 515.1 450.5  519.5 454.9  519.5 460.5  C 519.5 466.1  515.1 470.5  509.5 470.5  C 503.9 470.5  499.5 466.1  499.5 460.5  C 499.5 454.9  503.9 450.5  509.5 450.5  Z " stroke-width="1" stroke="#797979" fill="none" />
  </g>
</svg>