<?xml version="1.0" encoding="utf-8"?>
<svg version="1.1" xmlns:xlink="http://www.w3.org/1999/xlink" width="23px" height="23px" xmlns="http://www.w3.org/2000/svg">
  <g transform="matrix(1 0 0 1 -275 -659 )">
    <path d="M 13.2819010416667 19.0319010416667  C 13.3717447916667 18.9420572916667  13.4166666666667 18.8272569444444  13.4166666666667 18.6875  L 13.4166666666667 15.8125  C 13.4166666666667 15.6727430555556  13.3717447916667 15.5579427083333  13.2819010416667 15.4680989583333  C 13.1920572916667 15.3782552083333  13.0772569444444 15.3333333333333  12.9375 15.3333333333333  L 10.0625 15.3333333333333  C 9.92274305555556 15.3333333333333  9.80794270833333 15.3782552083333  9.71809895833333 15.4680989583333  C 9.62825520833333 15.5579427083333  9.58333333333333 15.6727430555556  9.58333333333333 15.8125  L 9.58333333333333 18.6875  C 9.58333333333333 18.8272569444444  9.62825520833333 18.9420572916667  9.71809895833333 19.0319010416667  C 9.80794270833333 19.1217447916667  9.92274305555556 19.1666666666667  10.0625 19.1666666666667  L 12.9375 19.1666666666667  C 13.0772569444444 19.1666666666667  13.1920572916667 19.1217447916667  13.2819010416667 19.0319010416667  Z M 17.0628255208333 9.837890625  C 17.1876085069444 9.46853298611111  17.25 9.06423611111111  17.25 8.625  C 17.25 7.74652777777778  16.9729817708333 6.93294270833333  16.4189453125 6.18424479166667  C 15.8649088541667 5.435546875  15.1736111111111 4.85655381944444  14.3450520833333 4.447265625  C 13.5164930555556 4.03797743055555  12.66796875 3.83333333333333  11.7994791666667 3.83333333333333  C 9.37369791666667 3.83333333333333  7.52191840277778 4.896484375  6.244140625 7.02278645833333  C 6.09440104166667 7.26236979166667  6.13433159722222 7.47200520833333  6.36393229166667 7.65169270833333  L 8.34049479166667 9.14908854166667  C 8.41037326388889 9.208984375  8.50520833333333 9.23893229166667  8.625 9.23893229166667  C 8.78472222222222 9.23893229166667  8.90950520833333 9.17903645833333  8.99934895833333 9.05924479166667  C 9.52842881944444 8.38042534722222  9.95768229166667 7.92122395833333  10.287109375 7.681640625  C 10.6265190972222 7.44205729166667  11.0557725694444 7.322265625  11.5748697916667 7.322265625  C 12.0540364583333 7.322265625  12.4807942708333 7.45203993055555  12.8551432291667 7.71158854166667  C 13.2294921875 7.97113715277778  13.4166666666667 8.265625  13.4166666666667 8.59505208333333  C 13.4166666666667 8.97439236111111  13.3168402777778 9.27886284722222  13.1171875 9.50846354166667  C 12.9175347222222 9.73806423611111  12.578125 9.96267361111111  12.0989583333333 10.1822916666667  C 11.4700520833333 10.4618055555556  10.8935546875 10.8935546875  10.3694661458333 11.4775390625  C 9.84537760416667 12.0615234375  9.58333333333333 12.6879340277778  9.58333333333333 13.3567708333333  L 9.58333333333333 13.8958333333333  C 9.58333333333333 14.0355902777778  9.62825520833333 14.150390625  9.71809895833333 14.240234375  C 9.80794270833333 14.330078125  9.92274305555556 14.375  10.0625 14.375  L 12.9375 14.375  C 13.0772569444444 14.375  13.1920572916667 14.330078125  13.2819010416667 14.240234375  C 13.3717447916667 14.150390625  13.4166666666667 14.0355902777778  13.4166666666667 13.8958333333333  C 13.4166666666667 13.7061631944444  13.5239800347222 13.4590928819444  13.7386067708333 13.1546223958333  C 13.9532335069444 12.8501519097222  14.2252604166667 12.6030815972222  14.5546875 12.4134114583333  C 14.8741319444444 12.2337239583333  15.1187065972222 12.0914713541667  15.2884114583333 11.9866536458333  C 15.4581163194444 11.8818359375  15.6877170138889 11.7071397569444  15.9772135416667 11.4625651041667  C 16.2667100694444 11.2179904513889  16.4888237847222 10.9784071180556  16.6435546875 10.7438151041667  C 16.7982855902778 10.5092230902778  16.9380425347222 10.2072482638889  17.0628255208333 9.837890625  Z M 21.4576822916667 5.7275390625  C 22.4858940972222 7.48947482638889  23 9.41362847222222  23 11.5  C 23 13.5863715277778  22.4858940972222 15.5105251736111  21.4576822916667 17.2724609375  C 20.4294704861111 19.0343967013889  19.0343967013889 20.4294704861111  17.2724609375 21.4576822916667  C 15.5105251736111 22.4858940972222  13.5863715277778 23  11.5 23  C 9.41362847222222 23  7.48947482638889 22.4858940972222  5.7275390625 21.4576822916667  C 3.96560329861111 20.4294704861111  2.57052951388889 19.0343967013889  1.54231770833333 17.2724609375  C 0.514105902777778 15.5105251736111  0 13.5863715277778  0 11.5  C 0 9.41362847222222  0.514105902777778 7.48947482638889  1.54231770833333 5.7275390625  C 2.57052951388889 3.96560329861111  3.96560329861111 2.57052951388889  5.7275390625 1.54231770833333  C 7.48947482638889 0.514105902777776  9.41362847222222 0  11.5 0  C 13.5863715277778 0  15.5105251736111 0.514105902777776  17.2724609375 1.54231770833333  C 19.0343967013889 2.57052951388889  20.4294704861111 3.96560329861111  21.4576822916667 5.7275390625  Z " fill-rule="nonzero" fill="#000000" stroke="none" transform="matrix(1 0 0 1 275 659 )" />
  </g>
</svg>