<?xml version="1.0" encoding="utf-8"?>
<svg version="1.1" xmlns:xlink="http://www.w3.org/1999/xlink" width="41px" height="41px" xmlns="http://www.w3.org/2000/svg">
  <g transform="matrix(1 0 0 1 -148 -541 )">
    <path d="M 168.5 541  C 179.98 541  189 550.02  189 561.5  C 189 572.98  179.98 582  168.5 582  C 157.02 582  148 572.98  148 561.5  C 148 550.02  157.02 541  168.5 541  Z " fill-rule="nonzero" fill="#d9001b" stroke="none" />
    <path d="M 168.5 541.5  C 179.7 541.5  188.5 550.3  188.5 561.5  C 188.5 572.7  179.7 581.5  168.5 581.5  C 157.3 581.5  148.5 572.7  148.5 561.5  C 148.5 550.3  157.3 541.5  168.5 541.5  Z " stroke-width="1" stroke="#797979" fill="none" />
  </g>
</svg>