<?xml version="1.0" encoding="utf-8"?>
<svg version="1.1" xmlns:xlink="http://www.w3.org/1999/xlink" width="35px" height="35px" xmlns="http://www.w3.org/2000/svg">
  <defs>
    <filter x="109px" y="182px" width="35px" height="35px" filterUnits="userSpaceOnUse" id="filter13">
      <feOffset dx="1" dy="1" in="SourceAlpha" result="shadowOffsetInner" />
      <feGaussianBlur stdDeviation="2.5" in="shadowOffsetInner" result="shadowGaussian" />
      <feComposite in2="shadowGaussian" operator="atop" in="SourceAlpha" result="shadowComposite" />
      <feColorMatrix type="matrix" values="0 0 0 0 0  0 0 0 0 0  0 0 0 0 0  0 0 0 0.698039215686274 0  " in="shadowComposite" />
    </filter>
    <g id="widget14">
      <path d="M 125.5 186  C 132.5 186  138 191.5  138 198.5  C 138 205.5  132.5 211  125.5 211  C 118.5 211  113 205.5  113 198.5  C 113 191.5  118.5 186  125.5 186  Z " fill-rule="nonzero" fill="#aaaaaa" stroke="none" />
      <path d="M 125.5 186.5  C 132.22 186.5  137.5 191.78  137.5 198.5  C 137.5 205.22  132.22 210.5  125.5 210.5  C 118.78 210.5  113.5 205.22  113.5 198.5  C 113.5 191.78  118.78 186.5  125.5 186.5  Z " stroke-width="1" stroke="#ffffff" fill="none" />
    </g>
  </defs>
  <g transform="matrix(1 0 0 1 -109 -182 )">
    <use xlink:href="#widget14" filter="url(#filter13)" />
    <use xlink:href="#widget14" />
  </g>
</svg>