<?xml version="1.0" encoding="utf-8"?>
<svg version="1.1" xmlns:xlink="http://www.w3.org/1999/xlink" width="40px" height="65px" xmlns="http://www.w3.org/2000/svg">
  <defs>
    <filter x="580px" y="281px" width="40px" height="65px" filterUnits="userSpaceOnUse" id="filter3">
      <feOffset dx="1" dy="1" in="SourceAlpha" result="shadowOffsetInner" />
      <feGaussianBlur stdDeviation="2.5" in="shadowOffsetInner" result="shadowGaussian" />
      <feComposite in2="shadowGaussian" operator="atop" in="SourceAlpha" result="shadowComposite" />
      <feColorMatrix type="matrix" values="0 0 0 0 0  0 0 0 0 0  0 0 0 0 0  0 0 0 0.698039215686274 0  " in="shadowComposite" />
    </filter>
    <g id="widget4">
      <path d="M 599 338.792906965403  C 593.2 325.507173517171  584.5 317.535733448232  584.5 304.25  C 584.5 297.285714285714  587.4 285.5  599 285.5  C 610.6 285.5  613.5 297.285714285714  613.5 304.25  C 613.5 317.535733448232  604.8 325.507173517171  599 338.792906965403  Z " fill-rule="nonzero" fill="#009dd9" stroke="none" />
      <path d="M 599 340  C 593 326.25  584 318  584 304.25  C 584 297.1  587 285  599 285  C 611 285  614 297.1  614 304.25  C 614 318  605 326.25  599 340  Z M 599 337.585813930805  C 604.6 324.764347034342  613 317.071466896464  613 304.25  C 613 297.471428571429  610.2 286  599 286  C 587.8 286  585 297.471428571429  585 304.25  C 585 317.071466896464  593.4 324.764347034342  599 337.585813930805  Z " fill-rule="nonzero" fill="#ffffff" stroke="none" />
    </g>
  </defs>
  <g transform="matrix(1 0 0 1 -580 -281 )">
    <use xlink:href="#widget4" filter="url(#filter3)" />
    <use xlink:href="#widget4" />
  </g>
</svg>