<?xml version="1.0" encoding="utf-8"?>
<svg version="1.1" xmlns:xlink="http://www.w3.org/1999/xlink" width="40px" height="50px" xmlns="http://www.w3.org/2000/svg">
  <defs>
    <filter x="207px" y="318px" width="40px" height="50px" filterUnits="userSpaceOnUse" id="filter41">
      <feOffset dx="1" dy="1" in="SourceAlpha" result="shadowOffsetInner" />
      <feGaussianBlur stdDeviation="2.5" in="shadowOffsetInner" result="shadowGaussian" />
      <feComposite in2="shadowGaussian" operator="atop" in="SourceAlpha" result="shadowComposite" />
      <feColorMatrix type="matrix" values="0 0 0 0 0  0 0 0 0 0  0 0 0 0 0  0 0 0 0.698039215686274 0  " in="shadowComposite" />
    </filter>
    <g id="widget42">
      <path d="M 226 361.036928468354  C 220.2 351.40734059591  211.5 345.629587872444  211.5 336  C 211.5 330.985714285714  214.4 322.5  226 322.5  C 237.6 322.5  240.5 330.985714285714  240.5 336  C 240.5 345.629587872444  231.8 351.40734059591  226 361.036928468354  Z " fill-rule="nonzero" fill="#009dd9" stroke="none" />
      <path d="M 226 362  C 220 352  211 346  211 336  C 211 330.8  214 322  226 322  C 238 322  241 330.8  241 336  C 241 346  232 352  226 362  Z M 226 360.073856936707  C 231.6 350.81468119182  240 345.259175744887  240 336  C 240 331.171428571429  237.2 323  226 323  C 214.8 323  212 331.171428571429  212 336  C 212 345.259175744887  220.4 350.81468119182  226 360.073856936707  Z " fill-rule="nonzero" fill="#ffffff" stroke="none" />
    </g>
  </defs>
  <g transform="matrix(1 0 0 1 -207 -318 )">
    <use xlink:href="#widget42" filter="url(#filter41)" />
    <use xlink:href="#widget42" />
  </g>
</svg>