<?xml version="1.0" encoding="utf-8"?>
<svg version="1.1" xmlns:xlink="http://www.w3.org/1999/xlink" width="10px" height="10.25px" preserveAspectRatio="xMidYMin meet" viewBox="746 409.75  8 10.25" xmlns="http://www.w3.org/2000/svg">
  <path d="M 756 415  L 750.125 415  A 0.125 0.125 0 0 1 750 414.875 A 0.125 0.125 0 0 0 749.875 414.75 L 706.5 414.75  A 5 5 0 0 1 701.5 409.75 L 701.5 400  A 3 3 0 0 0 704.5 397 A 3 3 0 0 0 701.5 394 L 701.5 361  A 5 5 0 0 1 706.5 356 L 751 356  " stroke-width="2" stroke="#0099cc" fill="none" />
  <path d="M 755 422.6  L 762 415  L 755 407.4  L 755 422.6  Z M 750 363.6  L 757 356  L 750 348.4  L 750 363.6  Z " fill-rule="nonzero" fill="#0099cc" stroke="none" />
</svg>