<?xml version="1.0" encoding="utf-8"?>
<svg version="1.1" xmlns:xlink="http://www.w3.org/1999/xlink" width="25px" height="23px" xmlns="http://www.w3.org/2000/svg">
  <g transform="matrix(1 0 0 1 -1256 -602 )">
    <path d="M 1268.5 602  C 1275.5 602  1281 607.06  1281 613.5  C 1281 619.94  1275.5 625  1268.5 625  C 1261.5 625  1256 619.94  1256 613.5  C 1256 607.06  1261.5 602  1268.5 602  Z " fill-rule="nonzero" fill="#0066ff" stroke="none" />
    <path d="M 1268.5 602.5  C 1275.22 602.5  1280.5 607.34  1280.5 613.5  C 1280.5 619.66  1275.22 624.5  1268.5 624.5  C 1261.78 624.5  1256.5 619.66  1256.5 613.5  C 1256.5 607.34  1261.78 602.5  1268.5 602.5  Z " stroke-width="1" stroke="#797979" fill="none" />
  </g>
</svg>