<?xml version="1.0" encoding="utf-8"?>
<svg version="1.1" xmlns:xlink="http://www.w3.org/1999/xlink" width="25px" height="23px" xmlns="http://www.w3.org/2000/svg">
  <g transform="matrix(1 0 0 1 -1333 -602 )">
    <path d="M 1345.5 602  C 1352.5 602  1358 607.06  1358 613.5  C 1358 619.94  1352.5 625  1345.5 625  C 1338.5 625  1333 619.94  1333 613.5  C 1333 607.06  1338.5 602  1345.5 602  Z " fill-rule="nonzero" fill="#0099ff" stroke="none" />
    <path d="M 1345.5 602.5  C 1352.22 602.5  1357.5 607.34  1357.5 613.5  C 1357.5 619.66  1352.22 624.5  1345.5 624.5  C 1338.78 624.5  1333.5 619.66  1333.5 613.5  C 1333.5 607.34  1338.78 602.5  1345.5 602.5  Z " stroke-width="1" stroke="#797979" fill="none" />
  </g>
</svg>