<?xml version="1.0" encoding="utf-8"?>
<svg version="1.1" xmlns:xlink="http://www.w3.org/1999/xlink" width="56px" height="45px" xmlns="http://www.w3.org/2000/svg">
  <g transform="matrix(1 0 0 1 -1256 -755 )">
    <path d="M 1256 755  L 1312 755  L 1312 800  L 1256 800  L 1256 755  " fill-rule="nonzero" fill="#cccccc" stroke="none" />
    <path d="M 1259 758  L 1309 758  L 1309 797  L 1259 797  L 1259 758  " fill-rule="nonzero" fill="#ffffff" stroke="none" />
    <path d="M 1288.495 768.5  C 1286.605 768.5  1285.12 767.015  1285.12 765.125  C 1285.12 763.235  1286.605 761.75  1288.495 761.75  C 1290.385 761.75  1291.87 763.235  1291.87 765.125  C 1291.87 767.015  1290.385 768.5  1288.495 768.5  " fill-rule="nonzero" fill="#cccccc" stroke="none" />
    <path d="M 1260 796  L 1260 775.65  L 1272 766.4  L 1288.8 778.160714285714  L 1298.4 771.95  L 1308 778.160714285714  L 1308 796  L 1260 796  " fill-rule="nonzero" fill="#169bd5" stroke="none" />
  </g>
</svg>