<?xml version="1.0" encoding="utf-8"?>
<svg version="1.1" xmlns:xlink="http://www.w3.org/1999/xlink" width="803px" height="88px" xmlns="http://www.w3.org/2000/svg">
  <defs>
    <mask fill="white" id="clip174">
      <path d="M 0 88  L 0 0  L 803 0  L 803 88  L 387.248685363716 88  L 309.834136722174 88  L 0 88  Z " fill-rule="evenodd" />
    </mask>
  </defs>
  <g transform="matrix(1 0 0 1 -1656 -632 )">
    <path d="M 0 88  L 0 0  L 803 0  L 803 88  L 387.248685363716 88  L 309.834136722174 88  L 0 88  Z " fill-rule="nonzero" fill="#ffffff" stroke="none" transform="matrix(1 0 0 1 1656 632 )" />
    <path d="M 0 88  L 0 0  L 803 0  L 803 88  L 387.248685363716 88  L 309.834136722174 88  L 0 88  Z " stroke-width="2" stroke="#797979" fill="none" transform="matrix(1 0 0 1 1656 632 )" mask="url(#clip174)" />
  </g>
</svg>