<?xml version="1.0" encoding="utf-8"?>
<svg version="1.1" xmlns:xlink="http://www.w3.org/1999/xlink" width="58px" height="33px" xmlns="http://www.w3.org/2000/svg">
  <g transform="matrix(1 0 0 1 -244 -554 )">
    <path d="M 244 554  L 302 554  L 302 587  L 244 587  L 244 554  " fill-rule="nonzero" fill="#cccccc" stroke="none" />
    <path d="M 246 556  L 300 556  L 300 585  L 246 585  L 246 556  " fill-rule="nonzero" fill="#ffffff" stroke="none" />
    <path d="M 276.635 563.9  C 275.249 563.9  274.16 562.811  274.16 561.425  C 274.16 560.039  275.249 558.95  276.635 558.95  C 278.021 558.95  279.11 560.039  279.11 561.425  C 279.11 562.811  278.021 563.9  276.635 563.9  " fill-rule="nonzero" fill="#cccccc" stroke="none" />
    <path d="M 247 584  L 247 569.15  L 260 562.4  L 278.2 574.78275862069  L 288.6 566.45  L 299 574.78275862069  L 299 584  L 247 584  " fill-rule="nonzero" fill="#169bd5" stroke="none" />
  </g>
</svg>