<?xml version="1.0" encoding="utf-8"?>
<svg version="1.1" xmlns:xlink="http://www.w3.org/1999/xlink" width="324px" height="359px" xmlns="http://www.w3.org/2000/svg">
  <g transform="matrix(1 0 0 1 -594 -359 )">
    <path d="M 594 359  L 918 359  L 918 718  L 594 718  L 594 359  " fill-rule="nonzero" fill="#cccccc" stroke="none" />
    <path d="M 617 382  L 895 382  L 895 695  L 617 695  L 617 382  " fill-rule="nonzero" fill="#ffffff" stroke="none" />
    <path d="M 786.78 461.45  C 773.172 461.45  762.48 450.758  762.48 437.15  C 762.48 423.542  773.172 412.85  786.78 412.85  C 800.388 412.85  811.08 423.542  811.08 437.15  C 811.08 450.758  800.388 461.45  786.78 461.45  " fill-rule="nonzero" fill="#cccccc" stroke="none" />
    <path d="M 625 687  L 625 523.65  L 690.5 449.4  L 782.2 508.8  L 834.6 493.95  L 887 508.8  L 887 687  L 625 687  " fill-rule="nonzero" fill="#169bd5" stroke="none" />
  </g>
</svg>