<?xml version="1.0" encoding="utf-8"?>
<svg version="1.1" xmlns:xlink="http://www.w3.org/1999/xlink" width="110px" height="10px" preserveAspectRatio="xMinYMid meet" viewBox="1075 776  110 8" xmlns="http://www.w3.org/2000/svg">
  <defs>
    <mask fill="white" id="clip19">
      <path d="M 1106 745  L 1226 745  L 1226 815  L 1106 815  Z M 793 340  L 1226 340  L 1226 949  L 793 949  Z " fill-rule="evenodd" />
    </mask>
  </defs>
  <path d="M 1106 343  L 1085 343  A 5 5 0 0 0 1080 348 L 1080 775  A 5 5 0 0 0 1085 780 L 1175 780  A 5 5 0 0 1 1180 785 L 1180 934  A 5 5 0 0 1 1175 939 L 809 939  " stroke-width="2" stroke="#0099cc" fill="none" mask="url(#clip19)" />
  <path d="M 810 931.4  L 803 939  L 810 946.6  L 810 931.4  Z " fill-rule="nonzero" fill="#0099cc" stroke="none" mask="url(#clip19)" />
</svg>