<?xml version="1.0" encoding="utf-8"?>
<svg version="1.1" xmlns:xlink="http://www.w3.org/1999/xlink" width="12px" height="12px" viewBox="194 336  12 12" xmlns="http://www.w3.org/2000/svg">
  <path d="M 200 336  C 203.36 336  206 338.64  206 342  C 206 345.36  203.36 348  200 348  C 196.64 348  194 345.36  194 342  C 194 338.64  196.64 336  200 336  Z " fill-rule="nonzero" fill="#ffffff" stroke="none" />
  <path d="M 200 336.5  C 203.08 336.5  205.5 338.92  205.5 342  C 205.5 345.08  203.08 347.5  200 347.5  C 196.92 347.5  194.5 345.08  194.5 342  C 194.5 338.92  196.92 336.5  200 336.5  Z " stroke-width="1" stroke="#797979" fill="none" />
  <path d="M 200 345  C 198.32 345  197 343.68  197 342  C 197 340.32  198.32 339  200 339  C 201.68 339  203 340.32  203 342  C 203 343.68  201.68 345  200 345  " fill-rule="nonzero" fill="#797979" stroke="none" />
</svg>