<?xml version="1.0" encoding="utf-8"?>
<svg version="1.1" xmlns:xlink="http://www.w3.org/1999/xlink" width="27px" height="27px" xmlns="http://www.w3.org/2000/svg">
  <defs>
    <filter x="292px" y="1468px" width="27px" height="27px" filterUnits="userSpaceOnUse" id="filter71">
      <feOffset dx="1" dy="1" in="SourceAlpha" result="shadowOffsetInner" />
      <feGaussianBlur stdDeviation="2.5" in="shadowOffsetInner" result="shadowGaussian" />
      <feComposite in2="shadowGaussian" operator="atop" in="SourceAlpha" result="shadowComposite" />
      <feColorMatrix type="matrix" values="0 0 0 0 0  0 0 0 0 0  0 0 0 0 0  0 0 0 0.698039215686274 0  " in="shadowComposite" />
    </filter>
    <g id="widget72">
      <path d="M 304.5 1472  C 309.26 1472  313 1475.74  313 1480.5  C 313 1485.26  309.26 1489  304.5 1489  C 299.74 1489  296 1485.26  296 1480.5  C 296 1475.74  299.74 1472  304.5 1472  Z " fill-rule="nonzero" fill="#009dd9" stroke="none" />
      <path d="M 304.5 1472.5  C 308.98 1472.5  312.5 1476.02  312.5 1480.5  C 312.5 1484.98  308.98 1488.5  304.5 1488.5  C 300.02 1488.5  296.5 1484.98  296.5 1480.5  C 296.5 1476.02  300.02 1472.5  304.5 1472.5  Z " stroke-width="1" stroke="#ffffff" fill="none" />
    </g>
  </defs>
  <g transform="matrix(1 0 0 1 -292 -1468 )">
    <use xlink:href="#widget72" filter="url(#filter71)" />
    <use xlink:href="#widget72" />
  </g>
</svg>