<?xml version="1.0" encoding="utf-8"?>
<svg version="1.1" xmlns:xlink="http://www.w3.org/1999/xlink" width="40px" height="40px" xmlns="http://www.w3.org/2000/svg">
  <g transform="matrix(1 0 0 1 -407 -306 )">
    <path d="M 427 306  C 438.2 306  447 314.8  447 326  C 447 337.2  438.2 346  427 346  C 415.8 346  407 337.2  407 326  C 407 314.8  415.8 306  427 306  Z " fill-rule="nonzero" fill="#ffffff" stroke="none" />
    <path d="M 427 306.5  C 437.92 306.5  446.5 315.08  446.5 326  C 446.5 336.92  437.92 345.5  427 345.5  C 416.08 345.5  407.5 336.92  407.5 326  C 407.5 315.08  416.08 306.5  427 306.5  Z " stroke-width="1" stroke="#797979" fill="none" />
  </g>
</svg>