<?xml version="1.0" encoding="utf-8"?>
<svg version="1.1" xmlns:xlink="http://www.w3.org/1999/xlink" width="35px" height="36px" xmlns="http://www.w3.org/2000/svg">
  <g transform="matrix(1 0 0 1 -1408 -604 )">
    <path d="M 1425.5 604  C 1435.3 604  1443 611.92  1443 622  C 1443 632.08  1435.3 640  1425.5 640  C 1415.7 640  1408 632.08  1408 622  C 1408 611.92  1415.7 604  1425.5 604  Z " fill-rule="nonzero" fill="#ffffff" stroke="none" />
    <path d="M 1425.5 604.5  C 1435.02 604.5  1442.5 612.2  1442.5 622  C 1442.5 631.8  1435.02 639.5  1425.5 639.5  C 1415.98 639.5  1408.5 631.8  1408.5 622  C 1408.5 612.2  1415.98 604.5  1425.5 604.5  Z " stroke-width="1" stroke="#797979" fill="none" />
  </g>
</svg>