<?xml version="1.0" encoding="utf-8"?>
<svg version="1.1" xmlns:xlink="http://www.w3.org/1999/xlink" width="35px" height="35px" xmlns="http://www.w3.org/2000/svg">
  <g transform="matrix(1 0 0 1 -1408 -202 )">
    <path d="M 1425.5 202  C 1435.3 202  1443 209.7  1443 219.5  C 1443 229.3  1435.3 237  1425.5 237  C 1415.7 237  1408 229.3  1408 219.5  C 1408 209.7  1415.7 202  1425.5 202  Z " fill-rule="nonzero" fill="#ffffff" stroke="none" />
    <path d="M 1425.5 202.5  C 1435.02 202.5  1442.5 209.98  1442.5 219.5  C 1442.5 229.02  1435.02 236.5  1425.5 236.5  C 1415.98 236.5  1408.5 229.02  1408.5 219.5  C 1408.5 209.98  1415.98 202.5  1425.5 202.5  Z " stroke-width="1" stroke="#797979" fill="none" />
  </g>
</svg>