<?xml version="1.0" encoding="utf-8"?>
<svg version="1.1" xmlns:xlink="http://www.w3.org/1999/xlink" width="16px" height="16px" xmlns="http://www.w3.org/2000/svg">
  <g transform="matrix(1 0 0 1 -459 -191 )">
    <path d="M 467 191  C 471.48 191  475 194.52  475 199  C 475 203.48  471.48 207  467 207  C 462.52 207  459 203.48  459 199  C 459 194.52  462.52 191  467 191  Z " fill-rule="nonzero" fill="#ffffff" stroke="none" fill-opacity="0" />
    <path d="M 467 191.5  C 471.2 191.5  474.5 194.8  474.5 199  C 474.5 203.2  471.2 206.5  467 206.5  C 462.8 206.5  459.5 203.2  459.5 199  C 459.5 194.8  462.8 191.5  467 191.5  Z " stroke-width="1" stroke="#ffffff" fill="none" />
  </g>
</svg>