<?xml version="1.0" encoding="utf-8"?>
<svg version="1.1" xmlns:xlink="http://www.w3.org/1999/xlink" width="9px" height="12px" xmlns="http://www.w3.org/2000/svg">
  <g transform="matrix(1 0 0 1 -116 -213 )">
    <path d="M 8.8453608247423 0.721442885771545  C 8.94845360824742 0.801603206412813  9 0.893787575150301  9 0.997995991983981  C 9 1.10220440881764  8.94845360824742 1.19438877755512  8.8453608247423 1.27454909819639  L 2.76804123711341 6  L 8.8453608247423 10.7254509018036  C 8.94845360824742 10.8056112224449  9 10.8977955911824  9 11.002004008016  C 9 11.1062124248497  8.94845360824742 11.1983967935872  8.8453608247423 11.2785571142285  L 8.0721649484536 11.8797595190381  C 7.96907216494848 11.9599198396794  7.85051546391752 12  7.71649484536081 12  C 7.58247422680411 12  7.4639175257732 11.9599198396794  7.36082474226808 11.8797595190381  L 0.154639175257699 6.27655310621244  C 0.0515463917525835 6.19639278557114  0 6.10420841683365  0 6  C 0 5.89579158316635  0.0515463917525835 5.80360721442886  0.154639175257699 5.72344689378756  L 7.36082474226808 0.120240480961929  C 7.4639175257732 0.0400801603206341  7.58247422680411 0  7.71649484536081 0  C 7.85051546391752 0  7.96907216494848 0.0400801603206341  8.0721649484536 0.120240480961929  L 8.8453608247423 0.721442885771545  Z " fill-rule="nonzero" fill="#000000" stroke="none" transform="matrix(1 0 0 1 116 213 )" />
  </g>
</svg>