<?xml version="1.0" encoding="utf-8"?>
<svg version="1.1" xmlns:xlink="http://www.w3.org/1999/xlink" width="36px" height="45px" xmlns="http://www.w3.org/2000/svg">
  <defs>
    <filter x="366px" y="96px" width="36px" height="45px" filterUnits="userSpaceOnUse" id="filter39">
      <feOffset dx="1" dy="1" in="SourceAlpha" result="shadowOffsetInner" />
      <feGaussianBlur stdDeviation="2.5" in="shadowOffsetInner" result="shadowGaussian" />
      <feComposite in2="shadowGaussian" operator="atop" in="SourceAlpha" result="shadowComposite" />
      <feColorMatrix type="matrix" values="0 0 0 0 0  0 0 0 0 0  0 0 0 0 0  0 0 0 0.698039215686274 0  " in="shadowComposite" />
    </filter>
    <g id="widget40">
      <path d="M 383 134.030671506739  C 378 125.653490157994  370.5 120.627181348746  370.5 112.25  C 370.5 107.885714285714  373 100.5  383 100.5  C 393 100.5  395.5 107.885714285714  395.5 112.25  C 395.5 120.627181348746  388 125.653490157994  383 134.030671506739  Z " fill-rule="nonzero" fill="#009dd9" stroke="none" />
      <path d="M 383 135  C 377.8 126.25  370 121  370 112.25  C 370 107.7  372.6 100  383 100  C 393.4 100  396 107.7  396 112.25  C 396 121  388.2 126.25  383 135  Z M 383 133.061343013479  C 387.8 125.056980315987  395 120.254362697492  395 112.25  C 395 108.071428571429  392.6 101  383 101  C 373.4 101  371 108.071428571429  371 112.25  C 371 120.254362697492  378.2 125.056980315987  383 133.061343013479  Z " fill-rule="nonzero" fill="#ffffff" stroke="none" />
    </g>
  </defs>
  <g transform="matrix(1 0 0 1 -366 -96 )">
    <use xlink:href="#widget40" filter="url(#filter39)" />
    <use xlink:href="#widget40" />
  </g>
</svg>