<?xml version="1.0" encoding="utf-8"?>
<svg version="1.1" xmlns:xlink="http://www.w3.org/1999/xlink" width="39px" height="39px" xmlns="http://www.w3.org/2000/svg">
  <g transform="matrix(1 0 0 1 -597 -369 )">
    <path d="M 616.5 369  C 627.42 369  636 377.58  636 388.5  C 636 399.42  627.42 408  616.5 408  C 605.58 408  597 399.42  597 388.5  C 597 377.58  605.58 369  616.5 369  Z " fill-rule="nonzero" fill="#d9001b" stroke="none" />
    <path d="M 616.5 369.5  C 627.14 369.5  635.5 377.86  635.5 388.5  C 635.5 399.14  627.14 407.5  616.5 407.5  C 605.86 407.5  597.5 399.14  597.5 388.5  C 597.5 377.86  605.86 369.5  616.5 369.5  Z " stroke-width="1" stroke="#797979" fill="none" />
  </g>
</svg>