<?xml version="1.0" encoding="utf-8"?>
<svg version="1.1" xmlns:xlink="http://www.w3.org/1999/xlink" width="27px" height="27px" xmlns="http://www.w3.org/2000/svg">
  <g transform="matrix(1 0 0 1 -312 -251 )">
    <path d="M 6.37744807121662 15.5430267062315  L 15.5430267062315 6.37744807121662  L 20.606528189911 11.4409495548961  L 11.4409495548961 20.606528189911  L 6.37744807121662 15.5430267062315  Z M 11.4409495548961 22.353115727003  C 11.7293768545994 22.353115727003  11.9697329376855 22.2569732937685  12.1620178041543 22.0646884272997  L 22.0646884272997 12.1620178041543  C 22.2676557863502 11.9590504451039  22.3691394658754 11.7186943620178  22.3691394658754 11.4409495548961  C 22.3691394658754 11.1632047477745  22.2676557863502 10.9228486646884  22.0646884272997 10.719881305638  L 16.2640949554896 4.91928783382789  C 16.0718100890208 4.72700296735905  15.8314540059347 4.63086053412463  15.5430267062315 4.63086053412463  C 15.2545994065282 4.63086053412463  15.0142433234421 4.72700296735905  14.8219584569733 4.91928783382789  L 4.91928783382789 14.8219584569733  C 4.71632047477745 15.0249258160237  4.61483679525223 15.2652818991098  4.61483679525223 15.5430267062315  C 4.61483679525223 15.8207715133531  4.71632047477745 16.0611275964392  4.91928783382789 16.2640949554896  L 10.719881305638 22.0646884272997  C 10.9121661721068 22.2569732937685  11.1525222551929 22.353115727003  11.4409495548961 22.353115727003  Z M 27 10.4074183976261  C 27 10.9789317507418  26.8023738872404 11.4623145400593  26.4071216617211 11.8575667655786  L 11.873590504451 26.4071216617211  C 11.4783382789318 26.8023738872404  10.9949554896142 27  10.4234421364985 27  C 9.85192878338279 27  9.36854599406528 26.8023738872404  8.97329376854599 26.4071216617211  L 6.95430267062314 24.3881305637982  C 7.55252225519288 23.7899109792285  7.85163204747774 23.0635014836795  7.85163204747774 22.2089020771513  C 7.85163204747774 21.3543026706231  7.55252225519288 20.6278931750742  6.95430267062314 20.0296735905045  C 6.35608308605341 19.4314540059347  5.62967359050445 19.1323442136499  4.77507418397626 19.1323442136499  C 3.92047477744807 19.1323442136499  3.19406528189911 19.4314540059347  2.59584569732938 20.0296735905045  L 0.592878338278932 18.0106824925816  C 0.197626112759644 17.6154302670623  0 17.1320474777448  0 16.5605341246291  C 0 15.9890207715134  0.197626112759644 15.5056379821958  0.592878338278932 15.1103857566766  L 15.126409495549 0.592878338278932  C 15.5216617210683 0.197626112759642  16.0050445103858 0  16.5765578635015 0  C 17.1480712166172 0  17.6314540059347 0.197626112759642  18.026706231454 0.592878338278932  L 20.0296735905045 2.59584569732938  C 19.4314540059347 3.19406528189911  19.1323442136499 3.92047477744807  19.1323442136499 4.77507418397626  C 19.1323442136499 5.62967359050445  19.4314540059347 6.35608308605341  20.0296735905045 6.95430267062314  C 20.6278931750742 7.55252225519288  21.3543026706231 7.85163204747775  22.2089020771513 7.85163204747775  C 23.0635014836795 7.85163204747775  23.7899109792285 7.55252225519288  24.3881305637982 6.95430267062314  L 26.4071216617211 8.95727002967359  C 26.8023738872404 9.35252225519288  27 9.83590504451039  27 10.4074183976261  Z " fill-rule="nonzero" fill="#000000" stroke="none" transform="matrix(1 0 0 1 312 251 )" />
  </g>
</svg>