<?xml version="1.0" encoding="utf-8"?>
<svg version="1.1" xmlns:xlink="http://www.w3.org/1999/xlink" width="17px" height="17px" xmlns="http://www.w3.org/2000/svg">
  <g transform="matrix(1 0 0 1 -317 -257 )">
    <path d="M 4.01543026706231 9.78635014836795  L 9.78635014836795 4.01543026706231  L 12.9744807121662 7.20356083086053  L 7.20356083086053 12.9744807121662  L 4.01543026706231 9.78635014836795  Z M 7.20356083086053 14.0741839762611  C 7.38516320474778 14.0741839762611  7.53649851632048 14.013649851632  7.65756676557863 13.8925816023739  L 13.8925816023739 7.65756676557863  C 14.0203758654797 7.5297725024728  14.0842729970326 7.3784371909001  14.0842729970326 7.20356083086053  C 14.0842729970326 7.02868447082097  14.0203758654797 6.87734915924827  13.8925816023739 6.74955489614243  L 10.2403560830861 3.0973293768546  C 10.1192878338279 2.97626112759644  9.96795252225519 2.91572700296736  9.78635014836795 2.91572700296736  C 9.60474777448071 2.91572700296736  9.45341246290801 2.97626112759644  9.33234421364985 3.0973293768546  L 3.0973293768546 9.33234421364985  C 2.96953511374876 9.46013847675569  2.90563798219585 9.61147378832839  2.90563798219585 9.78635014836795  C 2.90563798219585 9.96122650840752  2.96953511374876 10.1125618199802  3.0973293768546 10.2403560830861  L 6.74955489614243 13.8925816023739  C 6.87062314540059 14.013649851632  7.02195845697329 14.0741839762611  7.20356083086053 14.0741839762611  Z M 17 6.55281899109792  C 17 6.91266073194857  16.875568743818 7.21701285855588  16.626706231454 7.46587537091988  L 7.47596439169139 16.626706231454  C 7.2271018793274 16.875568743818  6.92274975272008 17  6.56290801186944 17  C 6.20306627101879 17  5.89871414441147 16.875568743818  5.64985163204748 16.626706231454  L 4.3786350148368 15.3554896142433  C 4.75529179030663 14.9788328387735  4.94362017804154 14.5214638971316  4.94362017804154 13.9833827893175  C 4.94362017804154 13.4453016815035  4.75529179030663 12.9879327398615  4.3786350148368 12.6112759643917  C 4.00197823936696 12.2346191889219  3.54460929772503 12.0462908011869  3.00652818991098 12.0462908011869  C 2.46844708209693 12.0462908011869  2.011078140455 12.2346191889219  1.63442136498516 12.6112759643917  L 0.373293768545994 11.340059347181  C 0.124431256181998 11.091196834817  0 10.7868447082097  0 10.427002967359  C 0 10.0671612265084  0.124431256181998 9.76280909990109  0.373293768545994 9.51394658753709  L 9.5240356083086 0.373293768545995  C 9.7728981206726 0.124431256181997  10.0772502472799 0  10.4370919881306 0  C 10.7969337289812 0  11.1012858555885 0.124431256181997  11.3501483679525 0.373293768545995  L 12.6112759643917 1.63442136498516  C 12.2346191889219 2.01107814045499  12.0462908011869 2.46844708209693  12.0462908011869 3.00652818991098  C 12.0462908011869 3.54460929772502  12.2346191889219 4.00197823936696  12.6112759643917 4.3786350148368  C 12.9879327398615 4.75529179030663  13.4453016815035 4.94362017804154  13.9833827893175 4.94362017804154  C 14.5214638971316 4.94362017804154  14.9788328387735 4.75529179030663  15.3554896142433 4.3786350148368  L 16.626706231454 5.63976261127596  C 16.875568743818 5.88862512363996  17 6.19297725024728  17 6.55281899109792  Z " fill-rule="nonzero" fill="#000000" stroke="none" transform="matrix(1 0 0 1 317 257 )" />
  </g>
</svg>