<?xml version="1.0" encoding="utf-8"?>
<svg version="1.1" xmlns:xlink="http://www.w3.org/1999/xlink" width="40px" height="40px" xmlns="http://www.w3.org/2000/svg">
  <defs>
    <filter x="147px" y="58px" width="40px" height="40px" filterUnits="userSpaceOnUse" id="filter5">
      <feOffset dx="1" dy="1" in="SourceAlpha" result="shadowOffsetInner" />
      <feGaussianBlur stdDeviation="2.5" in="shadowOffsetInner" result="shadowGaussian" />
      <feComposite in2="shadowGaussian" operator="atop" in="SourceAlpha" result="shadowComposite" />
      <feColorMatrix type="matrix" values="0 0 0 0 0  0 0 0 0 0  0 0 0 0 0  0 0 0 0.698039215686274 0  " in="shadowComposite" />
    </filter>
    <g id="widget6">
      <path d="M 166 62  C 174.4 62  181 68.6  181 77  C 181 85.4  174.4 92  166 92  C 157.6 92  151 85.4  151 77  C 151 68.6  157.6 62  166 62  Z " fill-rule="nonzero" fill="#f2f2f2" stroke="none" />
      <path d="M 166 62.5  C 174.12 62.5  180.5 68.88  180.5 77  C 180.5 85.12  174.12 91.5  166 91.5  C 157.88 91.5  151.5 85.12  151.5 77  C 151.5 68.88  157.88 62.5  166 62.5  Z " stroke-width="1" stroke="#ffffff" fill="none" />
    </g>
  </defs>
  <g transform="matrix(1 0 0 1 -147 -58 )">
    <use xlink:href="#widget6" filter="url(#filter5)" />
    <use xlink:href="#widget6" />
  </g>
</svg>