<?xml version="1.0" encoding="utf-8"?>
<svg version="1.1" xmlns:xlink="http://www.w3.org/1999/xlink" width="33px" height="26px" xmlns="http://www.w3.org/2000/svg">
  <g transform="matrix(1 0 0 1 -421 -448 )">
    <path d="M 13.578125 14.7265625  C 13.8168402777778 14.2139136904762  14.2178819444444 13.9479166666667  14.78125 13.9285714285714  C 14.2178819444444 13.9092261904762  13.8168402777778 13.6432291666667  13.578125 13.1305803571429  C 13.4157986111111 12.8017113095238  13.1866319444444 12.54296875  12.890625 12.3543526785714  C 12.5946180555556 12.1657366071429  12.2699652777778 12.0714285714286  11.9166666666667 12.0714285714286  C 11.4105902777778 12.0714285714286  10.978515625 12.2527901785714  10.6204427083333 12.6155133928571  C 10.2623697916667 12.9782366071429  10.0833333333333 13.4159226190476  10.0833333333333 13.9285714285714  C 10.0833333333333 14.4702380952381  10.2552083333333 14.9006696428571  10.5989583333333 15.2198660714286  L 10.7421875 15.3359375  C 11.0668402777778 15.6357886904762  11.4583333333333 15.7857142857143  11.9166666666667 15.7857142857143  C 12.2699652777778 15.7857142857143  12.5946180555556 15.69140625  12.890625 15.5027901785714  C 13.1866319444444 15.3141741071429  13.4157986111111 15.055431547619  13.578125 14.7265625  Z M 22.3795572916667 13.3844866071429  C 22.7376302083333 13.0217633928571  22.9166666666667 12.5840773809524  22.9166666666667 12.0714285714286  C 22.9166666666667 11.5297619047619  22.7447916666667 11.0993303571429  22.4010416666667 10.7801339285714  L 22.2578125 10.6640625  C 21.9331597222222 10.3642113095238  21.5416666666667 10.2142857142857  21.0833333333333 10.2142857142857  C 20.7300347222222 10.2142857142857  20.4053819444444 10.30859375  20.109375 10.4972098214286  C 19.8133680555556 10.6858258928571  19.5842013888889 10.944568452381  19.421875 11.2734375  C 19.1831597222222 11.7860863095238  18.7821180555556 12.0520833333333  18.21875 12.0714285714286  C 18.7821180555556 12.0907738095238  19.1831597222222 12.3567708333333  19.421875 12.8694196428571  C 19.5842013888889 13.1982886904762  19.8133680555556 13.45703125  20.109375 13.6456473214286  C 20.4053819444444 13.8342633928571  20.7300347222222 13.9285714285714  21.0833333333333 13.9285714285714  C 21.5894097222222 13.9285714285714  22.021484375 13.7472098214286  22.3795572916667 13.3844866071429  Z M 16.88671875 7.79854910714286  C 17.0108506944444 8.16127232142857  16.9869791666667 8.51674107142857  16.8151041666667 8.86495535714286  C 16.6527777777778 9.20349702380952  16.3901909722222 9.43563988095238  16.02734375 9.56138392857143  C 15.6644965277778 9.68712797619047  15.3159722222222 9.66778273809524  14.9817708333333 9.50334821428572  C 14.3897569444444 9.20349702380952  13.75 9.05357142857143  13.0625 9.05357142857143  C 12.5755208333333 9.05357142857143  12.1028645833333 9.13578869047619  11.64453125 9.30022321428572  C 11.6731770833333 9.30022321428572  11.7185329861111 9.29780505952381  11.7805989583333 9.29296875  C 11.8426649305556 9.28813244047619  11.8880208333333 9.28571428571428  11.9166666666667 9.28571428571428  C 12.7951388888889 9.28571428571428  13.6091579861111 9.52752976190476  14.3587239583333 10.0111607142857  C 15.1082899305556 10.4947916666667  15.6740451388889 11.1380208333333  16.0559895833333 11.9408482142857  C 16.2183159722222 12.2890625  16.2350260416667 12.64453125  16.1061197916667 13.0072544642857  C 15.9772135416667 13.3699776785714  15.7408854166667 13.633556547619  15.3971354166667 13.7979910714286  C 15.2252604166667 13.8850446428571  15.0390625 13.9285714285714  14.8385416666667 13.9285714285714  C 15.0390625 13.9285714285714  15.2252604166667 13.9720982142857  15.3971354166667 14.0591517857143  C 15.7408854166667 14.2235863095238  15.9772135416667 14.4871651785714  16.1061197916667 14.8498883928571  C 16.2350260416667 15.2126116071429  16.2183159722222 15.5680803571429  16.0559895833333 15.9162946428571  C 15.6740451388889 16.7191220238095  15.1082899305556 17.3623511904762  14.3587239583333 17.8459821428571  C 13.6091579861111 18.3296130952381  12.7951388888889 18.5714285714286  11.9166666666667 18.5714285714286  L 11.8307291666667 18.5714285714286  C 11.6779513888889 18.5520833333333  11.4678819444444 18.5327380952381  11.2005208333333 18.5133928571429  L 7.046875 18.1216517857143  L 3.62369791666667 19.8627232142857  C 3.49001736111111 19.930431547619  3.3515625 19.9642857142857  3.20833333333333 19.9642857142857  C 2.82638888888889 19.9642857142857  2.55425347222222 19.7950148809524  2.39192708333333 19.4564732142857  L 0.100260416666667 14.8136160714286  C -0.00477430555555556 14.5911458333333  -0.0238715277777778 14.3614211309524  0.04296875 14.1244419642857  C 0.109809027777778 13.887462797619  0.248263888888889 13.7061011904762  0.458333333333333 13.5803571428571  L 3.45182291666667 11.8537946428571  L 5.57161458333333 7.97991071428572  C 5.73394097222222 6.48065476190476  6.17078993055556 5.07087053571428  6.88216145833333 3.75055803571428  C 7.59353298611111 2.43024553571428  8.52690972222222 1.28645833333333  9.68229166666667 0.319196428571428  C 9.97829861111111 0.0773809523809492  10.3148871527778 -0.0265997023809521  10.6920572916667 0.00725446428571552  C 11.0692274305556 0.0411086309523803  11.3771701388889 0.207961309523808  11.6158854166667 0.5078125  C 11.8546006944444 0.807663690476189  11.9572482638889 1.14620535714286  11.923828125 1.5234375  C 11.8904079861111 1.90066964285714  11.7256944444444 2.21502976190476  11.4296875 2.46651785714286  C 10.7612847222222 3.03720238095238  10.2026909722222 3.65625  9.75390625 4.32366071428572  C 10.9283854166667 3.51116071428572  12.203125 3.02269345238095  13.578125 2.85825892857143  C 13.9600694444444 2.80989583333333  14.3014322916667 2.90178571428572  14.6022135416667 3.13392857142857  C 14.9029947916667 3.36607142857143  15.0724826388889 3.67559523809524  15.1106770833333 4.0625  C 15.1584201388889 4.44940476190476  15.0677083333333 4.79520089285714  14.8385416666667 5.09988839285714  C 14.609375 5.40457589285714  14.3038194444444 5.57626488095238  13.921875 5.61495535714286  C 13.1197916666667 5.71168154761904  12.3606770833333 5.97767857142857  11.64453125 6.41294642857143  C 12.0837673611111 6.31622023809524  12.5564236111111 6.26785714285714  13.0625 6.26785714285714  C 14.1605902777778 6.26785714285714  15.2013888888889 6.50967261904762  16.1848958333333 6.99330357142857  C 16.5286458333333 7.16741071428572  16.7625868055556 7.43582589285714  16.88671875 7.79854910714286  Z M 29.7916666666667 6.03571428571428  C 30.1736111111111 6.03571428571428  30.4457465277778 6.20498511904762  30.6080729166667 6.54352678571428  L 32.8997395833333 11.1863839285714  C 33.0047743055556 11.4088541666667  33.0238715277778 11.6385788690476  32.95703125 11.8755580357143  C 32.8901909722222 12.112537202381  32.7517361111111 12.2938988095238  32.5416666666667 12.4196428571429  L 29.5481770833333 14.1462053571429  L 27.4283854166667 18.0200892857143  C 27.2660590277778 19.5193452380952  26.8292100694444 20.9291294642857  26.1178385416667 22.2494419642857  C 25.4064670138889 23.5697544642857  24.4730902777778 24.7135416666667  23.3177083333333 25.6808035714286  C 23.0694444444444 25.8936011904762  22.7782118055556 26  22.4440104166667 26  C 22.0143229166667 26  21.6610243055556 25.8307291666667  21.3841145833333 25.4921875  C 21.1453993055556 25.1923363095238  21.0427517361111 24.8537946428571  21.076171875 24.4765625  C 21.1095920138889 24.0993303571429  21.2743055555556 23.7849702380952  21.5703125 23.5334821428571  C 22.2387152777778 22.9627976190476  22.7973090277778 22.34375  23.24609375 21.6763392857143  C 22.0716145833333 22.4888392857143  20.796875 22.977306547619  19.421875 23.1417410714286  C 19.3836805555556 23.1514136904762  19.3263888888889 23.15625  19.25 23.15625  C 18.90625 23.15625  18.6030815972222 23.0401785714286  18.3404947916667 22.8080357142857  C 18.0779079861111 22.5758928571429  17.9275173611111 22.2857142857143  17.8893229166667 21.9375  C 17.8415798611111 21.5505952380952  17.9322916666667 21.2047991071429  18.1614583333333 20.9001116071429  C 18.390625 20.5954241071429  18.6961805555556 20.4237351190476  19.078125 20.3850446428571  C 19.8802083333333 20.288318452381  20.6393229166667 20.0223214285714  21.35546875 19.5870535714286  C 20.9162326388889 19.6837797619048  20.4435763888889 19.7321428571429  19.9375 19.7321428571429  C 18.8394097222222 19.7321428571429  17.7986111111111 19.4903273809524  16.8151041666667 19.0066964285714  C 16.4713541666667 18.8325892857143  16.2374131944444 18.5641741071429  16.11328125 18.2014508928571  C 15.9891493055556 17.8387276785714  16.0130208333333 17.4832589285714  16.1848958333333 17.1350446428571  C 16.3472222222222 16.7965029761905  16.6098090277778 16.5643601190476  16.97265625 16.4386160714286  C 17.3355034722222 16.3128720238095  17.6840277777778 16.3322172619048  18.0182291666667 16.4966517857143  C 18.6102430555556 16.7965029761905  19.25 16.9464285714286  19.9375 16.9464285714286  C 20.4244791666667 16.9464285714286  20.8971354166667 16.8642113095238  21.35546875 16.6997767857143  C 21.3268229166667 16.6997767857143  21.2814670138889 16.7021949404762  21.2194010416667 16.70703125  C 21.1573350694444 16.7118675595238  21.1119791666667 16.7142857142857  21.0833333333333 16.7142857142857  C 20.2048611111111 16.7142857142857  19.3908420138889 16.4724702380952  18.6412760416667 15.9888392857143  C 17.8917100694444 15.5052083333333  17.3259548611111 14.8619791666667  16.9440104166667 14.0591517857143  C 16.7816840277778 13.7109375  16.7649739583333 13.35546875  16.8938802083333 12.9927455357143  C 17.0227864583333 12.6300223214286  17.2591145833333 12.366443452381  17.6028645833333 12.2020089285714  C 17.7747395833333 12.1149553571429  17.9609375 12.0714285714286  18.1614583333333 12.0714285714286  C 17.9609375 12.0714285714286  17.7747395833333 12.0279017857143  17.6028645833333 11.9408482142857  C 17.2591145833333 11.7764136904762  17.0227864583333 11.5128348214286  16.8938802083333 11.1501116071429  C 16.7649739583333 10.7873883928571  16.7816840277778 10.4319196428571  16.9440104166667 10.0837053571429  C 17.3259548611111 9.28087797619047  17.8917100694444 8.63764880952381  18.6412760416667 8.15401785714286  C 19.3908420138889 7.6703869047619  20.2048611111111 7.42857142857143  21.0833333333333 7.42857142857143  L 21.1692708333333 7.42857142857143  L 21.18359375 7.42857142857143  C 21.3172743055556 7.44791666666666  21.5177951388889 7.4672619047619  21.78515625 7.48660714285714  L 25.953125 7.87834821428572  L 29.3763020833333 6.13727678571428  C 29.5099826388889 6.06956845238095  29.6484375 6.03571428571428  29.7916666666667 6.03571428571428  Z " fill-rule="nonzero" fill="#000000" stroke="none" transform="matrix(1 0 0 1 421 448 )" />
  </g>
</svg>