<?xml version="1.0" encoding="utf-8"?>
<svg version="1.1" xmlns:xlink="http://www.w3.org/1999/xlink" width="40px" height="40px" xmlns="http://www.w3.org/2000/svg">
  <defs>
    <filter x="481px" y="442px" width="40px" height="40px" filterUnits="userSpaceOnUse" id="filter1">
      <feOffset dx="1" dy="1" in="SourceAlpha" result="shadowOffsetInner" />
      <feGaussianBlur stdDeviation="2.5" in="shadowOffsetInner" result="shadowGaussian" />
      <feComposite in2="shadowGaussian" operator="atop" in="SourceAlpha" result="shadowComposite" />
      <feColorMatrix type="matrix" values="0 0 0 0 0  0 0 0 0 0  0 0 0 0 0  0 0 0 0.698039215686274 0  " in="shadowComposite" />
    </filter>
    <g id="widget2">
      <path d="M 500 446  C 508.4 446  515 452.6  515 461  C 515 469.4  508.4 476  500 476  C 491.6 476  485 469.4  485 461  C 485 452.6  491.6 446  500 446  Z " fill-rule="nonzero" fill="#7f7f7f" stroke="none" />
      <path d="M 500 446.5  C 508.12 446.5  514.5 452.88  514.5 461  C 514.5 469.12  508.12 475.5  500 475.5  C 491.88 475.5  485.5 469.12  485.5 461  C 485.5 452.88  491.88 446.5  500 446.5  Z " stroke-width="1" stroke="#ffffff" fill="none" />
    </g>
  </defs>
  <g transform="matrix(1 0 0 1 -481 -442 )">
    <use xlink:href="#widget2" filter="url(#filter1)" />
    <use xlink:href="#widget2" />
  </g>
</svg>