<?xml version="1.0" encoding="utf-8"?>
<svg version="1.1" xmlns:xlink="http://www.w3.org/1999/xlink" width="15px" height="15px" xmlns="http://www.w3.org/2000/svg">
  <g transform="matrix(1 0 0 1 -891 -2277 )">
    <path d="M 898.5 2277  C 902.7 2277  906 2280.3  906 2284.5  C 906 2288.7  902.7 2292  898.5 2292  C 894.3 2292  891 2288.7  891 2284.5  C 891 2280.3  894.3 2277  898.5 2277  Z " fill-rule="nonzero" fill="#ffaa13" stroke="none" />
    <path d="M 898.5 2277.5  C 902.42 2277.5  905.5 2280.58  905.5 2284.5  C 905.5 2288.42  902.42 2291.5  898.5 2291.5  C 894.58 2291.5  891.5 2288.42  891.5 2284.5  C 891.5 2280.58  894.58 2277.5  898.5 2277.5  Z " stroke-width="1" stroke="#797979" fill="none" />
  </g>
</svg>