<?xml version="1.0" encoding="utf-8"?>
<svg version="1.1" xmlns:xlink="http://www.w3.org/1999/xlink" width="40px" height="40px" xmlns="http://www.w3.org/2000/svg">
  <g transform="matrix(1 0 0 1 -598 -502 )">
    <path d="M 618 502  C 629.2 502  638 510.8  638 522  C 638 533.2  629.2 542  618 542  C 606.8 542  598 533.2  598 522  C 598 510.8  606.8 502  618 502  Z " fill-rule="nonzero" fill="#aaaaaa" stroke="none" />
    <path d="M 618 502.5  C 628.92 502.5  637.5 511.08  637.5 522  C 637.5 532.92  628.92 541.5  618 541.5  C 607.08 541.5  598.5 532.92  598.5 522  C 598.5 511.08  607.08 502.5  618 502.5  Z " stroke-width="1" stroke="#797979" fill="none" />
  </g>
</svg>