<?xml version="1.0" encoding="utf-8"?>
<svg version="1.1" xmlns:xlink="http://www.w3.org/1999/xlink" width="47px" height="47px" xmlns="http://www.w3.org/2000/svg">
  <g transform="matrix(1 0 0 1 -770 -266 )">
    <path d="M 793.5 266  C 806.66 266  817 276.34  817 289.5  C 817 302.66  806.66 313  793.5 313  C 780.34 313  770 302.66  770 289.5  C 770 276.34  780.34 266  793.5 266  Z " fill-rule="nonzero" fill="#aaaaaa" stroke="none" />
    <path d="M 793.5 266.5  C 806.38 266.5  816.5 276.62  816.5 289.5  C 816.5 302.38  806.38 312.5  793.5 312.5  C 780.62 312.5  770.5 302.38  770.5 289.5  C 770.5 276.62  780.62 266.5  793.5 266.5  Z " stroke-width="1" stroke="#797979" fill="none" />
  </g>
</svg>