<?xml version="1.0" encoding="utf-8"?>
<svg version="1.1" xmlns:xlink="http://www.w3.org/1999/xlink" width="18px" height="18px" xmlns="http://www.w3.org/2000/svg">
  <g transform="matrix(1 0 0 1 -512 -513 )">
    <path d="M 521 514  C 525.48 514  529 517.52  529 522  C 529 526.48  525.48 530  521 530  C 516.52 530  513 526.48  513 522  C 513 517.52  516.52 514  521 514  Z " fill-rule="nonzero" fill="#ffffff" stroke="none" fill-opacity="0.2" />
    <path d="M 521 514  C 525.48 514  529 517.52  529 522  C 529 526.48  525.48 530  521 530  C 516.52 530  513 526.48  513 522  C 513 517.52  516.52 514  521 514  Z " stroke-width="2" stroke="#000000" fill="none" />
  </g>
</svg>