<?xml version="1.0" encoding="utf-8"?>
<svg version="1.1" xmlns:xlink="http://www.w3.org/1999/xlink" width="21px" height="21px" xmlns="http://www.w3.org/2000/svg">
  <g transform="matrix(1 0 0 1 -515 -870 )">
    <path d="M 525.5 870  C 531.38 870  536 874.62  536 880.5  C 536 886.38  531.38 891  525.5 891  C 519.62 891  515 886.38  515 880.5  C 515 874.62  519.62 870  525.5 870  Z " fill-rule="nonzero" fill="#ffffff" stroke="none" />
    <path d="M 525.5 870.5  C 531.1 870.5  535.5 874.9  535.5 880.5  C 535.5 886.1  531.1 890.5  525.5 890.5  C 519.9 890.5  515.5 886.1  515.5 880.5  C 515.5 874.9  519.9 870.5  525.5 870.5  Z " stroke-width="1" stroke="#797979" fill="none" />
  </g>
</svg>