<?xml version="1.0" encoding="utf-8"?>
<svg version="1.1" xmlns:xlink="http://www.w3.org/1999/xlink" width="16px" height="33px" xmlns="http://www.w3.org/2000/svg">
  <g transform="matrix(1 0 0 1 -414 -346 )">
    <path d="M 15.725085910653 15.7394789579158  C 15.9083619702176 15.9599198396793  16 16.2134268537074  16 16.5  C 16 16.7865731462926  15.9083619702176 17.0400801603207  15.725085910653 17.2605210420842  L 2.91408934707897 32.6693386773547  C 2.73081328751437 32.8897795591182  2.52004581901497 33  2.28178694158078 33  C 2.04352806414659 33  1.83276059564719 32.8897795591182  1.64948453608258 32.6693386773547  L 0.274914089347021 31.0160320641283  C 0.0916380297824162 30.7955911823647  0 30.5420841683367  0 30.2555110220441  C 0 29.9689378757515  0.0916380297824162 29.7154308617235  0.274914089347021 29.4949899799599  L 11.0790378006873 16.5  L 0.274914089347021 3.50501002004009  C 0.0916380297824162 3.28456913827654  0 3.03106212424848  0 2.74448897795594  C 0 2.45791583166334  0.0916380297824162 2.20440881763528  0.274914089347021 1.98396793587173  L 1.64948453608258 0.330661322645284  C 1.83276059564719 0.110220440881761  2.04352806414659 0  2.28178694158078 0  C 2.52004581901497 0  2.73081328751437 0.110220440881761  2.91408934707897 0.330661322645284  L 15.725085910653 15.7394789579158  Z " fill-rule="nonzero" fill="#000000" stroke="none" transform="matrix(1 0 0 1 414 346 )" />
  </g>
</svg>