<?xml version="1.0" encoding="utf-8"?>
<svg version="1.1" xmlns:xlink="http://www.w3.org/1999/xlink" width="28px" height="22px" xmlns="http://www.w3.org/2000/svg">
  <g transform="matrix(1 0 0 1 -57 -203 )">
    <path d="M 71 203  C 78.84 203  85 207.84  85 214  C 85 220.16  78.84 225  71 225  C 63.16 225  57 220.16  57 214  C 57 207.84  63.16 203  71 203  Z " fill-rule="nonzero" fill="#199ed8" stroke="none" />
    <path d="M 71 203.5  C 78.56 203.5  84.5 208.12  84.5 214  C 84.5 219.88  78.56 224.5  71 224.5  C 63.44 224.5  57.5 219.88  57.5 214  C 57.5 208.12  63.44 203.5  71 203.5  Z " stroke-width="1" stroke="#797979" fill="none" />
  </g>
</svg>