<?xml version="1.0" encoding="utf-8"?>
<svg version="1.1" xmlns:xlink="http://www.w3.org/1999/xlink" width="28px" height="22px" xmlns="http://www.w3.org/2000/svg">
  <g transform="matrix(1 0 0 1 -146 -203 )">
    <path d="M 160 203  C 167.84 203  174 207.84  174 214  C 174 220.16  167.84 225  160 225  C 152.16 225  146 220.16  146 214  C 146 207.84  152.16 203  160 203  Z " fill-rule="nonzero" fill="#00ccff" stroke="none" />
    <path d="M 160 203.5  C 167.56 203.5  173.5 208.12  173.5 214  C 173.5 219.88  167.56 224.5  160 224.5  C 152.44 224.5  146.5 219.88  146.5 214  C 146.5 208.12  152.44 203.5  160 203.5  Z " stroke-width="1" stroke="#797979" fill="none" />
  </g>
</svg>