<?xml version="1.0" encoding="utf-8"?>
<svg version="1.1" xmlns:xlink="http://www.w3.org/1999/xlink" width="5px" height="5px" xmlns="http://www.w3.org/2000/svg">
  <g transform="matrix(1 0 0 1 -234 -92 )">
    <path d="M 236.5 92  C 237.9 92  239 93.1  239 94.5  C 239 95.9  237.9 97  236.5 97  C 235.1 97  234 95.9  234 94.5  C 234 93.1  235.1 92  236.5 92  Z " fill-rule="nonzero" fill="#ff0000" stroke="none" />
    <path d="M 236.5 92.5  C 237.62 92.5  238.5 93.38  238.5 94.5  C 238.5 95.62  237.62 96.5  236.5 96.5  C 235.38 96.5  234.5 95.62  234.5 94.5  C 234.5 93.38  235.38 92.5  236.5 92.5  Z " stroke-width="1" stroke="#797979" fill="none" />
  </g>
</svg>