<?xml version="1.0" encoding="utf-8"?>
<svg version="1.1" xmlns:xlink="http://www.w3.org/1999/xlink" width="77px" height="61px" xmlns="http://www.w3.org/2000/svg">
  <g transform="matrix(1 0 0 1 -1303 -687 )">
    <path d="M 1303 687  L 1380 687  L 1380 748  L 1303 748  L 1303 687  " fill-rule="nonzero" fill="#cccccc" stroke="none" />
    <path d="M 1307 691  L 1376 691  L 1376 744  L 1307 744  L 1307 691  " fill-rule="nonzero" fill="#ffffff" stroke="none" />
    <path d="M 1347.615 705.3  C 1345.053 705.3  1343.04 703.287  1343.04 700.725  C 1343.04 698.163  1345.053 696.15  1347.615 696.15  C 1350.177 696.15  1352.19 698.163  1352.19 700.725  C 1352.19 703.287  1350.177 705.3  1347.615 705.3  " fill-rule="nonzero" fill="#cccccc" stroke="none" />
    <path d="M 1309 743  L 1309 715.5  L 1325.5 703  L 1348.6 719.233766233766  L 1361.8 710.5  L 1375 719.233766233766  L 1375 743  L 1309 743  " fill-rule="nonzero" fill="#169bd5" stroke="none" />
  </g>
</svg>