<?xml version="1.0" encoding="utf-8"?>
<svg version="1.1" xmlns:xlink="http://www.w3.org/1999/xlink" width="36px" height="32px" xmlns="http://www.w3.org/2000/svg">
  <g transform="matrix(1 0 0 1 -1218 -1157 )">
    <path d="M 1236 1157  C 1246.08 1157  1254 1164.04  1254 1173  C 1254 1181.96  1246.08 1189  1236 1189  C 1225.92 1189  1218 1181.96  1218 1173  C 1218 1164.04  1225.92 1157  1236 1157  Z " fill-rule="nonzero" fill="#199ed8" stroke="none" />
    <path d="M 1236 1157.5  C 1245.8 1157.5  1253.5 1164.32  1253.5 1173  C 1253.5 1181.68  1245.8 1188.5  1236 1188.5  C 1226.2 1188.5  1218.5 1181.68  1218.5 1173  C 1218.5 1164.32  1226.2 1157.5  1236 1157.5  Z " stroke-width="1" stroke="#797979" fill="none" />
  </g>
</svg>