<?xml version="1.0" encoding="utf-8"?>
<svg version="1.1" xmlns:xlink="http://www.w3.org/1999/xlink" width="10px" height="15px" preserveAspectRatio="xMidYMin meet" viewBox="1835 905  8 15" xmlns="http://www.w3.org/2000/svg">
  <path d="M 951 927  L 1015 927  A 5 5 0 0 0 1020 922 L 1020 915  A 5 5 0 0 1 1025 910 L 1362 910  A 3 3 0 0 1 1365 907 A 3 3 0 0 1 1368 910 L 1623 910  A 3 3 0 0 1 1626 907 A 3 3 0 0 1 1629 910 L 1834 910  A 5 5 0 0 1 1839 915 " stroke-width="2" stroke="#0099cc" fill="none" />
  <path d="M 1831.4 913  L 1839 920  L 1846.6 913  L 1831.4 913  Z " fill-rule="nonzero" fill="#0099cc" stroke="none" />
</svg>