<?xml version="1.0" encoding="utf-8"?>
<svg version="1.1" xmlns:xlink="http://www.w3.org/1999/xlink" width="62px" height="70px" xmlns="http://www.w3.org/2000/svg">
  <g transform="matrix(1 0 0 1 -2290 -586 )">
    <path d="M 2290 586  L 2352 586  L 2352 656  L 2290 656  L 2290 586  " fill-rule="nonzero" fill="#cccccc" stroke="none" />
    <path d="M 2294 590  L 2348 590  L 2348 652  L 2294 652  L 2294 590  " fill-rule="nonzero" fill="#ffffff" stroke="none" />
    <path d="M 2326.89 605.8  C 2324.286 605.8  2322.24 603.754  2322.24 601.15  C 2322.24 598.546  2324.286 596.5  2326.89 596.5  C 2329.494 596.5  2331.54 598.546  2331.54 601.15  C 2331.54 603.754  2329.494 605.8  2326.89 605.8  " fill-rule="nonzero" fill="#cccccc" stroke="none" />
    <path d="M 2296 651  L 2296 618.55  L 2308.75 603.8  L 2326.6 615.6  L 2336.8 612.65  L 2347 615.6  L 2347 651  L 2296 651  " fill-rule="nonzero" fill="#169bd5" stroke="none" />
  </g>
</svg>