<?xml version="1.0" encoding="utf-8"?>
<svg version="1.1" xmlns:xlink="http://www.w3.org/1999/xlink" width="1029.61538461538px" height="10px" preserveAspectRatio="xMinYMid meet" viewBox="390.384615384615 36  1029.61538461538 8" xmlns="http://www.w3.org/2000/svg">
  <path d="M 364 294  L 390.384615384615 294  A 5 5 0 0 0 395.384615384615 289 L 395.384615384615 269  A 3 3 0 0 0 398.384615384615 266 A 3 3 0 0 0 395.384615384615 263 L 395.384615384615 215.307692307692  A 3 3 0 0 0 398.384615384615 212.307692307692 A 3 3 0 0 0 395.384615384615 209.307692307692 L 395.384615384615 45  A 5 5 0 0 1 400.384615384615 40 L 1414 40  " stroke-width="2" stroke="#0000ff" fill="none" />
  <path d="M 1413 47.6  L 1420 40  L 1413 32.4  L 1413 47.6  Z " fill-rule="nonzero" fill="#0000ff" stroke="none" />
</svg>