<?xml version="1.0" encoding="utf-8"?>
<svg version="1.1" xmlns:xlink="http://www.w3.org/1999/xlink" width="7px" height="9px" xmlns="http://www.w3.org/2000/svg">
  <g transform="matrix(1 0 0 1 -89 -970 )">
    <path d="M 92.5 970  C 94.46 970  96 971.98  96 974.5  C 96 977.02  94.46 979  92.5 979  C 90.54 979  89 977.02  89 974.5  C 89 971.98  90.54 970  92.5 970  Z " fill-rule="nonzero" fill="#666666" stroke="none" />
    <path d="M 92.5 970.5  C 94.18 970.5  95.5 972.26  95.5 974.5  C 95.5 976.74  94.18 978.5  92.5 978.5  C 90.82 978.5  89.5 976.74  89.5 974.5  C 89.5 972.26  90.82 970.5  92.5 970.5  Z " stroke-width="1" stroke="#797979" fill="none" />
  </g>
</svg>