<?xml version="1.0" encoding="utf-8"?>
<svg version="1.1" xmlns:xlink="http://www.w3.org/1999/xlink" width="20px" height="20px" preserveAspectRatio="xMinYMid meet" viewBox="2259 902  20 18" xmlns="http://www.w3.org/2000/svg">
  <path d="M 1761 127  L 1791.92307692308 127  A 5 5 0 0 1 1796.92307692308 132 L 1796.92307692308 306  A 3 3 0 0 1 1799.92307692308 309 A 3 3 0 0 1 1796.92307692308 312 L 1796.92307692308 519.615384615385  A 5 5 0 0 0 1801.92307692308 524.615384615385 L 2078.07692307692 524.615384615385  A 5 5 0 0 1 2083.07692307692 529.615384615385 L 2083.07692307692 906  A 5 5 0 0 0 2088.07692307692 911 L 2268 911  " stroke-width="2" stroke="#0000ff" fill="none" />
  <path d="M 2267 918.6  L 2274 911  L 2267 903.4  L 2267 918.6  Z " fill-rule="nonzero" fill="#0000ff" stroke="none" />
</svg>