<?xml version="1.0" encoding="utf-8"?>
<svg version="1.1" xmlns:xlink="http://www.w3.org/1999/xlink" width="97px" height="70px" xmlns="http://www.w3.org/2000/svg">
  <g transform="matrix(1 0 0 1 -250 -970 )">
    <path d="M 250 970  L 347 970  L 347 1040  L 250 1040  L 250 970  " fill-rule="nonzero" fill="#cccccc" stroke="none" />
    <path d="M 255 975  L 342 975  L 342 1035  L 255 1035  L 255 975  " fill-rule="nonzero" fill="#ffffff" stroke="none" />
    <path d="M 305.69 991  C 302.75 991  300.44 988.69  300.44 985.75  C 300.44 982.81  302.75 980.5  305.69 980.5  C 308.63 980.5  310.94 982.81  310.94 985.75  C 310.94 988.69  308.63 991  305.69 991  " fill-rule="nonzero" fill="#cccccc" stroke="none" />
    <path d="M 257 1033  L 257 1002.2  L 277.75 988.2  L 306.8 1008.75257731959  L 323.4 996.6  L 340 1008.75257731959  L 340 1033  L 257 1033  " fill-rule="nonzero" fill="#169bd5" stroke="none" />
  </g>
</svg>