<?xml version="1.0" encoding="utf-8"?>
<svg version="1.1" xmlns:xlink="http://www.w3.org/1999/xlink" width="66px" height="60px" xmlns="http://www.w3.org/2000/svg">
  <g transform="matrix(1 0 0 1 -179 -1894 )">
    <path d="M 212 1894  C 230.48 1894  245 1907.2  245 1924  C 245 1940.8  230.48 1954  212 1954  C 193.52 1954  179 1940.8  179 1924  C 179 1907.2  193.52 1894  212 1894  Z " fill-rule="nonzero" fill="#ffffff" stroke="none" />
    <path d="M 212 1894.5  C 230.2 1894.5  244.5 1907.48  244.5 1924  C 244.5 1940.52  230.2 1953.5  212 1953.5  C 193.8 1953.5  179.5 1940.52  179.5 1924  C 179.5 1907.48  193.8 1894.5  212 1894.5  Z " stroke-width="1" stroke="#797979" fill="none" />
  </g>
</svg>