<?xml version="1.0" encoding="utf-8"?>
<svg version="1.1" xmlns:xlink="http://www.w3.org/1999/xlink" width="40px" height="50px" xmlns="http://www.w3.org/2000/svg">
  <defs>
    <filter x="177px" y="276px" width="40px" height="50px" filterUnits="userSpaceOnUse" id="filter65">
      <feOffset dx="1" dy="1" in="SourceAlpha" result="shadowOffsetInner" />
      <feGaussianBlur stdDeviation="2.5" in="shadowOffsetInner" result="shadowGaussian" />
      <feComposite in2="shadowGaussian" operator="atop" in="SourceAlpha" result="shadowComposite" />
      <feColorMatrix type="matrix" values="0 0 0 0 0  0 0 0 0 0  0 0 0 0 0  0 0 0 0.698039215686274 0  " in="shadowComposite" />
    </filter>
    <g id="widget66">
      <path d="M 196 319.036928468354  C 190.2 309.40734059591  181.5 303.629587872444  181.5 294  C 181.5 288.985714285714  184.4 280.5  196 280.5  C 207.6 280.5  210.5 288.985714285714  210.5 294  C 210.5 303.629587872444  201.8 309.40734059591  196 319.036928468354  Z " fill-rule="nonzero" fill="#009dd9" stroke="none" />
      <path d="M 196 320  C 190 310  181 304  181 294  C 181 288.8  184 280  196 280  C 208 280  211 288.8  211 294  C 211 304  202 310  196 320  Z M 196 318.073856936707  C 201.6 308.81468119182  210 303.259175744887  210 294  C 210 289.171428571429  207.2 281  196 281  C 184.8 281  182 289.171428571429  182 294  C 182 303.259175744887  190.4 308.81468119182  196 318.073856936707  Z " fill-rule="nonzero" fill="#ffffff" stroke="none" />
    </g>
  </defs>
  <g transform="matrix(1 0 0 1 -177 -276 )">
    <use xlink:href="#widget66" filter="url(#filter65)" />
    <use xlink:href="#widget66" />
  </g>
</svg>