<?xml version="1.0" encoding="utf-8"?>
<svg version="1.1" xmlns:xlink="http://www.w3.org/1999/xlink" width="40px" height="50px" xmlns="http://www.w3.org/2000/svg">
  <defs>
    <mask fill="white" id="clip67">
      <path d="M 30 14  C 30 24  21 30  15 40  C 9.94156746065869 31.5692791010979  2.75082327506186 25.9816403972031  0.618537186833123 18.4432373925667  C 0.221637320742843 17.0400527263101  0 15.5692791010979  0 14  C 0 8.80000000000001  3 0  15 0  C 27 0  30 8.80000000000001  30 14  Z " fill-rule="evenodd" />
    </mask>
    <filter x="607px" y="259px" width="40px" height="50px" filterUnits="userSpaceOnUse" id="filter68">
      <feOffset dx="1" dy="1" in="SourceAlpha" result="shadowOffsetInner" />
      <feGaussianBlur stdDeviation="2.5" in="shadowOffsetInner" result="shadowGaussian" />
      <feComposite in2="shadowGaussian" operator="atop" in="SourceAlpha" result="shadowComposite" />
      <feColorMatrix type="matrix" values="0 0 0 0 0  0 0 0 0 0  0 0 0 0 0  0 0 0 0.698039215686274 0  " in="shadowComposite" />
    </filter>
    <g id="widget69">
      <path d="M 30 14  C 30 24  21 30  15 40  C 9.94156746065869 31.5692791010979  2.75082327506186 25.9816403972031  0.618537186833123 18.4432373925667  C 0.221637320742843 17.0400527263101  0 15.5692791010979  0 14  C 0 8.80000000000001  3 0  15 0  C 27 0  30 8.80000000000001  30 14  Z " fill-rule="nonzero" fill="#009dd9" stroke="none" transform="matrix(1 0 0 1 611 263 )" />
      <path d="M 30 14  C 30 24  21 30  15 40  C 9.94156746065869 31.5692791010979  2.75082327506186 25.9816403972031  0.618537186833123 18.4432373925667  C 0.221637320742843 17.0400527263101  0 15.5692791010979  0 14  C 0 8.80000000000001  3 0  15 0  C 27 0  30 8.80000000000001  30 14  Z " stroke-width="2" stroke="#ffffff" fill="none" transform="matrix(1 0 0 1 611 263 )" mask="url(#clip67)" />
    </g>
  </defs>
  <g transform="matrix(1 0 0 1 -607 -259 )">
    <use xlink:href="#widget69" filter="url(#filter68)" />
    <use xlink:href="#widget69" />
  </g>
</svg>