<?xml version="1.0" encoding="utf-8"?>
<svg version="1.1" xmlns:xlink="http://www.w3.org/1999/xlink" width="21px" height="15px" xmlns="http://www.w3.org/2000/svg">
  <g transform="matrix(1 0 0 1 -2909 -696 )">
    <path d="M 2919.5 696  C 2925.38 696  2930 699.3  2930 703.5  C 2930 707.7  2925.38 711  2919.5 711  C 2913.62 711  2909 707.7  2909 703.5  C 2909 699.3  2913.62 696  2919.5 696  Z " fill-rule="nonzero" fill="#ffaa13" stroke="none" />
    <path d="M 2919.5 696.5  C 2925.1 696.5  2929.5 699.58  2929.5 703.5  C 2929.5 707.42  2925.1 710.5  2919.5 710.5  C 2913.9 710.5  2909.5 707.42  2909.5 703.5  C 2909.5 699.58  2913.9 696.5  2919.5 696.5  Z " stroke-width="1" stroke="#797979" fill="none" />
  </g>
</svg>