<?xml version="1.0" encoding="utf-8"?>
<svg version="1.1" xmlns:xlink="http://www.w3.org/1999/xlink" width="15px" height="12px" xmlns="http://www.w3.org/2000/svg">
  <g transform="matrix(1 0 0 1 -2933 -2655 )">
    <path d="M 6.99551569506727 8.77500000000009  L 7.46636771300447 8.77500000000009  L 8.44170403587445 7.8110795454545  L 7.16367713004485 6.54801136363642  L 6.18834080717488 7.51193181818189  L 6.18834080717488 7.97727272727263  L 6.99551569506727 7.97727272727263  L 6.99551569506727 8.77500000000009  Z M 11.1575112107623 3.0662642045454  C 11.252802690583 2.97208806818185  11.2556053811659 2.88068181818176  11.1659192825112 2.79204545454547  C 11.0762331838565 2.70340909090919  10.9837443946188 2.70617897727277  10.8884529147982 2.80035511363644  L 7.94562780269058 5.70873579545446  C 7.85033632286995 5.80291193181824  7.847533632287 5.89431818181811  7.93721973094171 5.9829545454545  C 8.0269058295964 6.07159090909101  8.11939461883408 6.06882102272721  8.21468609865471 5.97464488636365  L 11.1575112107623 3.0662642045454  Z M 11.670403587444 7.48700284090899  C 11.7825112107623 7.5313210227273  11.8385650224215 7.61164772727284  11.8385650224215 7.7279829545455  L 11.8385650224215 9.30681818181824  C 11.8385650224215 9.96605113636372  11.6017376681614 10.5297230113636  11.1280829596412 10.9978338068181  C 10.6544282511211 11.4659446022728  10.0840807174888 11.6999999999999  9.41704035874439 11.6999999999999  L 2.42152466367712 11.6999999999999  C 1.75448430493275 11.6999999999999  1.18413677130046 11.4659446022728  0.710482062780258 10.9978338068181  C 0.2368273542601 10.5297230113636  0 9.96605113636372  0 9.30681818181824  L 0 2.3931818181818  C 0 1.73394886363644  0.2368273542601 1.17027698863649  0.710482062780258 0.702166193181824  C 1.18413677130046 0.234055397727161  1.75448430493275 0  2.42152466367712 0  L 9.41704035874439 0  C 9.7701793721973 0  10.0980941704036 0.0692471590908781  10.4007847533632 0.207741477272634  C 10.484865470852 0.246519886363558  10.5353139013453 0.310227272727161  10.5521300448431 0.398863636363558  C 10.5689461883408 0.493039772727229  10.5437219730942 0.573366477272771  10.4764573991031 0.639843750000068  L 10.0644618834081 1.0470170454546  C 9.98598654708519 1.12457386363644  9.89630044843049 1.14673295454554  9.79540358744396 1.11349431818189  C 9.6664798206278 1.08025568181824  9.54035874439461 1.06363636363642  9.41704035874439 1.06363636363642  L 2.42152466367712 1.06363636363642  C 2.05156950672645 1.06363636363642  1.73486547085203 1.19382102272721  1.47141255605381 1.45419034090912  C 1.2079596412556 1.71455965909081  1.07623318385652 2.02755681818189  1.07623318385652 2.3931818181818  L 1.07623318385652 9.30681818181824  C 1.07623318385652 9.67244318181815  1.2079596412556 9.98544034090912  1.47141255605381 10.2458096590908  C 1.73486547085203 10.5061789772728  2.05156950672645 10.6363636363637  2.42152466367712 10.6363636363637  L 9.41704035874439 10.6363636363637  C 9.78699551569505 10.6363636363637  10.1036995515695 10.5061789772728  10.3671524663677 10.2458096590908  C 10.6306053811659 9.98544034090912  10.762331838565 9.67244318181815  10.762331838565 9.30681818181824  L 10.762331838565 8.25980113636365  C 10.762331838565 8.18778409090919  10.7875560538117 8.12684659090905  10.8380044843049 8.07698863636358  L 11.3761210762332 7.54517045454554  C 11.460201793722 7.46207386363642  11.5582959641256 7.44268465909101  11.670403587444 7.48700284090899  Z M 5.38116591928252 7.1795454545454  L 11.0313901345292 1.59545454545446  L 13.4529147982063 3.98863636363649  L 7.80269058295963 9.57272727272721  L 5.38116591928252 9.57272727272721  L 5.38116591928252 7.1795454545454  Z M 15 2.12727272727284  C 15 2.34886363636372  14.9215246636771 2.53721590909095  14.7645739910314 2.69232954545453  L 13.9910313901345 3.45681818181811  L 11.5695067264574 1.06363636363642  L 12.3430493273543 0.299147727272839  C 12.5 0.144034090909145  12.6905829596413 0.0664772727272975  12.914798206278 0.0664772727272975  C 13.1390134529148 0.0664772727272975  13.329596412556 0.144034090909145  13.4865470852018 0.299147727272839  L 14.7645739910314 1.56221590909081  C 14.9215246636771 1.7173295454545  15 1.90568181818185  15 2.12727272727284  Z " fill-rule="nonzero" fill="#000000" stroke="none" transform="matrix(1 0 0 1 2933 2655 )" />
  </g>
</svg>