<?xml version="1.0" encoding="utf-8"?>
<svg version="1.1" xmlns:xlink="http://www.w3.org/1999/xlink" width="47px" height="47px" xmlns="http://www.w3.org/2000/svg">
  <defs>
    <mask fill="white" id="clip30">
      <path d="M 0 23.5  C 0 10.3399999999999  10.3399999999999 0  23.5 0  C 36.6600000000001 0  47 10.3399999999999  47 23.5  C 47 36.6600000000001  36.6600000000001 47  23.5 47  C 22.8361676028935 47  22.1795107396254 46.97368970926  21.5309946283976 46.9220343459824  C 9.32302846469838 45.9495347541279  0 35.9960894404319  0 23.5  Z " fill-rule="evenodd" />
    </mask>
  </defs>
  <g transform="matrix(1 0 0 1 -1085 -1082 )">
    <path d="M 0 23.5  C 0 10.3399999999999  10.3399999999999 0  23.5 0  C 36.6600000000001 0  47 10.3399999999999  47 23.5  C 47 36.6600000000001  36.6600000000001 47  23.5 47  C 22.8361676028935 47  22.1795107396254 46.97368970926  21.5309946283976 46.9220343459824  C 9.32302846469838 45.9495347541279  0 35.9960894404319  0 23.5  Z " fill-rule="nonzero" fill="#d9001b" stroke="none" transform="matrix(1 0 0 1 1085 1082 )" />
    <path d="M 0 23.5  C 0 10.3399999999999  10.3399999999999 0  23.5 0  C 36.6600000000001 0  47 10.3399999999999  47 23.5  C 47 36.6600000000001  36.6600000000001 47  23.5 47  C 22.8361676028935 47  22.1795107396254 46.97368970926  21.5309946283976 46.9220343459824  C 9.32302846469838 45.9495347541279  0 35.9960894404319  0 23.5  Z " stroke-width="2" stroke="#797979" fill="none" transform="matrix(1 0 0 1 1085 1082 )" mask="url(#clip30)" />
  </g>
</svg>