<?xml version="1.0" encoding="utf-8"?>
<svg version="1.1" xmlns:xlink="http://www.w3.org/1999/xlink" width="40px" height="40px" xmlns="http://www.w3.org/2000/svg">
  <defs>
    <filter x="557px" y="268px" width="40px" height="40px" filterUnits="userSpaceOnUse" id="filter17">
      <feOffset dx="1" dy="1" in="SourceAlpha" result="shadowOffsetInner" />
      <feGaussianBlur stdDeviation="2.5" in="shadowOffsetInner" result="shadowGaussian" />
      <feComposite in2="shadowGaussian" operator="atop" in="SourceAlpha" result="shadowComposite" />
      <feColorMatrix type="matrix" values="0 0 0 0 0  0 0 0 0 0  0 0 0 0 0  0 0 0 0.698039215686274 0  " in="shadowComposite" />
    </filter>
    <g id="widget18">
      <path d="M 576 272  C 584.4 272  591 278.6  591 287  C 591 295.4  584.4 302  576 302  C 567.6 302  561 295.4  561 287  C 561 278.6  567.6 272  576 272  Z " fill-rule="nonzero" fill="#009dd9" stroke="none" />
      <path d="M 576 272.5  C 584.12 272.5  590.5 278.88  590.5 287  C 590.5 295.12  584.12 301.5  576 301.5  C 567.88 301.5  561.5 295.12  561.5 287  C 561.5 278.88  567.88 272.5  576 272.5  Z " stroke-width="1" stroke="#ffffff" fill="none" />
    </g>
  </defs>
  <g transform="matrix(1 0 0 1 -557 -268 )">
    <use xlink:href="#widget18" filter="url(#filter17)" />
    <use xlink:href="#widget18" />
  </g>
</svg>