<?xml version="1.0" encoding="utf-8"?>
<svg version="1.1" xmlns:xlink="http://www.w3.org/1999/xlink" width="46px" height="46px" xmlns="http://www.w3.org/2000/svg">
  <g transform="matrix(1 0 0 1 -768 -231 )">
    <path d="M 791 231  C 803.88 231  814 241.12  814 254  C 814 266.88  803.88 277  791 277  C 778.12 277  768 266.88  768 254  C 768 241.12  778.12 231  791 231  Z " fill-rule="nonzero" fill="#d9001b" stroke="none" />
    <path d="M 791 231.5  C 803.6 231.5  813.5 241.4  813.5 254  C 813.5 266.6  803.6 276.5  791 276.5  C 778.4 276.5  768.5 266.6  768.5 254  C 768.5 241.4  778.4 231.5  791 231.5  Z " stroke-width="1" stroke="#797979" fill="none" />
  </g>
</svg>