<?xml version="1.0" encoding="utf-8"?>
<svg version="1.1" xmlns:xlink="http://www.w3.org/1999/xlink" width="40px" height="40px" xmlns="http://www.w3.org/2000/svg">
  <defs>
    <filter x="562px" y="641px" width="40px" height="40px" filterUnits="userSpaceOnUse" id="filter53">
      <feOffset dx="1" dy="1" in="SourceAlpha" result="shadowOffsetInner" />
      <feGaussianBlur stdDeviation="2.5" in="shadowOffsetInner" result="shadowGaussian" />
      <feComposite in2="shadowGaussian" operator="atop" in="SourceAlpha" result="shadowComposite" />
      <feColorMatrix type="matrix" values="0 0 0 0 0  0 0 0 0 0  0 0 0 0 0  0 0 0 0.698039215686274 0  " in="shadowComposite" />
    </filter>
    <g id="widget54">
      <path d="M 581 645  C 589.4 645  596 651.6  596 660  C 596 668.4  589.4 675  581 675  C 572.6 675  566 668.4  566 660  C 566 651.6  572.6 645  581 645  Z " fill-rule="nonzero" fill="#f2f2f2" stroke="none" />
      <path d="M 581 645.5  C 589.12 645.5  595.5 651.88  595.5 660  C 595.5 668.12  589.12 674.5  581 674.5  C 572.88 674.5  566.5 668.12  566.5 660  C 566.5 651.88  572.88 645.5  581 645.5  Z " stroke-width="1" stroke="#ffffff" fill="none" />
    </g>
  </defs>
  <g transform="matrix(1 0 0 1 -562 -641 )">
    <use xlink:href="#widget54" filter="url(#filter53)" />
    <use xlink:href="#widget54" />
  </g>
</svg>