<?xml version="1.0" encoding="utf-8"?>
<svg version="1.1" xmlns:xlink="http://www.w3.org/1999/xlink" width="39px" height="39px" xmlns="http://www.w3.org/2000/svg">
  <g transform="matrix(1 0 0 1 -599 -432 )">
    <path d="M 618.5 432  C 629.42 432  638 440.58  638 451.5  C 638 462.42  629.42 471  618.5 471  C 607.58 471  599 462.42  599 451.5  C 599 440.58  607.58 432  618.5 432  Z " fill-rule="nonzero" fill="#aaaaaa" stroke="none" />
    <path d="M 618.5 432.5  C 629.14 432.5  637.5 440.86  637.5 451.5  C 637.5 462.14  629.14 470.5  618.5 470.5  C 607.86 470.5  599.5 462.14  599.5 451.5  C 599.5 440.86  607.86 432.5  618.5 432.5  Z " stroke-width="1" stroke="#797979" fill="none" />
  </g>
</svg>