<?xml version="1.0" encoding="utf-8"?>
<svg version="1.1" xmlns:xlink="http://www.w3.org/1999/xlink" width="18px" height="18px" xmlns="http://www.w3.org/2000/svg">
  <g transform="matrix(1 0 0 1 -512 -443 )">
    <path d="M 521 444  C 525.48 444  529 447.52  529 452  C 529 456.48  525.48 460  521 460  C 516.52 460  513 456.48  513 452  C 513 447.52  516.52 444  521 444  Z " fill-rule="nonzero" fill="#ffffff" stroke="none" fill-opacity="0.2" />
    <path d="M 521 444  C 525.48 444  529 447.52  529 452  C 529 456.48  525.48 460  521 460  C 516.52 460  513 456.48  513 452  C 513 447.52  516.52 444  521 444  Z " stroke-width="2" stroke="#0078d7" fill="none" />
  </g>
</svg>