<?xml version="1.0" encoding="utf-8"?>
<svg version="1.1" xmlns:xlink="http://www.w3.org/1999/xlink" width="47px" height="47px" xmlns="http://www.w3.org/2000/svg">
  <g transform="matrix(1 0 0 1 -768 -234 )">
    <path d="M 791.5 234  C 804.66 234  815 244.34  815 257.5  C 815 270.66  804.66 281  791.5 281  C 778.34 281  768 270.66  768 257.5  C 768 244.34  778.34 234  791.5 234  Z " fill-rule="nonzero" fill="#d9001b" stroke="none" />
    <path d="M 791.5 234.5  C 804.38 234.5  814.5 244.62  814.5 257.5  C 814.5 270.38  804.38 280.5  791.5 280.5  C 778.62 280.5  768.5 270.38  768.5 257.5  C 768.5 244.62  778.62 234.5  791.5 234.5  Z " stroke-width="1" stroke="#797979" fill="none" />
  </g>
</svg>