<?xml version="1.0" encoding="utf-8"?>
<svg version="1.1" xmlns:xlink="http://www.w3.org/1999/xlink" width="40px" height="40px" xmlns="http://www.w3.org/2000/svg">
  <defs>
    <filter x="121px" y="407px" width="40px" height="40px" filterUnits="userSpaceOnUse" id="filter134">
      <feOffset dx="1" dy="1" in="SourceAlpha" result="shadowOffsetInner" />
      <feGaussianBlur stdDeviation="2.5" in="shadowOffsetInner" result="shadowGaussian" />
      <feComposite in2="shadowGaussian" operator="atop" in="SourceAlpha" result="shadowComposite" />
      <feColorMatrix type="matrix" values="0 0 0 0 0  0 0 0 0 0  0 0 0 0 0  0 0 0 0.698039215686274 0  " in="shadowComposite" />
    </filter>
    <g id="widget135">
      <path d="M 140 411  C 148.4 411  155 417.6  155 426  C 155 434.4  148.4 441  140 441  C 131.6 441  125 434.4  125 426  C 125 417.6  131.6 411  140 411  Z " fill-rule="nonzero" fill="#a30014" stroke="none" />
      <path d="M 140 411.5  C 148.12 411.5  154.5 417.88  154.5 426  C 154.5 434.12  148.12 440.5  140 440.5  C 131.88 440.5  125.5 434.12  125.5 426  C 125.5 417.88  131.88 411.5  140 411.5  Z " stroke-width="1" stroke="#ffffff" fill="none" />
    </g>
  </defs>
  <g transform="matrix(1 0 0 1 -121 -407 )">
    <use xlink:href="#widget135" filter="url(#filter134)" />
    <use xlink:href="#widget135" />
  </g>
</svg>