<?xml version="1.0" encoding="utf-8"?>
<svg version="1.1" xmlns:xlink="http://www.w3.org/1999/xlink" width="16px" height="16px" xmlns="http://www.w3.org/2000/svg">
  <g transform="matrix(1 0 0 1 -477 -257 )">
    <path d="M 485 257  C 489.48 257  493 260.52  493 265  C 493 269.48  489.48 273  485 273  C 480.52 273  477 269.48  477 265  C 477 260.52  480.52 257  485 257  Z " fill-rule="nonzero" fill="#ffffff" stroke="none" fill-opacity="0" />
    <path d="M 485 257.5  C 489.2 257.5  492.5 260.8  492.5 265  C 492.5 269.2  489.2 272.5  485 272.5  C 480.8 272.5  477.5 269.2  477.5 265  C 477.5 260.8  480.8 257.5  485 257.5  Z " stroke-width="1" stroke="#ffffff" fill="none" />
  </g>
</svg>