<?xml version="1.0" encoding="utf-8"?>
<svg version="1.1" xmlns:xlink="http://www.w3.org/1999/xlink" width="16px" height="18px" xmlns="http://www.w3.org/2000/svg">
  <g transform="matrix(1 0 0 1 -151 -256 )">
    <path d="M 15.6467391304348 7.21501925545571  C 15.8822463768116 7.50385109114249  16 7.85237483953787  16 8.26059050064185  L 16 9.73940949935815  C 16 10.1476251604621  15.8822463768116 10.4961489088575  15.6467391304348 10.7849807445443  C 15.411231884058 11.0738125802311  15.1050724637681 11.2182284980745  14.7282608695652 11.2182284980745  L 7.07608695652174 11.2182284980745  L 10.2608695652174 14.614890885751  C 10.536231884058 14.8921694480103  10.6739130434783 15.2387676508344  10.6739130434783 15.6546854942234  C 10.6739130434783 16.0706033376123  10.536231884058 16.4172015404365  10.2608695652174 16.6944801026958  L 9.44565217391304 17.5725288831836  C 9.17753623188406 17.8575096277279  8.85144927536232 18  8.46739130434783 18  C 8.09057971014493 18  7.76086956521739 17.8575096277279  7.47826086956522 17.5725288831836  L 0.402173913043478 10.0397946084724  C 0.134057971014493 9.75481386392811  0 9.40821566110398  0 9  C 0 8.599486521181  0.134057971014493 8.24903722721438  0.402173913043478 7.94865211810013  L 7.47826086956522 0.439024390243903  C 7.7536231884058 0.146341463414633  8.08333333333333 0  8.46739130434783 0  C 8.84420289855072 0  9.17028985507246 0.146341463414633  9.44565217391304 0.439024390243903  L 10.2608695652174 1.29396662387676  C 10.536231884058 1.58664955070603  10.6739130434783 1.93709884467265  10.6739130434783 2.34531450577664  C 10.6739130434783 2.75353016688061  10.536231884058 3.10397946084724  10.2608695652174 3.39666238767651  L 7.07608695652174 6.78177150192555  L 14.7282608695652 6.78177150192555  C 15.1050724637681 6.78177150192555  15.411231884058 6.92618741976893  15.6467391304348 7.21501925545571  Z " fill-rule="nonzero" fill="#f2f2f2" stroke="none" transform="matrix(1 0 0 1 151 256 )" />
  </g>
</svg>