<?xml version="1.0" encoding="utf-8"?>
<svg version="1.1" xmlns:xlink="http://www.w3.org/1999/xlink" width="16px" height="16px" xmlns="http://www.w3.org/2000/svg">
  <g transform="matrix(1 0 0 1 -513 -292 )">
    <path d="M 521 292  C 525.48 292  529 295.52  529 300  C 529 304.48  525.48 308  521 308  C 516.52 308  513 304.48  513 300  C 513 295.52  516.52 292  521 292  Z " fill-rule="nonzero" fill="#ffffff" stroke="none" fill-opacity="0" />
    <path d="M 521 292.5  C 525.2 292.5  528.5 295.8  528.5 300  C 528.5 304.2  525.2 307.5  521 307.5  C 516.8 307.5  513.5 304.2  513.5 300  C 513.5 295.8  516.8 292.5  521 292.5  Z " stroke-width="1" stroke="#000000" fill="none" />
  </g>
</svg>