<?xml version="1.0" encoding="utf-8"?>
<svg version="1.1" xmlns:xlink="http://www.w3.org/1999/xlink" width="10px" height="50px" preserveAspectRatio="xMidYMin meet" viewBox="493 615  8 50" xmlns="http://www.w3.org/2000/svg">
  <path d="M 2332 872  L 2295 872  A 5 5 0 0 0 2290 877 L 2290 1065  A 5 5 0 0 1 2285 1070 L 1085 1070  A 5 5 0 0 1 1080 1065 L 1080 1006  A 3 3 0 0 0 1083 1003 A 3 3 0 0 0 1080 1000 L 1080 850  A 3 3 0 0 0 1083 847 A 3 3 0 0 0 1080 844 L 1080 727  A 3 3 0 0 0 1083 724 A 3 3 0 0 0 1080 721 L 1080 625  A 5 5 0 0 0 1075 620 L 502 620  A 5 5 0 0 0 497 625 L 497 663  " stroke-width="2" stroke="#0099cc" fill="none" />
  <path d="M 492.6 660.2  L 497 665  L 501.4 660.2  L 497 655.6  L 492.6 660.2  Z " fill-rule="nonzero" fill="#0099cc" stroke="none" />
</svg>