<?xml version="1.0" encoding="utf-8"?>
<svg version="1.1" xmlns:xlink="http://www.w3.org/1999/xlink" width="12px" height="12px" viewBox="508 606  12 12" xmlns="http://www.w3.org/2000/svg">
  <path d="M 514 606  C 517.36 606  520 608.64  520 612  C 520 615.36  517.36 618  514 618  C 510.64 618  508 615.36  508 612  C 508 608.64  510.64 606  514 606  Z " fill-rule="nonzero" fill="#ffffff" stroke="none" />
  <path d="M 514 606.5  C 517.08 606.5  519.5 608.92  519.5 612  C 519.5 615.08  517.08 617.5  514 617.5  C 510.92 617.5  508.5 615.08  508.5 612  C 508.5 608.92  510.92 606.5  514 606.5  Z " stroke-width="1" stroke="#797979" fill="none" />
  <path d="M 514 615  C 512.32 615  511 613.68  511 612  C 511 610.32  512.32 609  514 609  C 515.68 609  517 610.32  517 612  C 517 613.68  515.68 615  514 615  " fill-rule="nonzero" fill="#797979" stroke="none" />
</svg>