<?xml version="1.0" encoding="utf-8"?>
<svg version="1.1" xmlns:xlink="http://www.w3.org/1999/xlink" width="12px" height="12px" viewBox="504 688  12 12" xmlns="http://www.w3.org/2000/svg">
  <path d="M 510 688  C 513.36 688  516 690.64  516 694  C 516 697.36  513.36 700  510 700  C 506.64 700  504 697.36  504 694  C 504 690.64  506.64 688  510 688  Z " fill-rule="nonzero" fill="#ffffff" stroke="none" />
  <path d="M 510 688.5  C 513.08 688.5  515.5 690.92  515.5 694  C 515.5 697.08  513.08 699.5  510 699.5  C 506.92 699.5  504.5 697.08  504.5 694  C 504.5 690.92  506.92 688.5  510 688.5  Z " stroke-width="1" stroke="#797979" fill="none" />
  <path d="M 510 697  C 508.32 697  507 695.68  507 694  C 507 692.32  508.32 691  510 691  C 511.68 691  513 692.32  513 694  C 513 695.68  511.68 697  510 697  " fill-rule="nonzero" fill="#797979" stroke="none" />
</svg>