<?xml version="1.0" encoding="utf-8"?>
<svg version="1.1" xmlns:xlink="http://www.w3.org/1999/xlink" width="12px" height="12px" viewBox="504 376  12 12" xmlns="http://www.w3.org/2000/svg">
  <path d="M 510 376  C 513.36 376  516 378.64  516 382  C 516 385.36  513.36 388  510 388  C 506.64 388  504 385.36  504 382  C 504 378.64  506.64 376  510 376  Z " fill-rule="nonzero" fill="#ffffff" stroke="none" />
  <path d="M 510 376.5  C 513.08 376.5  515.5 378.92  515.5 382  C 515.5 385.08  513.08 387.5  510 387.5  C 506.92 387.5  504.5 385.08  504.5 382  C 504.5 378.92  506.92 376.5  510 376.5  Z " stroke-width="1" stroke="#797979" fill="none" />
  <path d="M 510 385  C 508.32 385  507 383.68  507 382  C 507 380.32  508.32 379  510 379  C 511.68 379  513 380.32  513 382  C 513 383.68  511.68 385  510 385  " fill-rule="nonzero" fill="#797979" stroke="none" />
</svg>