<?xml version="1.0" encoding="utf-8"?>
<svg version="1.1" xmlns:xlink="http://www.w3.org/1999/xlink" width="27px" height="31px" xmlns="http://www.w3.org/2000/svg">
  <g transform="matrix(1 0 0 1 -86 -288 )">
    <path d="M 99.5 288  C 107.06 288  113 294.82  113 303.5  C 113 312.18  107.06 319  99.5 319  C 91.94 319  86 312.18  86 303.5  C 86 294.82  91.94 288  99.5 288  Z " fill-rule="nonzero" fill="#199ed8" stroke="none" />
    <path d="M 99.5 288.5  C 106.78 288.5  112.5 295.1  112.5 303.5  C 112.5 311.9  106.78 318.5  99.5 318.5  C 92.22 318.5  86.5 311.9  86.5 303.5  C 86.5 295.1  92.22 288.5  99.5 288.5  Z " stroke-width="1" stroke="#797979" fill="none" />
  </g>
</svg>