<?xml version="1.0" encoding="utf-8"?>
<svg version="1.1" xmlns:xlink="http://www.w3.org/1999/xlink" width="27px" height="31px" xmlns="http://www.w3.org/2000/svg">
  <g transform="matrix(1 0 0 1 -170 -288 )">
    <path d="M 183.5 288  C 191.06 288  197 294.82  197 303.5  C 197 312.18  191.06 319  183.5 319  C 175.94 319  170 312.18  170 303.5  C 170 294.82  175.94 288  183.5 288  Z " fill-rule="nonzero" fill="#00ccff" stroke="none" />
    <path d="M 183.5 288.5  C 190.78 288.5  196.5 295.1  196.5 303.5  C 196.5 311.9  190.78 318.5  183.5 318.5  C 176.22 318.5  170.5 311.9  170.5 303.5  C 170.5 295.1  176.22 288.5  183.5 288.5  Z " stroke-width="1" stroke="#797979" fill="none" />
  </g>
</svg>